<svg width="14" height="11" viewBox="0 0 14 11" fill="none" xmlns="http://www.w3.org/2000/svg">
<path d="M4.30964 8.46942L1.4185 5.57752C1.34142 5.50025 1.24986 5.43895 1.14907 5.39712C1.04828 5.35529 0.940225 5.33376 0.831101 5.33376C0.721977 5.33376 0.613925 5.35529 0.513131 5.39712C0.412337 5.43895 0.320782 5.50025 0.243706 5.57752C-0.0812354 5.90255 -0.0812354 6.42759 0.243706 6.75262L3.72642 10.2362C4.05136 10.5613 4.57626 10.5613 4.90121 10.2362L13.7163 1.41885C14.0412 1.09383 14.0412 0.568784 13.7163 0.243758C13.6392 0.166489 13.5477 0.105185 13.4469 0.0633577C13.3461 0.0215302 13.238 0 13.1289 0C13.0198 0 12.9117 0.0215302 12.8109 0.0633577C12.7101 0.105185 12.6186 0.166489 12.5415 0.243758L4.30964 8.46942Z" fill="white"/>
</svg>