<?xml version="1.0" encoding="utf-8"?>
<!-- Generator: Adobe Illustrator 22.1.0, SVG Export Plug-In . SVG Version: 6.00 Build 0)  -->
<svg version="1.1" id="Layer_1" xmlns="http://www.w3.org/2000/svg" xmlns:xlink="http://www.w3.org/1999/xlink" x="0px" y="0px"
	 viewBox="0 0 566.9 566.9" style="enable-background:new 0 0 566.9 566.9;" xml:space="preserve">
<style type="text/css">
	.st0{fill:#0C9D8A;}
	.st1{fill:#5e2f68;}
</style>
<g>
	<g>
		<path class="st0" d="M422.2,29.6c-79.8,0-144.8,64.9-144.8,144.8c0,73.1-59.5,132.6-132.6,132.6S12.2,247.5,12.2,174.4V89
			c0-32.8,25.2-59.9,57.2-63v63.4c0,3.4,2.7,6.1,6.1,6.1s6.1-2.7,6.1-6.1c0-32.8,25.2-59.9,57.2-63v63c0,3.4,2.7,6.1,6.1,6.1
			s6.1-2.7,6.1-6.1V89c0-32.8,25.2-59.9,57.2-63v63.4c0,3.4,2.7,6.1,6.1,6.1s6.1-2.7,6.1-6.1V19.6c0-3.4-2.7-6.1-6.1-6.1
			c-26.5,0-49.8,13.7-63.3,34.5V20c0-3.4-2.7-6.1-6.1-6.1c-26.5,0-49.8,13.7-63.3,34.4V19.6c0-3.4-2.7-6.1-6.1-6.1
			C33.8,13.6,0,47.4,0,89v85.4c0,79.8,64.9,144.8,144.8,144.8s144.8-64.9,144.8-144.8c0-73.1,59.5-132.6,132.6-132.6
			c73.1,0,132.6,59.5,132.6,132.6v103.5c0,16.1-13.1,29.2-29.1,29.2c-16.1,0-29.2-13.1-29.2-29.2v-49c0.1-0.9,0.3-1.8,0.3-2.7v-14
			c0-3.4-2.7-6.1-6.1-6.1c-3.4,0-6.1,2.7-6.1,6.1v12.6c-0.1,0.5-0.3,0.9-0.3,1.4v2.8c-1.4,14.2-13.3,25.4-27.8,25.4
			c-13.9,0-25.4-10.2-27.6-23.4c7-2.5,12-8.7,12.9-16.3c0.3-0.7,0.5-1.5,0.5-2.4s-0.2-1.6-0.5-2.4c-1.2-9.9-9.4-17.7-19.6-17.7
			c-10.2,0-18.4,7.8-19.6,17.7c-0.3,0.7-0.5,1.5-0.5,2.4s0.2,1.6,0.5,2.4c1,7.7,6,13.9,13.2,16.4c-2.3,13.2-13.8,23.4-27.6,23.4
			c-15.5,0-28.1-12.6-28.1-28.1v-14c0-3.4-2.7-6.1-6.1-6.1s-6.1,2.7-6.1,6.1v65.7c0,16.1-13.1,29.2-29.2,29.2
			c-16.1,0-29.1-13.1-29.1-29.2c0-3.4-2.7-6.1-6.1-6.1s-6.1,2.7-6.1,6.1c0,22.8,18.5,41.3,41.3,41.3c22.8,0,41.3-18.5,41.3-41.3v-23
			c7.3,7.1,17.2,11.5,28.1,11.5c14.5,0,27.1-7.8,34.2-19.3c7.1,11.5,19.7,19.3,34.2,19.3c10.8,0,20.6-4.3,27.8-11.3v22.8
			c0,22.8,18.5,41.3,41.3,41.3c22.8,0,41.3-18.5,41.3-41.3V174.4C566.9,94.5,502,29.6,422.2,29.6z M422.2,204.2
			c4.4,0,7.9,3.6,7.9,7.9s-3.5,7.9-7.9,7.9s-7.9-3.5-7.9-7.9S417.8,204.2,422.2,204.2z"/>
		<path class="st0" d="M109.5,189.2c3.4,0,6.1-2.7,6.1-6.1c0-13.1-10.6-23.7-23.7-23.7s-23.7,10.6-23.7,23.7c0,3.4,2.7,6.1,6.1,6.1
			c3.4,0,6.1-2.7,6.1-6.1c0-6.4,5.2-11.5,11.5-11.5s11.5,5.2,11.5,11.5C103.5,186.5,106.2,189.2,109.5,189.2z"/>
		<path class="st0" d="M197.6,171.6c6.4,0,11.5,5.2,11.5,11.5c0,3.4,2.7,6.1,6.1,6.1c3.4,0,6.1-2.7,6.1-6.1
			c0-13.1-10.6-23.7-23.7-23.7s-23.7,10.6-23.7,23.7c0,3.4,2.7,6.1,6.1,6.1s6.1-2.7,6.1-6.1C186.1,176.8,191.2,171.6,197.6,171.6z"
			/>
		<path class="st0" d="M369.3,162.8c11.1,0,20.1-9,20.1-20.1c0-11.1-9-20-20.1-20c-11.1,0-20.1,9-20.1,20
			C349.3,153.8,358.3,162.8,369.3,162.8z M369.3,134.8c4.4,0,7.9,3.5,7.9,7.9s-3.5,7.9-7.9,7.9s-7.9-3.6-7.9-7.9
			S365,134.8,369.3,134.8z"/>
		<path class="st0" d="M144.8,267.4c22.8,0,41.3-18.5,41.3-41.3c0-3.4-2.7-6.1-6.1-6.1s-6.1,2.7-6.1,6.1c0,16.1-13.1,29.2-29.1,29.2
			s-29.1-13.1-29.1-29.2c0-3.4-2.7-6.1-6.1-6.1c-3.4,0-6.1,2.7-6.1,6.1C103.5,248.9,122,267.4,144.8,267.4z"/>
		<path class="st0" d="M475,162.8c11.1,0,20.1-9,20.1-20.1c0-11.1-9-20-20.1-20c-11.1,0-20.1,9-20.1,20
			C454.9,153.8,463.9,162.8,475,162.8z M475,134.8c4.4,0,7.9,3.5,7.9,7.9s-3.5,7.9-7.9,7.9s-7.9-3.6-7.9-7.9S470.6,134.8,475,134.8z
			"/>
	</g>
	<g>
		<path class="st1" d="M47.1,542c-3.3,0-5.4-1.4-6.4-4.5l-38-113.5c-1.2-3.8,0.5-6.3,4.5-6.3h1.2c3.3,0,5.4,1.4,6.4,4.5L48.7,523
			l33.6-100.8c1.1-3.1,3.1-4.5,6.4-4.5h3c3.3,0,5.4,1.4,6.4,4.5L131.9,523l33.6-100.8c1.1-3.1,3.1-4.5,6.4-4.5h1.2
			c4,0,5.8,2.4,4.5,6.3l-37.9,113.5c-1,3.1-3.1,4.5-6.4,4.5h-3c-3.3,0-5.4-1.4-6.4-4.5L90.3,436.6L56.5,537.4
			c-1.1,3.1-3.1,4.5-6.4,4.5H47.1z"/>
		<path class="st1" d="M319.7,478.9c0,35.5-29.1,64.4-64.8,64.4c-35.7,0-64.7-28.9-64.7-64.4c0-34.1,29.1-63,64.7-63
			C290.7,415.9,319.7,444.8,319.7,478.9z M306.5,478.9c0-27.3-22.8-50.3-51.5-50.3c-28.7,0-51.5,23-51.5,50.3
			c0,28.7,22.8,51.7,51.5,51.7C283.7,530.6,306.5,507.7,306.5,478.9z"/>
		<path class="st1" d="M470.1,478.9c0,35.5-29.1,64.4-64.8,64.4c-35.7,0-64.7-28.9-64.7-64.4c0-34.1,29.1-63,64.7-63
			C441.1,415.9,470.1,444.8,470.1,478.9z M456.9,478.9c0-27.3-22.8-50.3-51.5-50.3c-28.7,0-51.5,23-51.5,50.3
			c0,28.7,22.8,51.7,51.5,51.7C434.1,530.6,456.9,507.7,456.9,478.9z"/>
		<path class="st1" d="M504.5,542c-3.7,0-5.6-1.9-5.6-5.6V423.2c0-3.7,1.9-5.6,5.6-5.6h55.9c3.6,0,5.6,1.9,5.6,5.6v1
			c0,3.7-1.9,5.6-5.6,5.6h-48.7v34.8h44.7c3.7,0,5.6,1.9,5.6,5.6v1c0,3.7-1.9,5.6-5.6,5.6h-44.7v59.5c0,3.7-1.9,5.6-5.6,5.6H504.5z"
			/>
	</g>
</g>
</svg>
