<?xml version="1.0" encoding="UTF-8" standalone="no" ?>
<!DOCTYPE svg PUBLIC "-//W3C//DTD SVG 1.1//EN" "http://www.w3.org/Graphics/SVG/1.1/DTD/svg11.dtd">
<svg xmlns="http://www.w3.org/2000/svg" xmlns:xlink="http://www.w3.org/1999/xlink" version="1.1" width="105" height="105" viewBox="0 0 105 105" xml:space="preserve">
<desc>Created with Fabric.js 5.2.4</desc>
<defs>
</defs>
<rect x="0" y="0" width="100%" height="100%" fill="transparent"></rect>
<g transform="matrix(1 0 0 1 52.5 52.5)" id="c44aaa67-d96a-4f5a-ad70-e74eb5d3b431"  >
<rect style="stroke: none; stroke-width: 1; stroke-dasharray: none; stroke-linecap: butt; stroke-dashoffset: 0; stroke-linejoin: miter; stroke-miterlimit: 4; fill: rgb(255,255,255); fill-rule: nonzero; opacity: 1; visibility: hidden;" vector-effect="non-scaling-stroke"  x="-52.5" y="-52.5" rx="0" ry="0" width="105" height="105" />
</g>
<g transform="matrix(Infinity NaN NaN Infinity 0 0)" id="72777682-4688-4d4f-b35b-6562b81b3912"  >
</g>
<g transform="matrix(NaN NaN NaN NaN 0 0)"  >
<g style=""   >
</g>
</g>
<g transform="matrix(0.8 0 0 0.8 52.5 52.5)" id="typescript"  >
<path style="stroke: none; stroke-width: 1; stroke-dasharray: none; stroke-linecap: butt; stroke-dashoffset: 0; stroke-linejoin: miter; stroke-miterlimit: 4; fill: rgb(0,122,204); fill-rule: nonzero; opacity: 1;"  transform=" translate(-64.5, -63.91)" d="M 2 63.91 L 2 126.41 L 127 126.41 L 127 1.41 L 2 1.41 Z M 102.73 58.91 C 105.72388566128986 59.60476974019147 108.44496374570015 61.17060751255034 110.55 63.40999999999998 C 111.70885488474119 64.61644915115549 112.71628818261827 65.95969354832495 113.55000000000001 67.41000000000001 C 113.55000000000001 67.57 108.15 71.22 104.86000000000001 73.25999999999999 C 104.74000000000001 73.33999999999999 104.26000000000002 72.82 103.73000000000002 72.02999999999999 C 102.50920911432235 69.92351958862348 100.29297210921472 68.590756960339 97.86000000000001 68.49999999999999 C 94.07000000000001 68.23999999999998 91.63000000000001 70.22999999999999 91.65000000000002 73.49999999999999 C 91.61866118657639 74.31414644906074 91.80506947654767 75.12191570560292 92.19000000000003 75.83999999999999 C 93.02000000000002 77.57 94.57000000000002 78.6 99.43000000000002 80.69999999999999 C 108.38000000000002 84.54999999999998 112.21000000000002 87.08999999999999 114.59000000000002 90.69999999999999 C 117.25000000000001 94.69999999999999 117.84000000000002 101.16 116.04000000000002 105.93999999999998 C 114.04000000000002 111.13999999999999 109.14000000000001 114.66999999999999 102.21000000000002 115.83999999999999 C 99.04484754806023 116.20253298357075 95.84683865533523 116.16894045318499 92.69000000000003 115.74000000000001 C 87.87216410743616 114.95844154473505 83.42786404458289 112.66449627982655 80 109.19 C 78.85 107.92 76.61 104.61 76.75 104.37 C 77.11505508613857 104.09900137627177 77.49941026988536 103.8550193900673 77.9 103.64 L 82.5 101 L 86.09 98.92 L 86.84 100.03 C 88.10574070513631 101.8405989683505 89.71654975330638 103.3834413900155 91.58 104.57000000000001 C 95.58 106.67 101.03999999999999 106.38000000000001 103.74 103.95 C 105.61068520660203 102.11251079662394 105.90102527689851 99.20069443944766 104.42999999999999 97.03 C 103.42999999999999 95.64 101.42999999999999 94.47 95.83999999999999 92.03 C 89.38999999999999 89.25 86.60999999999999 87.53 84.07 84.79 C 82.48433385823908 82.98189044395698 81.31360945364138 80.84864626648303 80.63999999999999 78.54 C 80.13754514559925 75.9024491841911 80.06326020642126 73.20117866862836 80.41999999999999 70.54000000000002 C 81.74999999999999 64.31 86.41999999999999 59.96000000000001 93.23999999999998 58.67000000000001 C 96.39842133321024 58.279200127800884 99.5977142252649 58.366851987857174 102.73000000000002 58.93 Z M 73.39 64.15 L 73.39 69.27000000000001 L 57.16 69.27000000000001 L 57.16 115.5 L 45.65 115.5 L 45.65 69.26 L 29.38 69.26 L 29.38 64.26 C 29.33632564983554 62.53873517970387 29.383056641615028 60.81636433983167 29.520000000000007 59.10000000000005 C 29.58 59.02000000000001 39.519999999999996 58.98000000000001 51.519999999999996 59.00000000000001 L 73.33 59 Z" stroke-linecap="round" />
</g>
</svg>