<svg xmlns="http://www.w3.org/2000/svg" width="15" height="14" viewBox="0 0 15 14" fill="none">
<path d="M0.323366 0.307997C0.754522 -0.102658 1.45356 -0.102658 1.88472 0.307997L14.3755 12.2049C14.8067 12.6156 14.8067 13.2814 14.3755 13.692C13.9444 14.1027 13.2453 14.1027 12.8142 13.692L0.323368 1.79511C-0.107788 1.38446 -0.10779 0.718652 0.323366 0.307997Z" fill="#25274d"/>
<path d="M14.6766 0.307991C15.1078 0.718645 15.1078 1.38445 14.6766 1.7951L2.18581 13.692C1.75465 14.1027 1.05561 14.1027 0.624456 13.692C0.1933 13.2813 0.1933 12.6155 0.624456 12.2049L13.1153 0.307992C13.5464 -0.102663 14.2455 -0.102664 14.6766 0.307991Z" fill="#25274d"/>
</svg>