<svg xmlns="http://www.w3.org/2000/svg" width="10" height="12" viewBox="0 0 10 12" fill="none">
<path d="M8.96397 -9.05731e-08C9.21922 -6.8258e-08 9.45946 0.128 9.68469 0.384C9.8949 0.656 10 0.927999 10 1.2C10 1.376 9.96246 1.528 9.88739 1.656C9.7973 1.784 9.66216 1.904 9.48198 2.016L1.62162 6.768L1.48649 4.968L9.5045 9.96C9.66967 10.056 9.78979 10.176 9.86486 10.32C9.92493 10.464 9.95496 10.624 9.95496 10.8C9.95496 11.12 9.84985 11.4 9.63964 11.64C9.42943 11.88 9.21171 12 8.98649 12C8.85135 12 8.70871 11.96 8.55856 11.88C8.39339 11.8 8.22823 11.704 8.06306 11.592L0.54054 6.96C0.360361 6.848 0.225225 6.704 0.135135 6.528C0.0450454 6.352 5.11248e-07 6.152 5.30831e-07 5.928C5.49015e-07 5.72 0.0450455 5.528 0.135135 5.352C0.21021 5.176 0.337838 5.032 0.518018 4.92L8.08559 0.359999C8.25075 0.264 8.40841 0.176 8.55856 0.0959996C8.69369 0.0319995 8.82883 -1.02387e-07 8.96397 -9.05731e-08Z" fill="#25274d"/>
</svg>