<svg xmlns="http://www.w3.org/2000/svg" width="10" height="12" viewBox="0 0 10 12" fill="none">
<path d="M1.03604 12C0.780781 12 0.540541 11.872 0.315315 11.616C0.105105 11.344 0 11.072 0 10.8C0 10.624 0.0375375 10.472 0.112613 10.344C0.202703 10.216 0.337838 10.096 0.518018 9.984L8.37838 5.232L8.51351 7.032L0.495496 2.04C0.33033 1.944 0.21021 1.824 0.135135 1.68C0.0750751 1.536 0.0450451 1.376 0.0450451 1.2C0.0450451 0.88 0.15015 0.599999 0.36036 0.36C0.570571 0.12 0.788288 0 1.01351 0C1.14865 0 1.29129 0.04 1.44144 0.12C1.60661 0.2 1.77177 0.296 1.93694 0.407999L9.45946 5.04C9.63964 5.152 9.77478 5.296 9.86487 5.472C9.95496 5.648 10 5.848 10 6.072C10 6.28 9.95496 6.472 9.86487 6.648C9.78979 6.824 9.66216 6.968 9.48198 7.08L1.91441 11.64C1.74925 11.736 1.59159 11.824 1.44144 11.904C1.30631 11.968 1.17117 12 1.03604 12Z" fill="#25274d"/>
</svg>