<svg width="132" height="251" viewBox="0 0 132 251" fill="none" xmlns="http://www.w3.org/2000/svg">
<path d="M10.1624 41.5494C10.1622 33.3418 12.591 25.3179 17.1424 18.4903C21.6937 11.6626 28.1635 6.33696 35.7357 3.18529C43.308 0.0336208 51.6432 -0.80289 59.6899 0.781297C67.7366 2.36548 75.1343 6.29939 80.9495 12.0867C85.5249 9.82656 90.6356 8.87628 95.7168 9.34086C100.798 9.80544 105.652 11.6668 109.743 14.7193C113.833 17.7718 117.001 21.8965 118.896 26.6379C120.791 31.3792 121.339 36.5526 120.481 41.5864C121.743 41.7036 122.968 42.08 124.078 42.6921C125.189 43.3041 126.161 44.1387 126.935 45.1437C127.709 46.1487 128.268 47.3026 128.576 48.5333C128.885 49.764 128.937 51.0451 128.728 52.2967C124.558 77.4015 114.244 93.2916 97.8045 99.9763V106.181C97.8045 109.854 96.3465 113.377 93.7513 115.974C91.1562 118.571 87.6364 120.031 83.9662 120.031H47.0643C43.3942 120.031 39.8744 118.571 37.2792 115.974C34.684 113.377 33.2261 109.854 33.2261 106.181V99.9763C16.7863 93.2916 6.47217 77.4015 2.30225 52.2967C2.101 51.0784 2.146 49.832 2.43458 48.6313C2.72316 47.4307 3.24947 46.3002 3.98234 45.3067C4.71522 44.3133 5.63977 43.477 6.70129 42.8475C7.7628 42.218 8.93971 41.808 10.1624 41.6418V41.5494ZM19.3878 41.5494H28.6133C28.6133 35.4275 31.0432 29.5564 35.3685 25.2275C39.6938 20.8987 45.5602 18.4668 51.677 18.4668C57.7939 18.4668 63.6603 20.8987 67.9855 25.2275C72.3108 29.5564 74.7407 35.4275 74.7407 41.5494H83.9662C83.9662 32.9788 80.5643 24.7591 74.5089 18.6987C68.4535 12.6384 60.2407 9.23368 51.677 9.23368C43.1134 9.23368 34.9005 12.6384 28.8451 18.6987C22.7897 24.7591 19.3878 32.9788 19.3878 41.5494ZM37.8388 41.5494H65.5153C65.5153 37.8763 64.0573 34.3536 61.4621 31.7563C58.867 29.159 55.3472 27.6998 51.677 27.6998C48.0069 27.6998 44.4871 29.159 41.8919 31.7563C39.2968 34.3536 37.8388 37.8763 37.8388 41.5494ZM101.181 41.5494H111.061C111.758 38.8208 111.823 35.9691 111.251 33.2115C110.68 30.454 109.487 27.8634 107.763 25.6371C106.04 23.4109 103.831 21.6078 101.306 20.3652C98.781 19.1226 96.0056 18.4733 93.1917 18.4668C90.9776 18.4668 88.8742 18.8545 86.9184 19.5655C88.5513 22.1877 89.8982 25.013 90.9315 27.9768C92.6886 27.5407 94.535 27.6305 96.2416 28.2351C97.9482 28.8398 99.4398 29.9326 100.531 31.3781C101.623 32.8236 102.266 34.558 102.382 36.3662C102.497 38.1743 102.08 39.9766 101.181 41.5494ZM88.579 101.564H42.4516V106.181C42.4516 107.405 42.9375 108.58 43.8026 109.445C44.6676 110.311 45.8409 110.797 47.0643 110.797H83.9662C85.1896 110.797 86.3629 110.311 87.2279 109.445C88.093 108.58 88.579 107.405 88.579 106.181V101.564ZM39.2042 92.3313H91.8263C106.458 87.6225 115.72 74.3084 119.632 50.7825H11.3986C15.3102 74.3084 24.5726 87.6225 39.2042 92.3313Z" fill="#FF7F0F"/>
<path d="M12.3635 187.69C12.3635 188.529 12.0482 189.257 11.4176 189.875C10.8321 190.449 10.1115 190.736 9.25571 190.736H7.56671C5.49488 190.736 3.7158 190.03 2.22948 188.617C0.74316 187.16 0 185.394 0 183.319V149.015C0 148.132 0.29276 147.404 0.878279 146.83C1.50884 146.256 2.252 145.969 3.10776 145.969H4.99944C5.8552 145.969 6.57583 146.256 7.16135 146.83C7.79191 147.404 8.10719 148.132 8.10719 149.015V182.061C8.10719 182.635 8.37743 182.922 8.91791 182.922H9.25571C10.1115 182.922 10.8321 183.209 11.4176 183.783C12.0482 184.356 12.3635 185.085 12.3635 185.968V187.69Z" fill="#FF7F0F"/>
<path d="M42.14 183.319C42.14 185.394 41.3968 187.16 39.9105 188.617C38.4692 190.03 36.7127 190.736 34.6408 190.736H25.25C23.1782 190.736 21.3991 190.03 19.9128 188.617C18.4264 187.16 17.6833 185.394 17.6833 183.319V159.545C17.6833 158.662 17.976 157.933 18.5616 157.359C19.1921 156.741 19.9353 156.432 20.791 156.432H22.6827C23.5385 156.432 24.2591 156.741 24.8446 157.359C25.4302 157.933 25.7229 158.662 25.7229 159.545V182.061C25.7229 182.281 25.813 182.48 25.9932 182.657C26.2184 182.833 26.4436 182.922 26.6688 182.922H33.2221C33.4473 182.922 33.65 182.833 33.8301 182.657C34.0553 182.48 34.1679 182.281 34.1679 182.061V159.545C34.1679 158.662 34.4607 157.933 35.0462 157.359C35.6317 156.741 36.3524 156.432 37.2081 156.432H39.0998C39.9556 156.432 40.6762 156.741 41.2617 157.359C41.8472 157.933 42.14 158.662 42.14 159.545V183.319Z" fill="#FF7F0F"/>
<path d="M72.0933 187.69C72.0933 188.529 71.8006 189.257 71.215 189.875C70.6295 190.449 69.9089 190.736 69.0531 190.736H67.1614C66.3057 190.736 65.585 190.449 64.9995 189.875C64.414 189.257 64.1212 188.529 64.1212 187.69V165.24C64.1212 164.975 64.0087 164.754 63.7835 164.578C63.6033 164.401 63.4006 164.313 63.1754 164.313H56.6221C56.3969 164.313 56.1717 164.401 55.9465 164.578C55.7663 164.754 55.6763 164.975 55.6763 165.24V187.69C55.6763 188.529 55.3835 189.257 54.798 189.875C54.2125 190.449 53.4918 190.736 52.6361 190.736H50.7444C49.8886 190.736 49.1455 190.449 48.5149 189.875C47.9294 189.257 47.6366 188.529 47.6366 187.69V163.849C47.6366 162.481 47.9744 161.244 48.65 160.141C49.3707 158.993 50.294 158.088 51.42 157.425C52.546 156.763 53.8071 156.432 55.2033 156.432H64.5942C65.9904 156.432 67.2515 156.763 68.3775 157.425C69.5035 158.088 70.4043 158.993 71.0799 160.141C71.7555 161.244 72.0933 162.481 72.0933 163.849V187.69Z" fill="#FF7F0F"/>
<path d="M102.047 183.319C102.047 185.394 101.303 187.16 99.8172 188.617C98.3759 190.03 96.6193 190.736 94.5475 190.736H85.1567C83.0848 190.736 81.3058 190.03 79.8194 188.617C78.3331 187.16 77.59 185.394 77.59 183.319V163.849C77.59 162.481 77.9278 161.244 78.6034 160.141C79.324 158.993 80.2473 158.088 81.3733 157.425C82.4993 156.763 83.7604 156.432 85.1567 156.432H94.5475C95.9437 156.432 97.2049 156.763 98.3309 157.425C99.4569 158.088 100.358 158.993 101.033 160.141C101.709 161.244 102.047 162.481 102.047 163.849V167.293C102.047 168.132 101.754 168.86 101.168 169.478C100.583 170.052 99.8622 170.339 99.0065 170.339H97.1148C96.259 170.339 95.5384 170.052 94.9529 169.478C94.3673 168.86 94.0746 168.132 94.0746 167.293V165.24C94.0746 164.975 93.962 164.754 93.7368 164.578C93.5566 164.401 93.354 164.313 93.1287 164.313H86.5754C86.3502 164.313 86.125 164.401 85.8998 164.578C85.7197 164.754 85.6296 164.975 85.6296 165.24V182.061C85.6296 182.281 85.7197 182.48 85.8998 182.657C86.125 182.833 86.3502 182.922 86.5754 182.922H93.1287C93.354 182.922 93.5566 182.833 93.7368 182.657C93.962 182.48 94.0746 182.281 94.0746 182.061V180.008C94.0746 179.169 94.3673 178.463 94.9529 177.889C95.5384 177.271 96.259 176.961 97.1148 176.961H99.0065C99.8622 176.961 100.583 177.271 101.168 177.889C101.754 178.463 102.047 179.169 102.047 180.008V183.319Z" fill="#FF7F0F"/>
<path d="M132 187.69C132 188.529 131.707 189.257 131.122 189.875C130.536 190.449 129.816 190.736 128.96 190.736H127.068C126.212 190.736 125.492 190.449 124.906 189.875C124.321 189.257 124.028 188.529 124.028 187.69V165.24C124.028 164.975 123.915 164.754 123.69 164.578C123.51 164.401 123.307 164.313 123.082 164.313H116.529C116.304 164.313 116.078 164.401 115.853 164.578C115.673 164.754 115.583 164.975 115.583 165.24V187.69C115.583 188.529 115.29 189.257 114.705 189.875C114.119 190.449 113.398 190.736 112.543 190.736H110.651C109.795 190.736 109.052 190.449 108.422 189.875C107.836 189.257 107.543 188.529 107.543 187.69V149.015C107.543 148.132 107.836 147.404 108.422 146.83C109.052 146.256 109.795 145.969 110.651 145.969H112.543C113.398 145.969 114.119 146.256 114.705 146.83C115.29 147.404 115.583 148.132 115.583 149.015V155.637C115.583 155.858 115.673 156.057 115.853 156.233C116.078 156.366 116.304 156.432 116.529 156.432H124.501C125.897 156.432 127.158 156.763 128.284 157.425C129.41 158.088 130.311 158.993 130.987 160.141C131.662 161.244 132 162.481 132 163.849V187.69Z" fill="#FF7F0F"/>
<path d="M24.5243 232.987C24.5243 235.062 23.7811 236.828 22.2948 238.285C20.8535 239.697 19.0969 240.404 17.0251 240.404H7.63427C5.56244 240.404 3.78336 239.697 2.29704 238.285C0.81072 236.828 0.0675601 235.062 0.0675601 232.987V225.768C0.0675601 224.4 0.40536 223.186 1.08096 222.126C1.8016 221.022 2.72492 220.139 3.85092 219.477C4.97692 218.815 6.23804 218.484 7.63427 218.484H15.6063C15.8315 218.484 16.0342 218.395 16.2144 218.219C16.4396 218.042 16.5522 217.822 16.5522 217.557V214.908C16.5522 214.643 16.4396 214.422 16.2144 214.245C16.0342 214.069 15.8315 213.981 15.6063 213.981H7.63427C6.77851 213.981 6.03535 213.694 5.4048 213.12C4.81928 212.546 4.52652 211.839 4.52652 211V209.212C4.52652 208.329 4.81928 207.601 5.4048 207.027C6.03535 206.409 6.77851 206.1 7.63427 206.1H17.0251C18.4213 206.1 19.6825 206.431 20.8085 207.093C21.9345 207.756 22.8353 208.661 23.5109 209.808C24.1865 210.912 24.5243 212.148 24.5243 213.517V232.987ZM16.5522 231.729V227.159C16.5522 226.938 16.4396 226.74 16.2144 226.563C16.0342 226.386 15.8315 226.298 15.6063 226.298H9.05303C8.82783 226.298 8.60263 226.386 8.37743 226.563C8.19727 226.74 8.10719 226.938 8.10719 227.159V231.729C8.10719 231.949 8.19727 232.148 8.37743 232.325C8.60263 232.501 8.82783 232.589 9.05303 232.589H15.6063C15.8315 232.589 16.0342 232.501 16.2144 232.325C16.4396 232.148 16.5522 231.949 16.5522 231.729Z" fill="#FF7F0F"/>
<path d="M54.4776 232.987C54.4776 235.062 53.7344 236.828 52.2481 238.285C50.8068 239.697 49.0503 240.404 46.9784 240.404H39.0064C38.7812 240.404 38.556 240.492 38.3308 240.669C38.1506 240.845 38.0605 241.044 38.0605 241.265V247.953C38.0605 248.792 37.7678 249.499 37.1822 250.072C36.5967 250.691 35.8761 251 35.0203 251H33.1287C32.2729 251 31.5297 250.691 30.8992 250.072C30.3137 249.499 30.0209 248.792 30.0209 247.953V213.517C30.0209 212.148 30.3587 210.912 31.0343 209.808C31.7549 208.661 32.6782 207.756 33.8042 207.093C34.9302 206.431 36.1914 206.1 37.5876 206.1H46.9784C48.3747 206.1 49.6358 206.431 50.7618 207.093C51.8878 207.756 52.7886 208.661 53.4642 209.808C54.1398 210.912 54.4776 212.148 54.4776 213.517V232.987ZM46.5055 231.729V214.908C46.5055 214.643 46.3929 214.422 46.1677 214.245C45.9876 214.069 45.7849 213.981 45.5597 213.981H39.0064C38.7812 213.981 38.556 214.069 38.3308 214.245C38.1506 214.422 38.0605 214.643 38.0605 214.908V231.729C38.0605 231.949 38.1506 232.148 38.3308 232.325C38.556 232.501 38.7812 232.589 39.0064 232.589H45.5597C45.7849 232.589 45.9876 232.501 46.1677 232.325C46.3929 232.148 46.5055 231.949 46.5055 231.729Z" fill="#FF7F0F"/>
<path d="M84.4309 232.987C84.4309 235.062 83.6878 236.828 82.2015 238.285C80.7602 239.697 79.0036 240.404 76.9318 240.404H68.9597C68.7345 240.404 68.5093 240.492 68.2841 240.669C68.1039 240.845 68.0139 241.044 68.0139 241.265V247.953C68.0139 248.792 67.7211 249.499 67.1356 250.072C66.5501 250.691 65.8294 251 64.9737 251H63.082C62.2262 251 61.4831 250.691 60.8525 250.072C60.267 249.499 59.9742 248.792 59.9742 247.953V213.517C59.9742 212.148 60.312 210.912 60.9876 209.808C61.7083 208.661 62.6316 207.756 63.7576 207.093C64.8836 206.431 66.1447 206.1 67.5409 206.1H76.9318C78.328 206.1 79.5891 206.431 80.7151 207.093C81.8411 207.756 82.7419 208.661 83.4175 209.808C84.0931 210.912 84.4309 212.148 84.4309 213.517V232.987ZM76.4589 231.729V214.908C76.4589 214.643 76.3463 214.422 76.1211 214.245C75.9409 214.069 75.7382 213.981 75.513 213.981H68.9597C68.7345 213.981 68.5093 214.069 68.2841 214.245C68.1039 214.422 68.0139 214.643 68.0139 214.908V231.729C68.0139 231.949 68.1039 232.148 68.2841 232.325C68.5093 232.501 68.7345 232.589 68.9597 232.589H75.513C75.7382 232.589 75.9409 232.501 76.1211 232.325C76.3463 232.148 76.4589 231.949 76.4589 231.729Z" fill="#FF7F0F"/>
</svg>
