<svg width="392" height="193" viewBox="0 0 392 193" fill="none" xmlns="http://www.w3.org/2000/svg">
<path d="M24.8981 71.3007C24.8979 61.2291 27.8262 51.3831 33.3136 43.0048C38.8009 34.6266 46.6014 28.0915 55.731 24.2241C64.8605 20.3567 74.91 19.3302 84.6116 21.2742C94.3132 23.2181 103.232 28.0454 110.244 35.147C115.76 32.3736 121.922 31.2075 128.048 31.7776C134.174 32.3477 140.027 34.6318 144.958 38.3775C149.89 42.1232 153.709 47.1847 155.994 53.0028C158.279 58.8209 158.94 65.1691 157.905 71.3461C159.427 71.4899 160.903 71.9518 162.242 72.7029C163.581 73.4539 164.754 74.478 165.687 75.7113C166.62 76.9445 167.294 78.3604 167.665 79.8706C168.037 81.3808 168.1 82.9529 167.849 84.4887C162.821 115.295 150.386 134.794 130.565 142.996V150.61C130.565 155.117 128.807 159.44 125.678 162.627C122.549 165.814 118.306 167.605 113.881 167.605H69.3894C64.9644 167.605 60.7207 165.814 57.5918 162.627C54.4629 159.44 52.7051 155.117 52.7051 150.61V142.996C32.8842 134.794 20.4489 115.295 15.4214 84.4887C15.1788 82.9937 15.233 81.4643 15.581 79.991C15.9289 78.5176 16.5634 77.1304 17.447 75.9113C18.3306 74.6922 19.4453 73.6661 20.7252 72.8936C22.005 72.1211 23.4239 71.618 24.8981 71.414V71.3007ZM36.0209 71.3007H47.1437C47.1437 63.7885 50.0734 56.584 55.2882 51.2721C60.503 45.9602 67.5759 42.976 74.9508 42.976C82.3257 42.976 89.3985 45.9602 94.6133 51.2721C99.8282 56.584 102.758 63.7885 102.758 71.3007H113.881C113.881 60.7837 109.779 50.6973 102.478 43.2607C95.1776 35.824 85.2756 31.6461 74.9508 31.6461C64.6259 31.6461 54.724 35.824 47.4232 43.2607C40.1224 50.6973 36.0209 60.7837 36.0209 71.3007ZM58.2665 71.3007H91.635C91.635 66.7934 89.8772 62.4707 86.7483 59.2836C83.6194 56.0964 79.3757 54.3059 74.9508 54.3059C70.5258 54.3059 66.2821 56.0964 63.1532 59.2836C60.0243 62.4707 58.2665 66.7934 58.2665 71.3007ZM134.636 71.3007H146.548C147.388 67.9524 147.466 64.4531 146.777 61.0693C146.088 57.6855 144.65 54.5066 142.572 51.7748C140.494 49.043 137.831 46.8304 134.787 45.3056C131.742 43.7808 128.396 42.984 125.004 42.976C122.334 42.976 119.798 43.4518 117.44 44.3242C119.409 47.5419 121.033 51.0089 122.278 54.6458C124.397 54.1106 126.623 54.2208 128.681 54.9627C130.738 55.7047 132.537 57.0457 133.853 58.8195C135.169 60.5932 135.945 62.7215 136.084 64.9403C136.223 67.1592 135.72 69.3708 134.636 71.3007ZM119.442 144.945H63.8279V150.61C63.8279 152.112 64.4139 153.553 65.4568 154.616C66.4998 155.678 67.9144 156.275 69.3894 156.275H113.881C115.356 156.275 116.77 155.678 117.813 154.616C118.856 153.553 119.442 152.112 119.442 150.61V144.945ZM59.9127 133.615H123.357C140.998 127.837 152.165 111.499 156.882 82.6306H26.3885C31.1046 111.499 42.2719 127.837 59.9127 133.615Z" fill="#FF7F0F"/>
<path d="M223.634 91.8276C223.634 92.857 223.254 93.7509 222.493 94.5093C221.787 95.2136 220.919 95.5657 219.887 95.5657H217.85C215.353 95.5657 213.208 94.6989 211.416 92.9653C209.624 91.1775 208.728 89.0105 208.728 86.4643V44.3699C208.728 43.2864 209.081 42.3925 209.786 41.6883C210.547 40.984 211.443 40.6318 212.474 40.6318H214.755C215.787 40.6318 216.656 40.984 217.362 41.6883C218.122 42.3925 218.502 43.2864 218.502 44.3699V84.9203C218.502 85.6245 218.828 85.9767 219.48 85.9767H219.887C220.919 85.9767 221.787 86.3288 222.493 87.0331C223.254 87.7374 223.634 88.6313 223.634 89.7148V91.8276Z" fill="#FF7F0F"/>
<path d="M259.534 86.4643C259.534 89.0105 258.638 91.1775 256.846 92.9653C255.108 94.6989 252.991 95.5657 250.493 95.5657H239.171C236.673 95.5657 234.528 94.6989 232.736 92.9653C230.944 91.1775 230.048 89.0105 230.048 86.4643V57.2908C230.048 56.2073 230.401 55.3134 231.107 54.6091C231.867 53.8506 232.763 53.4714 233.795 53.4714H236.075C237.107 53.4714 237.976 53.8506 238.682 54.6091C239.388 55.3134 239.741 56.2073 239.741 57.2908V84.9203C239.741 85.1911 239.849 85.4349 240.067 85.6516C240.338 85.8683 240.61 85.9767 240.881 85.9767H248.782C249.054 85.9767 249.298 85.8683 249.515 85.6516C249.787 85.4349 249.923 85.1911 249.923 84.9203V57.2908C249.923 56.2073 250.276 55.3134 250.981 54.6091C251.687 53.8506 252.556 53.4714 253.588 53.4714H255.869C256.9 53.4714 257.769 53.8506 258.475 54.6091C259.181 55.3134 259.534 56.2073 259.534 57.2908V86.4643Z" fill="#FF7F0F"/>
<path d="M295.648 91.8276C295.648 92.857 295.295 93.7509 294.589 94.5093C293.883 95.2136 293.014 95.5657 291.982 95.5657H289.702C288.67 95.5657 287.801 95.2136 287.095 94.5093C286.389 93.7509 286.036 92.857 286.036 91.8276V64.2794C286.036 63.9544 285.9 63.6835 285.629 63.4668C285.412 63.2501 285.167 63.1417 284.896 63.1417H276.995C276.723 63.1417 276.452 63.2501 276.18 63.4668C275.963 63.6835 275.854 63.9544 275.854 64.2794V91.8276C275.854 92.857 275.501 93.7509 274.795 94.5093C274.09 95.2136 273.221 95.5657 272.189 95.5657H269.908C268.876 95.5657 267.98 95.2136 267.22 94.5093C266.514 93.7509 266.161 92.857 266.161 91.8276V62.5729C266.161 60.8935 266.569 59.3765 267.383 58.0222C268.252 56.6136 269.365 55.503 270.723 54.6904C272.08 53.8777 273.601 53.4714 275.284 53.4714H286.606C288.29 53.4714 289.81 53.8777 291.168 54.6904C292.525 55.503 293.611 56.6136 294.426 58.0222C295.241 59.3765 295.648 60.8935 295.648 62.5729V91.8276Z" fill="#FF7F0F"/>
<path d="M331.761 86.4643C331.761 89.0105 330.865 91.1775 329.073 92.9653C327.336 94.6989 325.218 95.5657 322.72 95.5657H311.398C308.9 95.5657 306.755 94.6989 304.963 92.9653C303.171 91.1775 302.275 89.0105 302.275 86.4643V62.5729C302.275 60.8935 302.682 59.3765 303.497 58.0222C304.366 56.6136 305.479 55.503 306.836 54.6904C308.194 53.8777 309.714 53.4714 311.398 53.4714H322.72C324.403 53.4714 325.924 53.8777 327.281 54.6904C328.639 55.503 329.725 56.6136 330.54 58.0222C331.354 59.3765 331.761 60.8935 331.761 62.5729V66.7986C331.761 67.8279 331.408 68.7218 330.703 69.4803C329.997 70.1845 329.128 70.5367 328.096 70.5367H325.815C324.784 70.5367 323.915 70.1845 323.209 69.4803C322.503 68.7218 322.15 67.8279 322.15 66.7986V64.2794C322.15 63.9544 322.014 63.6835 321.743 63.4668C321.525 63.2501 321.281 63.1417 321.009 63.1417H313.108C312.837 63.1417 312.565 63.2501 312.294 63.4668C312.077 63.6835 311.968 63.9544 311.968 64.2794V84.9203C311.968 85.1911 312.077 85.4349 312.294 85.6516C312.565 85.8683 312.837 85.9767 313.108 85.9767H321.009C321.281 85.9767 321.525 85.8683 321.743 85.6516C322.014 85.4349 322.15 85.1911 322.15 84.9203V82.4011C322.15 81.3718 322.503 80.505 323.209 79.8007C323.915 79.0422 324.784 78.663 325.815 78.663H328.096C329.128 78.663 329.997 79.0422 330.703 79.8007C331.408 80.505 331.761 81.3718 331.761 82.4011V86.4643Z" fill="#FF7F0F"/>
<path d="M367.875 91.8276C367.875 92.857 367.522 93.7509 366.816 94.5093C366.11 95.2136 365.241 95.5657 364.21 95.5657H361.929C360.897 95.5657 360.028 95.2136 359.322 94.5093C358.616 93.7509 358.263 92.857 358.263 91.8276V64.2794C358.263 63.9544 358.128 63.6835 357.856 63.4668C357.639 63.2501 357.395 63.1417 357.123 63.1417H349.222C348.95 63.1417 348.679 63.2501 348.407 63.4668C348.19 63.6835 348.082 63.9544 348.082 64.2794V91.8276C348.082 92.857 347.729 93.7509 347.023 94.5093C346.317 95.2136 345.448 95.5657 344.416 95.5657H342.135C341.104 95.5657 340.208 95.2136 339.447 94.5093C338.742 93.7509 338.389 92.857 338.389 91.8276V44.3699C338.389 43.2864 338.742 42.3925 339.447 41.6883C340.208 40.984 341.104 40.6318 342.135 40.6318H344.416C345.448 40.6318 346.317 40.984 347.023 41.6883C347.729 42.3925 348.082 43.2864 348.082 44.3699V52.4963C348.082 52.7671 348.19 53.0109 348.407 53.2276C348.679 53.3902 348.95 53.4714 349.222 53.4714H358.834C360.517 53.4714 362.038 53.8777 363.395 54.6904C364.753 55.503 365.839 56.6136 366.653 58.0222C367.468 59.3765 367.875 60.8935 367.875 62.5729V91.8276Z" fill="#FF7F0F"/>
<path d="M238.296 147.412C238.296 149.958 237.4 152.125 235.608 153.913C233.87 155.646 231.752 156.513 229.254 156.513H217.932C215.434 156.513 213.289 155.646 211.497 153.913C209.705 152.125 208.809 149.958 208.809 147.412V138.554C208.809 136.875 209.216 135.385 210.031 134.084C210.9 132.73 212.013 131.647 213.37 130.834C214.728 130.021 216.249 129.615 217.932 129.615H227.544C227.815 129.615 228.059 129.507 228.277 129.29C228.548 129.073 228.684 128.802 228.684 128.477V125.227C228.684 124.902 228.548 124.631 228.277 124.414C228.059 124.197 227.815 124.089 227.544 124.089H217.932C216.9 124.089 216.004 123.737 215.244 123.033C214.538 122.328 214.185 121.462 214.185 120.432V118.238C214.185 117.155 214.538 116.261 215.244 115.556C216.004 114.798 216.9 114.419 217.932 114.419H229.254C230.937 114.419 232.458 114.825 233.816 115.638C235.173 116.45 236.259 117.561 237.074 118.97C237.888 120.324 238.296 121.841 238.296 123.52V147.412ZM228.684 145.868V140.26C228.684 139.99 228.548 139.746 228.277 139.529C228.059 139.312 227.815 139.204 227.544 139.204H219.642C219.371 139.204 219.099 139.312 218.828 139.529C218.611 139.746 218.502 139.99 218.502 140.26V145.868C218.502 146.139 218.611 146.382 218.828 146.599C219.099 146.816 219.371 146.924 219.642 146.924H227.544C227.815 146.924 228.059 146.816 228.277 146.599C228.548 146.382 228.684 146.139 228.684 145.868Z" fill="#FF7F0F"/>
<path d="M274.409 147.412C274.409 149.958 273.513 152.125 271.721 153.913C269.983 155.646 267.866 156.513 265.368 156.513H255.756C255.485 156.513 255.213 156.621 254.942 156.838C254.724 157.055 254.616 157.299 254.616 157.57V165.777C254.616 166.806 254.263 167.673 253.557 168.378C252.851 169.136 251.982 169.515 250.95 169.515H248.67C247.638 169.515 246.742 169.136 245.982 168.378C245.276 167.673 244.923 166.806 244.923 165.777V123.52C244.923 121.841 245.33 120.324 246.144 118.97C247.013 117.561 248.127 116.45 249.484 115.638C250.842 114.825 252.362 114.419 254.046 114.419H265.368C267.051 114.419 268.572 114.825 269.929 115.638C271.287 116.45 272.373 117.561 273.187 118.97C274.002 120.324 274.409 121.841 274.409 123.52V147.412ZM264.798 145.868V125.227C264.798 124.902 264.662 124.631 264.39 124.414C264.173 124.197 263.929 124.089 263.657 124.089H255.756C255.485 124.089 255.213 124.197 254.942 124.414C254.724 124.631 254.616 124.902 254.616 125.227V145.868C254.616 146.139 254.724 146.382 254.942 146.599C255.213 146.816 255.485 146.924 255.756 146.924H263.657C263.929 146.924 264.173 146.816 264.39 146.599C264.662 146.382 264.798 146.139 264.798 145.868Z" fill="#FF7F0F"/>
<path d="M310.523 147.412C310.523 149.958 309.627 152.125 307.835 153.913C306.097 155.646 303.979 156.513 301.481 156.513H291.87C291.598 156.513 291.327 156.621 291.055 156.838C290.838 157.055 290.729 157.299 290.729 157.57V165.777C290.729 166.806 290.376 167.673 289.67 168.378C288.965 169.136 288.096 169.515 287.064 169.515H284.783C283.751 169.515 282.855 169.136 282.095 168.378C281.389 167.673 281.036 166.806 281.036 165.777V123.52C281.036 121.841 281.444 120.324 282.258 118.97C283.127 117.561 284.24 116.45 285.598 115.638C286.955 114.825 288.476 114.419 290.159 114.419H301.481C303.165 114.419 304.685 114.825 306.043 115.638C307.4 116.45 308.486 117.561 309.301 118.97C310.116 120.324 310.523 121.841 310.523 123.52V147.412ZM300.911 145.868V125.227C300.911 124.902 300.775 124.631 300.504 124.414C300.287 124.197 300.042 124.089 299.771 124.089H291.87C291.598 124.089 291.327 124.197 291.055 124.414C290.838 124.631 290.729 124.902 290.729 125.227V145.868C290.729 146.139 290.838 146.382 291.055 146.599C291.327 146.816 291.598 146.924 291.87 146.924H299.771C300.042 146.924 300.287 146.816 300.504 146.599C300.775 146.382 300.911 146.139 300.911 145.868Z" fill="#FF7F0F"/>
</svg>
