<svg width="65" height="55" viewBox="0 0 180 148" fill="none" xmlns="http://www.w3.org/2000/svg">
<path d="M9.89805 51.3007C9.89791 41.2291 12.8262 31.3831 18.3136 23.0048C23.8009 14.6266 31.6014 8.09152 40.731 4.2241C49.8605 0.356686 59.91 -0.669796 69.6116 1.27416C79.3132 3.21811 88.2323 8.04541 95.2435 15.147C100.76 12.3736 106.922 11.2075 113.048 11.7776C119.174 12.3477 125.027 14.6318 129.958 18.3775C134.89 22.1232 138.709 27.1847 140.994 33.0028C143.279 38.8209 143.94 45.1691 142.905 51.3461C144.427 51.4899 145.903 51.9518 147.242 52.7029C148.581 53.4539 149.754 54.478 150.687 55.7113C151.62 56.9445 152.294 58.3604 152.665 59.8706C153.037 61.3808 153.1 62.9529 152.849 64.4887C147.821 95.2947 135.386 114.794 115.565 122.996V130.61C115.565 135.117 113.807 139.44 110.678 142.627C107.549 145.814 103.306 147.605 98.8807 147.605H54.3894C49.9644 147.605 45.7207 145.814 42.5918 142.627C39.4629 139.44 37.7051 135.117 37.7051 130.61V122.996C17.8842 114.794 5.44892 95.2947 0.421403 64.4887C0.178767 62.9937 0.233021 61.4643 0.580955 59.991C0.928889 58.5176 1.56343 57.1304 2.44703 55.9113C3.33063 54.6922 4.44533 53.6661 5.72516 52.8936C7.00499 52.1211 8.42395 51.618 9.89805 51.414V51.3007ZM21.0209 51.3007H32.1437C32.1437 43.7885 35.0734 36.584 40.2882 31.2721C45.503 25.9602 52.5759 22.976 59.9508 22.976C67.3257 22.976 74.3985 25.9602 79.6133 31.2721C84.8282 36.584 87.7578 43.7885 87.7578 51.3007H98.8807C98.8807 40.7837 94.7791 30.6973 87.4784 23.2607C80.1776 15.824 70.2756 11.6461 59.9508 11.6461C49.6259 11.6461 39.724 15.824 32.4232 23.2607C25.1224 30.6973 21.0209 40.7837 21.0209 51.3007ZM43.2665 51.3007H76.635C76.635 46.7934 74.8772 42.4707 71.7483 39.2836C68.6194 36.0964 64.3757 34.3059 59.9508 34.3059C55.5258 34.3059 51.2821 36.0964 48.1532 39.2836C45.0243 42.4707 43.2665 46.7934 43.2665 51.3007ZM119.636 51.3007H131.548C132.388 47.9524 132.466 44.4531 131.777 41.0693C131.088 37.6855 129.65 34.5066 127.572 31.7748C125.494 29.043 122.831 26.8304 119.787 25.3056C116.742 23.7808 113.396 22.984 110.004 22.976C107.334 22.976 104.798 23.4518 102.44 24.3242C104.409 27.5419 106.033 31.0089 107.278 34.6458C109.397 34.1106 111.623 34.2208 113.681 34.9627C115.738 35.7047 117.537 37.0457 118.853 38.8195C120.169 40.5932 120.945 42.7215 121.084 44.9403C121.223 47.1592 120.72 49.3708 119.636 51.3007ZM104.442 124.945H48.8279V130.61C48.8279 132.112 49.4139 133.553 50.4568 134.616C51.4998 135.678 52.9144 136.275 54.3894 136.275H98.8807C100.356 136.275 101.77 135.678 102.813 134.616C103.856 133.553 104.442 132.112 104.442 130.61V124.945ZM44.9127 113.615H108.357C125.998 107.837 137.165 91.4992 141.882 62.6306H11.3885C16.1046 91.4992 27.2719 107.837 44.9127 113.615Z" fill="#FF7F0F"/>
</svg>
