<svg width="80" height="80" viewBox="0 0 80 88" fill="none" xmlns="http://www.w3.org/2000/svg">
<rect x="0.5" y="8.5" width="79" height="79" rx="39.5" fill="#746AE9"/>
<rect x="0.5" y="8.5" width="79" height="79" rx="39.5" stroke="#746AE9"/>
<g filter="url(#filter0_i_235_4688)">
<path fill-rule="evenodd" clip-rule="evenodd" d="M32.1451 3.10058C32.6256 2.48467 33.2227 1.96943 33.9023 1.58429C34.582 1.19914 35.3308 0.951629 36.1061 0.855884C36.8814 0.76014 37.6679 0.818037 38.4208 1.02627C39.1737 1.2345 39.8783 1.589 40.4942 2.0695C43.0494 4.0848 45.4205 6.32319 47.5795 8.75828C47.428 7.40432 47.7458 6.03938 48.4799 4.89163C49.214 3.74389 50.3198 2.88292 51.6125 2.45264C52.9052 2.02236 54.3064 2.04887 55.5819 2.52772C56.8574 3.00657 57.9298 3.90874 58.62 5.08342C62.5592 11.7722 65.5467 21.5621 66.3055 31.3442L66.3345 31.3415L66.3742 32.0765C66.4641 33.6548 66.6492 36.8776 66.5513 42.9451C66.4535 49.0602 64.7694 53.8983 62.3054 57.9565C58.041 65.2428 49.9589 70.0518 40.9198 70.0518C30.9104 70.0518 22.6618 63.8865 18.8178 56.0001C18.3773 55.0963 18.1488 54.104 18.1497 53.0986C18.1506 52.0932 18.3808 51.1013 18.8229 50.1983C19.2649 49.2953 19.9072 48.5051 20.7007 47.8878C21.4942 47.2704 22.4181 46.8422 23.4021 46.6358C22.3919 46.5252 21.4207 46.1836 20.5637 45.6373C19.7068 45.091 18.9871 44.3547 18.4605 43.4855C17.9339 42.6163 17.6145 41.6376 17.5269 40.6251C17.4394 39.6126 17.5862 38.5936 17.9559 37.6469C19.97 32.5682 23.6492 28.324 28.3909 25.6098C24.4226 24.2879 20.6023 23.6164 17.9559 23.4815C17.0799 23.4507 16.2188 23.2459 15.4227 22.8791C14.6266 22.5123 13.9114 21.9908 13.3187 21.3449C12.7261 20.6991 12.2678 19.9418 11.9706 19.1172C11.6734 18.2926 11.5432 17.4171 11.5876 16.5417C11.6319 15.6663 11.85 14.8084 12.229 14.0181C12.6081 13.2277 13.1405 12.5206 13.7954 11.938C14.4503 11.3554 15.2145 10.9089 16.0436 10.6244C16.8727 10.34 17.7501 10.2233 18.6248 10.2811C22.7041 10.4873 28.9726 11.5766 35.3758 14.0829C34.6197 13.2633 33.8688 12.4966 33.1286 11.8013C30.5377 9.78143 30.1252 5.69414 32.1451 3.10322M40.9225 35.9364C35.9178 35.9364 31.8199 38.5088 30.2627 42.4798C29.8626 43.5011 29.2144 44.4067 28.3766 45.1147C27.5389 45.8228 26.538 46.311 25.4642 46.5354C26.5774 46.654 27.6422 47.0535 28.5587 47.6962C29.4752 48.339 30.2135 49.204 30.7042 50.2102C32.5919 54.0886 36.5338 56.2169 40.9198 56.2169C45.9457 55.8203 50.2841 51.8203 50.2841 46.1652C50.2841 40.5128 46.3211 35.9338 40.9198 35.9338" fill="#FFC9B1"/>
<path fill-rule="evenodd" clip-rule="evenodd" d="M32.1451 3.10058C32.6256 2.48467 33.2227 1.96943 33.9023 1.58429C34.582 1.19914 35.3308 0.951629 36.1061 0.855884C36.8814 0.76014 37.6679 0.818037 38.4208 1.02627C39.1737 1.2345 39.8783 1.589 40.4942 2.0695C43.0494 4.0848 45.4205 6.32319 47.5795 8.75828C47.428 7.40432 47.7458 6.03938 48.4799 4.89163C49.214 3.74389 50.3198 2.88292 51.6125 2.45264C52.9052 2.02236 54.3064 2.04887 55.5819 2.52772C56.8574 3.00657 57.9298 3.90874 58.62 5.08342C62.5592 11.7722 65.5467 21.5621 66.3055 31.3442L66.3345 31.3415L66.3742 32.0765C66.4641 33.6548 66.6492 36.8776 66.5513 42.9451C66.4535 49.0602 64.7694 53.8983 62.3054 57.9565C58.041 65.2428 49.9589 70.0518 40.9198 70.0518C30.9104 70.0518 22.6618 63.8865 18.8178 56.0001C18.3773 55.0963 18.1488 54.104 18.1497 53.0986C18.1506 52.0932 18.3808 51.1013 18.8229 50.1983C19.2649 49.2953 19.9072 48.5051 20.7007 47.8878C21.4942 47.2704 22.4181 46.8422 23.4021 46.6358C22.3919 46.5252 21.4207 46.1836 20.5637 45.6373C19.7068 45.091 18.9871 44.3547 18.4605 43.4855C17.9339 42.6163 17.6145 41.6376 17.5269 40.6251C17.4394 39.6126 17.5862 38.5936 17.9559 37.6469C19.97 32.5682 23.6492 28.324 28.3909 25.6098C24.4226 24.2879 20.6023 23.6164 17.9559 23.4815C17.0799 23.4507 16.2188 23.2459 15.4227 22.8791C14.6266 22.5123 13.9114 21.9908 13.3187 21.3449C12.7261 20.6991 12.2678 19.9418 11.9706 19.1172C11.6734 18.2926 11.5432 17.4171 11.5876 16.5417C11.6319 15.6663 11.85 14.8084 12.229 14.0181C12.6081 13.2277 13.1405 12.5206 13.7954 11.938C14.4503 11.3554 15.2145 10.9089 16.0436 10.6244C16.8727 10.34 17.7501 10.2233 18.6248 10.2811C22.7041 10.4873 28.9726 11.5766 35.3758 14.0829C34.6197 13.2633 33.8688 12.4966 33.1286 11.8013C30.5377 9.78143 30.1252 5.69414 32.1451 3.10322M40.9225 35.9364C35.9178 35.9364 31.8199 38.5088 30.2627 42.4798C29.8626 43.5011 29.2144 44.4067 28.3766 45.1147C27.5389 45.8228 26.538 46.311 25.4642 46.5354C26.5774 46.654 27.6422 47.0535 28.5587 47.6962C29.4752 48.339 30.2135 49.204 30.7042 50.2102C32.5919 54.0886 36.5338 56.2169 40.9198 56.2169C45.9457 55.8203 50.2841 51.8203 50.2841 46.1652C50.2841 40.5128 46.3211 35.9338 40.9198 35.9338" fill="url(#paint0_radial_235_4688)"/>
<path fill-rule="evenodd" clip-rule="evenodd" d="M32.1451 3.10058C32.6256 2.48467 33.2227 1.96943 33.9023 1.58429C34.582 1.19914 35.3308 0.951629 36.1061 0.855884C36.8814 0.76014 37.6679 0.818037 38.4208 1.02627C39.1737 1.2345 39.8783 1.589 40.4942 2.0695C43.0494 4.0848 45.4205 6.32319 47.5795 8.75828C47.428 7.40432 47.7458 6.03938 48.4799 4.89163C49.214 3.74389 50.3198 2.88292 51.6125 2.45264C52.9052 2.02236 54.3064 2.04887 55.5819 2.52772C56.8574 3.00657 57.9298 3.90874 58.62 5.08342C62.5592 11.7722 65.5467 21.5621 66.3055 31.3442L66.3345 31.3415L66.3742 32.0765C66.4641 33.6548 66.6492 36.8776 66.5513 42.9451C66.4535 49.0602 64.7694 53.8983 62.3054 57.9565C58.041 65.2428 49.9589 70.0518 40.9198 70.0518C30.9104 70.0518 22.6618 63.8865 18.8178 56.0001C18.3773 55.0963 18.1488 54.104 18.1497 53.0986C18.1506 52.0932 18.3808 51.1013 18.8229 50.1983C19.2649 49.2953 19.9072 48.5051 20.7007 47.8878C21.4942 47.2704 22.4181 46.8422 23.4021 46.6358C22.3919 46.5252 21.4207 46.1836 20.5637 45.6373C19.7068 45.091 18.9871 44.3547 18.4605 43.4855C17.9339 42.6163 17.6145 41.6376 17.5269 40.6251C17.4394 39.6126 17.5862 38.5936 17.9559 37.6469C19.97 32.5682 23.6492 28.324 28.3909 25.6098C24.4226 24.2879 20.6023 23.6164 17.9559 23.4815C17.0799 23.4507 16.2188 23.2459 15.4227 22.8791C14.6266 22.5123 13.9114 21.9908 13.3187 21.3449C12.7261 20.6991 12.2678 19.9418 11.9706 19.1172C11.6734 18.2926 11.5432 17.4171 11.5876 16.5417C11.6319 15.6663 11.85 14.8084 12.229 14.0181C12.6081 13.2277 13.1405 12.5206 13.7954 11.938C14.4503 11.3554 15.2145 10.9089 16.0436 10.6244C16.8727 10.34 17.7501 10.2233 18.6248 10.2811C22.7041 10.4873 28.9726 11.5766 35.3758 14.0829C34.6197 13.2633 33.8688 12.4966 33.1286 11.8013C30.5377 9.78143 30.1252 5.69414 32.1451 3.10322M40.9225 35.9364C35.9178 35.9364 31.8199 38.5088 30.2627 42.4798C29.8626 43.5011 29.2144 44.4067 28.3766 45.1147C27.5389 45.8228 26.538 46.311 25.4642 46.5354C26.5774 46.654 27.6422 47.0535 28.5587 47.6962C29.4752 48.339 30.2135 49.204 30.7042 50.2102C32.5919 54.0886 36.5338 56.2169 40.9198 56.2169C45.9457 55.8203 50.2841 51.8203 50.2841 46.1652C50.2841 40.5128 46.3211 35.9338 40.9198 35.9338" fill="url(#paint1_radial_235_4688)"/>
<path fill-rule="evenodd" clip-rule="evenodd" d="M32.1451 3.10058C32.6256 2.48467 33.2227 1.96943 33.9023 1.58429C34.582 1.19914 35.3308 0.951629 36.1061 0.855884C36.8814 0.76014 37.6679 0.818037 38.4208 1.02627C39.1737 1.2345 39.8783 1.589 40.4942 2.0695C43.0494 4.0848 45.4205 6.32319 47.5795 8.75828C47.428 7.40432 47.7458 6.03938 48.4799 4.89163C49.214 3.74389 50.3198 2.88292 51.6125 2.45264C52.9052 2.02236 54.3064 2.04887 55.5819 2.52772C56.8574 3.00657 57.9298 3.90874 58.62 5.08342C62.5592 11.7722 65.5467 21.5621 66.3055 31.3442L66.3345 31.3415L66.3742 32.0765C66.4641 33.6548 66.6492 36.8776 66.5513 42.9451C66.4535 49.0602 64.7694 53.8983 62.3054 57.9565C58.041 65.2428 49.9589 70.0518 40.9198 70.0518C30.9104 70.0518 22.6618 63.8865 18.8178 56.0001C18.3773 55.0963 18.1488 54.104 18.1497 53.0986C18.1506 52.0932 18.3808 51.1013 18.8229 50.1983C19.2649 49.2953 19.9072 48.5051 20.7007 47.8878C21.4942 47.2704 22.4181 46.8422 23.4021 46.6358C22.3919 46.5252 21.4207 46.1836 20.5637 45.6373C19.7068 45.091 18.9871 44.3547 18.4605 43.4855C17.9339 42.6163 17.6145 41.6376 17.5269 40.6251C17.4394 39.6126 17.5862 38.5936 17.9559 37.6469C19.97 32.5682 23.6492 28.324 28.3909 25.6098C24.4226 24.2879 20.6023 23.6164 17.9559 23.4815C17.0799 23.4507 16.2188 23.2459 15.4227 22.8791C14.6266 22.5123 13.9114 21.9908 13.3187 21.3449C12.7261 20.6991 12.2678 19.9418 11.9706 19.1172C11.6734 18.2926 11.5432 17.4171 11.5876 16.5417C11.6319 15.6663 11.85 14.8084 12.229 14.0181C12.6081 13.2277 13.1405 12.5206 13.7954 11.938C14.4503 11.3554 15.2145 10.9089 16.0436 10.6244C16.8727 10.34 17.7501 10.2233 18.6248 10.2811C22.7041 10.4873 28.9726 11.5766 35.3758 14.0829C34.6197 13.2633 33.8688 12.4966 33.1286 11.8013C30.5377 9.78143 30.1252 5.69414 32.1451 3.10322M40.9225 35.9364C35.9178 35.9364 31.8199 38.5088 30.2627 42.4798C29.8626 43.5011 29.2144 44.4067 28.3766 45.1147C27.5389 45.8228 26.538 46.311 25.4642 46.5354C26.5774 46.654 27.6422 47.0535 28.5587 47.6962C29.4752 48.339 30.2135 49.204 30.7042 50.2102C32.5919 54.0886 36.5338 56.2169 40.9198 56.2169C45.9457 55.8203 50.2841 51.8203 50.2841 46.1652C50.2841 40.5128 46.3211 35.9338 40.9198 35.9338" fill="url(#paint2_radial_235_4688)"/>
<path fill-rule="evenodd" clip-rule="evenodd" d="M32.1451 3.10058C32.6256 2.48467 33.2227 1.96943 33.9023 1.58429C34.582 1.19914 35.3308 0.951629 36.1061 0.855884C36.8814 0.76014 37.6679 0.818037 38.4208 1.02627C39.1737 1.2345 39.8783 1.589 40.4942 2.0695C43.0494 4.0848 45.4205 6.32319 47.5795 8.75828C47.428 7.40432 47.7458 6.03938 48.4799 4.89163C49.214 3.74389 50.3198 2.88292 51.6125 2.45264C52.9052 2.02236 54.3064 2.04887 55.5819 2.52772C56.8574 3.00657 57.9298 3.90874 58.62 5.08342C62.5592 11.7722 65.5467 21.5621 66.3055 31.3442L66.3345 31.3415L66.3742 32.0765C66.4641 33.6548 66.6492 36.8776 66.5513 42.9451C66.4535 49.0602 64.7694 53.8983 62.3054 57.9565C58.041 65.2428 49.9589 70.0518 40.9198 70.0518C30.9104 70.0518 22.6618 63.8865 18.8178 56.0001C18.3773 55.0963 18.1488 54.104 18.1497 53.0986C18.1506 52.0932 18.3808 51.1013 18.8229 50.1983C19.2649 49.2953 19.9072 48.5051 20.7007 47.8878C21.4942 47.2704 22.4181 46.8422 23.4021 46.6358C22.3919 46.5252 21.4207 46.1836 20.5637 45.6373C19.7068 45.091 18.9871 44.3547 18.4605 43.4855C17.9339 42.6163 17.6145 41.6376 17.5269 40.6251C17.4394 39.6126 17.5862 38.5936 17.9559 37.6469C19.97 32.5682 23.6492 28.324 28.3909 25.6098C24.4226 24.2879 20.6023 23.6164 17.9559 23.4815C17.0799 23.4507 16.2188 23.2459 15.4227 22.8791C14.6266 22.5123 13.9114 21.9908 13.3187 21.3449C12.7261 20.6991 12.2678 19.9418 11.9706 19.1172C11.6734 18.2926 11.5432 17.4171 11.5876 16.5417C11.6319 15.6663 11.85 14.8084 12.229 14.0181C12.6081 13.2277 13.1405 12.5206 13.7954 11.938C14.4503 11.3554 15.2145 10.9089 16.0436 10.6244C16.8727 10.34 17.7501 10.2233 18.6248 10.2811C22.7041 10.4873 28.9726 11.5766 35.3758 14.0829C34.6197 13.2633 33.8688 12.4966 33.1286 11.8013C30.5377 9.78143 30.1252 5.69414 32.1451 3.10322M40.9225 35.9364C35.9178 35.9364 31.8199 38.5088 30.2627 42.4798C29.8626 43.5011 29.2144 44.4067 28.3766 45.1147C27.5389 45.8228 26.538 46.311 25.4642 46.5354C26.5774 46.654 27.6422 47.0535 28.5587 47.6962C29.4752 48.339 30.2135 49.204 30.7042 50.2102C32.5919 54.0886 36.5338 56.2169 40.9198 56.2169C45.9457 55.8203 50.2841 51.8203 50.2841 46.1652C50.2841 40.5128 46.3211 35.9338 40.9198 35.9338" fill="url(#paint3_radial_235_4688)"/>
<path fill-rule="evenodd" clip-rule="evenodd" d="M32.1451 3.10058C32.6256 2.48467 33.2227 1.96943 33.9023 1.58429C34.582 1.19914 35.3308 0.951629 36.1061 0.855884C36.8814 0.76014 37.6679 0.818037 38.4208 1.02627C39.1737 1.2345 39.8783 1.589 40.4942 2.0695C43.0494 4.0848 45.4205 6.32319 47.5795 8.75828C47.428 7.40432 47.7458 6.03938 48.4799 4.89163C49.214 3.74389 50.3198 2.88292 51.6125 2.45264C52.9052 2.02236 54.3064 2.04887 55.5819 2.52772C56.8574 3.00657 57.9298 3.90874 58.62 5.08342C62.5592 11.7722 65.5467 21.5621 66.3055 31.3442L66.3345 31.3415L66.3742 32.0765C66.4641 33.6548 66.6492 36.8776 66.5513 42.9451C66.4535 49.0602 64.7694 53.8983 62.3054 57.9565C58.041 65.2428 49.9589 70.0518 40.9198 70.0518C30.9104 70.0518 22.6618 63.8865 18.8178 56.0001C18.3773 55.0963 18.1488 54.104 18.1497 53.0986C18.1506 52.0932 18.3808 51.1013 18.8229 50.1983C19.2649 49.2953 19.9072 48.5051 20.7007 47.8878C21.4942 47.2704 22.4181 46.8422 23.4021 46.6358C22.3919 46.5252 21.4207 46.1836 20.5637 45.6373C19.7068 45.091 18.9871 44.3547 18.4605 43.4855C17.9339 42.6163 17.6145 41.6376 17.5269 40.6251C17.4394 39.6126 17.5862 38.5936 17.9559 37.6469C19.97 32.5682 23.6492 28.324 28.3909 25.6098C24.4226 24.2879 20.6023 23.6164 17.9559 23.4815C17.0799 23.4507 16.2188 23.2459 15.4227 22.8791C14.6266 22.5123 13.9114 21.9908 13.3187 21.3449C12.7261 20.6991 12.2678 19.9418 11.9706 19.1172C11.6734 18.2926 11.5432 17.4171 11.5876 16.5417C11.6319 15.6663 11.85 14.8084 12.229 14.0181C12.6081 13.2277 13.1405 12.5206 13.7954 11.938C14.4503 11.3554 15.2145 10.9089 16.0436 10.6244C16.8727 10.34 17.7501 10.2233 18.6248 10.2811C22.7041 10.4873 28.9726 11.5766 35.3758 14.0829C34.6197 13.2633 33.8688 12.4966 33.1286 11.8013C30.5377 9.78143 30.1252 5.69414 32.1451 3.10322M40.9225 35.9364C35.9178 35.9364 31.8199 38.5088 30.2627 42.4798C29.8626 43.5011 29.2144 44.4067 28.3766 45.1147C27.5389 45.8228 26.538 46.311 25.4642 46.5354C26.5774 46.654 27.6422 47.0535 28.5587 47.6962C29.4752 48.339 30.2135 49.204 30.7042 50.2102C32.5919 54.0886 36.5338 56.2169 40.9198 56.2169C45.9457 55.8203 50.2841 51.8203 50.2841 46.1652C50.2841 40.5128 46.3211 35.9338 40.9198 35.9338" fill="url(#paint4_radial_235_4688)"/>
</g>
<path d="M32.145 3.10058C32.6255 2.48467 33.2226 1.96943 33.9022 1.58429C34.5819 1.19914 35.3307 0.951629 36.106 0.855884C36.8813 0.76014 37.6678 0.818037 38.4207 1.02627C39.1736 1.2345 39.8782 1.58899 40.4941 2.0695C46.4955 6.74901 52.3144 13.7207 56.4705 21.43H48.0949C44.235 18.1966 39.7723 15.804 35.3783 14.0829C34.6196 13.2633 33.8661 12.4966 33.1311 11.8013C30.5402 9.78143 30.1251 5.69414 32.145 3.10322" fill="url(#paint5_linear_235_4688)"/>
<path d="M32.145 3.10058C32.6255 2.48467 33.2226 1.96943 33.9022 1.58429C34.5819 1.19914 35.3307 0.951629 36.106 0.855884C36.8813 0.76014 37.6678 0.818037 38.4207 1.02627C39.1736 1.2345 39.8782 1.58899 40.4941 2.0695C46.4955 6.74901 52.3144 13.7207 56.4705 21.43H48.0949C44.235 18.1966 39.7723 15.804 35.3783 14.0829C34.6196 13.2633 33.8661 12.4966 33.1311 11.8013C30.5402 9.78143 30.1251 5.69414 32.145 3.10322" fill="url(#paint6_radial_235_4688)"/>
<path d="M32.145 3.10058C32.6255 2.48467 33.2226 1.96943 33.9022 1.58429C34.5819 1.19914 35.3307 0.951629 36.106 0.855884C36.8813 0.76014 37.6678 0.818037 38.4207 1.02627C39.1736 1.2345 39.8782 1.58899 40.4941 2.0695C46.4955 6.74901 52.3144 13.7207 56.4705 21.43H48.0949C44.235 18.1966 39.7723 15.804 35.3783 14.0829C34.6196 13.2633 33.8661 12.4966 33.1311 11.8013C30.5402 9.78143 30.1251 5.69414 32.145 3.10322" fill="url(#paint7_linear_235_4688)"/>
<path d="M32.145 3.10058C32.6255 2.48467 33.2226 1.96943 33.9022 1.58429C34.5819 1.19914 35.3307 0.951629 36.106 0.855884C36.8813 0.76014 37.6678 0.818037 38.4207 1.02627C39.1736 1.2345 39.8782 1.58899 40.4941 2.0695C46.4955 6.74901 52.3144 13.7207 56.4705 21.43H48.0949C44.235 18.1966 39.7723 15.804 35.3783 14.0829C34.6196 13.2633 33.8661 12.4966 33.1311 11.8013C30.5402 9.78143 30.1251 5.69414 32.145 3.10322" fill="url(#paint8_radial_235_4688)"/>
<path d="M32.145 3.10058C32.6255 2.48467 33.2226 1.96943 33.9022 1.58429C34.5819 1.19914 35.3307 0.951629 36.106 0.855884C36.8813 0.76014 37.6678 0.818037 38.4207 1.02627C39.1736 1.2345 39.8782 1.58899 40.4941 2.0695C46.4955 6.74901 52.3144 13.7207 56.4705 21.43H48.0949C44.235 18.1966 39.7723 15.804 35.3783 14.0829C34.6196 13.2633 33.8661 12.4966 33.1311 11.8013C30.5402 9.78143 30.1251 5.69414 32.145 3.10322" fill="url(#paint9_linear_235_4688)"/>
<path d="M66.0067 28.3699C64.9307 19.6084 62.1574 11.0928 58.62 5.08611C57.9298 3.91143 56.8574 3.00925 55.5819 2.5304C54.3064 2.05155 52.9052 2.02505 51.6125 2.45533C50.3198 2.8856 49.214 3.74658 48.4799 4.89432C47.7458 6.04206 47.428 7.40701 47.5795 8.76097C52.5736 14.3446 56.9491 21.2449 59.6616 28.3699H66.0067Z" fill="url(#paint10_linear_235_4688)"/>
<path d="M66.0067 28.3699C64.9307 19.6084 62.1574 11.0928 58.62 5.08611C57.9298 3.91143 56.8574 3.00925 55.5819 2.5304C54.3064 2.05155 52.9052 2.02505 51.6125 2.45533C50.3198 2.8856 49.214 3.74658 48.4799 4.89432C47.7458 6.04206 47.428 7.40701 47.5795 8.76097C52.5736 14.3446 56.9491 21.2449 59.6616 28.3699H66.0067Z" fill="url(#paint11_linear_235_4688)"/>
<path d="M66.0067 28.3699C64.9307 19.6084 62.1574 11.0928 58.62 5.08611C57.9298 3.91143 56.8574 3.00925 55.5819 2.5304C54.3064 2.05155 52.9052 2.02505 51.6125 2.45533C50.3198 2.8856 49.214 3.74658 48.4799 4.89432C47.7458 6.04206 47.428 7.40701 47.5795 8.76097C52.5736 14.3446 56.9491 21.2449 59.6616 28.3699H66.0067Z" fill="url(#paint12_radial_235_4688)"/>
<path d="M66.0067 28.3699C64.9307 19.6084 62.1574 11.0928 58.62 5.08611C57.9298 3.91143 56.8574 3.00925 55.5819 2.5304C54.3064 2.05155 52.9052 2.02505 51.6125 2.45533C50.3198 2.8856 49.214 3.74658 48.4799 4.89432C47.7458 6.04206 47.428 7.40701 47.5795 8.76097C52.5736 14.3446 56.9491 21.2449 59.6616 28.3699H66.0067Z" fill="url(#paint13_radial_235_4688)"/>
<path d="M18.6252 10.281C16.891 10.2199 15.2023 10.8432 13.9238 12.0165C12.6452 13.1898 11.8794 14.8188 11.7916 16.5518C11.7037 18.2849 12.301 19.983 13.4544 21.2795C14.6078 22.576 16.2248 23.3669 17.9564 23.4814C20.5737 23.6136 24.3385 24.2719 28.2565 25.5647C32.1883 23.1996 36.6915 21.9536 41.2798 21.9612C44.4973 21.9612 47.5747 22.5613 50.4062 23.6559C50.1772 23.3508 49.9225 23.066 49.6448 22.8046C40.0875 13.8104 25.8851 10.6484 18.6252 10.281Z" fill="url(#paint14_linear_235_4688)"/>
<path d="M18.6252 10.281C16.891 10.2199 15.2023 10.8432 13.9238 12.0165C12.6452 13.1898 11.8794 14.8188 11.7916 16.5518C11.7037 18.2849 12.301 19.983 13.4544 21.2795C14.6078 22.576 16.2248 23.3669 17.9564 23.4814C20.5737 23.6136 24.3385 24.2719 28.2565 25.5647C32.1883 23.1996 36.6915 21.9536 41.2798 21.9612C44.4973 21.9612 47.5747 22.5613 50.4062 23.6559C50.1772 23.3508 49.9225 23.066 49.6448 22.8046C40.0875 13.8104 25.8851 10.6484 18.6252 10.281Z" fill="url(#paint15_radial_235_4688)"/>
<path d="M18.6252 10.281C16.891 10.2199 15.2023 10.8432 13.9238 12.0165C12.6452 13.1898 11.8794 14.8188 11.7916 16.5518C11.7037 18.2849 12.301 19.983 13.4544 21.2795C14.6078 22.576 16.2248 23.3669 17.9564 23.4814C20.5737 23.6136 24.3385 24.2719 28.2565 25.5647C32.1883 23.1996 36.6915 21.9536 41.2798 21.9612C44.4973 21.9612 47.5747 22.5613 50.4062 23.6559C50.1772 23.3508 49.9225 23.066 49.6448 22.8046C40.0875 13.8104 25.8851 10.6484 18.6252 10.281Z" fill="url(#paint16_radial_235_4688)"/>
<path d="M18.6252 10.281C16.891 10.2199 15.2023 10.8432 13.9238 12.0165C12.6452 13.1898 11.8794 14.8188 11.7916 16.5518C11.7037 18.2849 12.301 19.983 13.4544 21.2795C14.6078 22.576 16.2248 23.3669 17.9564 23.4814C20.5737 23.6136 24.3385 24.2719 28.2565 25.5647C32.1883 23.1996 36.6915 21.9536 41.2798 21.9612C44.4973 21.9612 47.5747 22.5613 50.4062 23.6559C50.1772 23.3508 49.9225 23.066 49.6448 22.8046C40.0875 13.8104 25.8851 10.6484 18.6252 10.281Z" fill="url(#paint17_radial_235_4688)"/>
<path d="M18.6252 10.281C16.891 10.2199 15.2023 10.8432 13.9238 12.0165C12.6452 13.1898 11.8794 14.8188 11.7916 16.5518C11.7037 18.2849 12.301 19.983 13.4544 21.2795C14.6078 22.576 16.2248 23.3669 17.9564 23.4814C20.5737 23.6136 24.3385 24.2719 28.2565 25.5647C32.1883 23.1996 36.6915 21.9536 41.2798 21.9612C44.4973 21.9612 47.5747 22.5613 50.4062 23.6559C50.1772 23.3508 49.9225 23.066 49.6448 22.8046C40.0875 13.8104 25.8851 10.6484 18.6252 10.281Z" fill="url(#paint18_radial_235_4688)"/>
<g filter="url(#filter1_f_235_4688)">
<path d="M55.1409 5.96631C56.7933 8.14214 60.8409 17.5461 62.0809 24.5548" stroke="url(#paint19_linear_235_4688)" stroke-width="1.25" stroke-linecap="round"/>
</g>
<g filter="url(#filter2_f_235_4688)">
<path d="M37.9989 5.19434C40.8066 6.97096 47.5403 13.0834 52.9099 21.1813" stroke="url(#paint20_linear_235_4688)" stroke-width="1.25" stroke-linecap="round"/>
</g>
<g filter="url(#filter3_f_235_4688)">
<path d="M20.356 14.2334C25.8895 14.8943 39.156 18.9288 43.1745 21.5461" stroke="url(#paint21_linear_235_4688)" stroke-width="1.25" stroke-linecap="round"/>
</g>
<g filter="url(#filter4_f_235_4688)">
<path d="M24.8161 40.8989C27.9569 31.8942 38.2835 27.5161 44.5625 28.5075" stroke="url(#paint22_linear_235_4688)" stroke-width="1.5" stroke-linecap="round"/>
</g>
<g filter="url(#filter5_f_235_4688)">
<path d="M25.9108 51.1357C27.3438 54.7789 32.8613 61.7928 43.4682 60.7142" stroke="url(#paint23_linear_235_4688)" stroke-width="1.25" stroke-linecap="round"/>
</g>
<g filter="url(#filter6_f_235_4688)">
<path d="M64.8198 48.0421C61.3379 24.6526 46.3847 23.8515 42.7495 22.9156C50.3503 18.0405 61.6657 21.985 62.9083 26.2203C65.3036 34.4002 65.5362 43.9654 64.8198 48.0421Z" fill="url(#paint24_linear_235_4688)"/>
</g>
<path fill-rule="evenodd" clip-rule="evenodd" d="M32.1451 3.10058C32.6256 2.48467 33.2227 1.96943 33.9023 1.58429C34.582 1.19914 35.3308 0.951629 36.1061 0.855884C36.8814 0.76014 37.6679 0.818037 38.4208 1.02627C39.1737 1.2345 39.8783 1.589 40.4942 2.0695C43.0494 4.0848 45.4205 6.32319 47.5795 8.75828C47.428 7.40432 47.7458 6.03938 48.4799 4.89163C49.214 3.74389 50.3198 2.88292 51.6125 2.45264C52.9052 2.02236 54.3064 2.04887 55.5819 2.52772C56.8574 3.00657 57.9298 3.90874 58.62 5.08342C62.5592 11.7722 65.5467 21.5621 66.3055 31.3442L66.3345 31.3415L66.3742 32.0765C66.4641 33.6548 66.6492 36.8776 66.5513 42.9451C66.4535 49.0602 64.7694 53.8983 62.3054 57.9565C58.041 65.2428 49.9589 70.0518 40.9198 70.0518C30.9104 70.0518 22.6618 63.8865 18.8178 56.0001C18.3773 55.0963 18.1488 54.104 18.1497 53.0986C18.1506 52.0932 18.3808 51.1013 18.8229 50.1983C19.2649 49.2953 19.9072 48.5051 20.7007 47.8878C21.4942 47.2704 22.4181 46.8422 23.4021 46.6358C22.3919 46.5252 21.4207 46.1836 20.5637 45.6373C19.7068 45.091 18.9871 44.3547 18.4605 43.4855C17.9339 42.6163 17.6145 41.6376 17.5269 40.6251C17.4394 39.6126 17.5862 38.5936 17.9559 37.6469C19.97 32.5682 23.6492 28.324 28.3909 25.6098C24.4226 24.2879 20.6023 23.6164 17.9559 23.4815C17.0799 23.4507 16.2188 23.2459 15.4227 22.8791C14.6266 22.5123 13.9114 21.9908 13.3187 21.3449C12.7261 20.6991 12.2678 19.9418 11.9706 19.1172C11.6734 18.2926 11.5432 17.4171 11.5876 16.5417C11.6319 15.6663 11.85 14.8084 12.229 14.0181C12.6081 13.2277 13.1405 12.5206 13.7954 11.938C14.4503 11.3554 15.2145 10.9089 16.0436 10.6244C16.8727 10.34 17.7501 10.2233 18.6248 10.2811C22.7041 10.4873 28.9726 11.5766 35.3758 14.0829C34.6197 13.2633 33.8688 12.4966 33.1286 11.8013C30.5377 9.78143 30.1252 5.69414 32.1451 3.10322M40.9225 35.9364C35.9178 35.9364 31.8199 38.5088 30.2627 42.4798C29.8626 43.5011 29.2144 44.4067 28.3766 45.1147C27.5389 45.8228 26.538 46.311 25.4642 46.5354C26.5774 46.654 27.6422 47.0535 28.5587 47.6962C29.4752 48.339 30.2135 49.204 30.7042 50.2102C32.5919 54.0886 36.5338 56.2169 40.9198 56.2169C45.9457 55.8203 50.2841 51.8203 50.2841 46.1652C50.2841 40.5128 46.3211 35.9338 40.9198 35.9338" fill="url(#paint25_radial_235_4688)"/>
<g filter="url(#filter7_f_235_4688)">
<path d="M49.7578 28.1558C53.6918 29.5067 61.5094 35.0983 61.3112 46.6464" stroke="url(#paint26_radial_235_4688)" stroke-width="2" stroke-linecap="round"/>
</g>
<path fill-rule="evenodd" clip-rule="evenodd" d="M59.3363 62.0041C56.9989 64.5532 54.1559 66.5873 50.9886 67.9765C47.8214 69.3658 44.3994 70.0798 40.9408 70.0729C30.9314 70.0729 22.6828 63.8865 18.8388 55.9762C18.3986 55.0704 18.1704 54.0763 18.1712 53.0692C18.1721 52.0621 18.4021 51.0684 18.8438 50.1634C19.2855 49.2583 19.9274 48.4656 20.7207 47.8453C21.5141 47.2249 22.4382 46.7932 23.4231 46.5829C22.411 46.4704 21.4383 46.1266 20.5804 45.5779C19.7225 45.0292 19.0024 44.2905 18.4759 43.4188C17.9493 42.5472 17.6304 41.5661 17.5439 40.5514C17.4574 39.5367 17.6055 38.5158 17.9769 37.5676C19.9877 32.4774 23.6667 28.2204 28.4119 25.4934L28.3485 25.4722C32.1476 23.3043 36.4913 22.0459 40.9725 22.0459C54.4003 22.0459 65.2848 32.8537 65.2848 46.1837C65.2848 52.2379 63.0402 57.7687 59.3363 62.0041ZM30.2837 42.4136C31.8436 38.4294 35.9388 35.8491 40.9408 35.8491C46.3421 35.8491 50.3051 40.4387 50.3051 46.1096C50.3051 51.7832 45.9667 55.7938 40.9408 56.1904C36.5548 56.1904 32.6129 54.0595 30.7252 50.1705C30.2368 49.1612 29.4995 48.2929 28.5828 47.6472C27.666 47.0015 26.6001 46.5998 25.4852 46.4798C26.5599 46.254 27.5614 45.764 28.3991 45.0541C29.2369 44.3441 29.8846 43.4367 30.2837 42.4136Z" fill="url(#paint27_radial_235_4688)"/>
<path fill-rule="evenodd" clip-rule="evenodd" d="M59.3363 62.0041C56.9989 64.5532 54.1559 66.5873 50.9886 67.9765C47.8214 69.3658 44.3994 70.0798 40.9408 70.0729C30.9314 70.0729 22.6828 63.8865 18.8388 55.9762C18.3986 55.0704 18.1704 54.0763 18.1712 53.0692C18.1721 52.0621 18.4021 51.0684 18.8438 50.1634C19.2855 49.2583 19.9274 48.4656 20.7207 47.8453C21.5141 47.2249 22.4382 46.7932 23.4231 46.5829C22.411 46.4704 21.4383 46.1266 20.5804 45.5779C19.7225 45.0292 19.0024 44.2905 18.4759 43.4188C17.9493 42.5472 17.6304 41.5661 17.5439 40.5514C17.4574 39.5367 17.6055 38.5158 17.9769 37.5676C19.9877 32.4774 23.6667 28.2204 28.4119 25.4934L28.3485 25.4722C32.1476 23.3043 36.4913 22.0459 40.9725 22.0459C54.4003 22.0459 65.2848 32.8537 65.2848 46.1837C65.2848 52.2379 63.0402 57.7687 59.3363 62.0041ZM30.2837 42.4136C31.8436 38.4294 35.9388 35.8491 40.9408 35.8491C46.3421 35.8491 50.3051 40.4387 50.3051 46.1096C50.3051 51.7832 45.9667 55.7938 40.9408 56.1904C36.5548 56.1904 32.6129 54.0595 30.7252 50.1705C30.2368 49.1612 29.4995 48.2929 28.5828 47.6472C27.666 47.0015 26.6001 46.5998 25.4852 46.4798C26.5599 46.254 27.5614 45.764 28.3991 45.0541C29.2369 44.3441 29.8846 43.4367 30.2837 42.4136Z" fill="url(#paint28_radial_235_4688)"/>
<defs>
<filter id="filter0_i_235_4688" x="11.5791" y="0.211035" width="55.6" height="69.8407" filterUnits="userSpaceOnUse" color-interpolation-filters="sRGB">
<feFlood flood-opacity="0" result="BackgroundImageFix"/>
<feBlend mode="normal" in="SourceGraphic" in2="BackgroundImageFix" result="shape"/>
<feColorMatrix in="SourceAlpha" type="matrix" values="0 0 0 0 0 0 0 0 0 0 0 0 0 0 0 0 0 0 127 0" result="hardAlpha"/>
<feOffset dx="0.6" dy="-0.6"/>
<feGaussianBlur stdDeviation="1"/>
<feComposite in2="hardAlpha" operator="arithmetic" k2="-1" k3="1"/>
<feColorMatrix type="matrix" values="0 0 0 0 0.733333 0 0 0 0 0.490196 0 0 0 0 0.596078 0 0 0 1 0"/>
<feBlend mode="normal" in2="shape" result="effect1_innerShadow_235_4688"/>
</filter>
<filter id="filter1_f_235_4688" x="53.2659" y="4.09131" width="10.6901" height="22.3384" filterUnits="userSpaceOnUse" color-interpolation-filters="sRGB">
<feFlood flood-opacity="0" result="BackgroundImageFix"/>
<feBlend mode="normal" in="SourceGraphic" in2="BackgroundImageFix" result="shape"/>
<feGaussianBlur stdDeviation="0.625" result="effect1_foregroundBlur_235_4688"/>
</filter>
<filter id="filter2_f_235_4688" x="36.1238" y="3.31934" width="18.6611" height="19.7368" filterUnits="userSpaceOnUse" color-interpolation-filters="sRGB">
<feFlood flood-opacity="0" result="BackgroundImageFix"/>
<feBlend mode="normal" in="SourceGraphic" in2="BackgroundImageFix" result="shape"/>
<feGaussianBlur stdDeviation="0.625" result="effect1_foregroundBlur_235_4688"/>
</filter>
<filter id="filter3_f_235_4688" x="17.731" y="11.6084" width="28.0687" height="12.563" filterUnits="userSpaceOnUse" color-interpolation-filters="sRGB">
<feFlood flood-opacity="0" result="BackgroundImageFix"/>
<feBlend mode="normal" in="SourceGraphic" in2="BackgroundImageFix" result="shape"/>
<feGaussianBlur stdDeviation="1" result="effect1_foregroundBlur_235_4688"/>
</filter>
<filter id="filter4_f_235_4688" x="22.8159" y="26.3696" width="23.7467" height="16.5293" filterUnits="userSpaceOnUse" color-interpolation-filters="sRGB">
<feFlood flood-opacity="0" result="BackgroundImageFix"/>
<feBlend mode="normal" in="SourceGraphic" in2="BackgroundImageFix" result="shape"/>
<feGaussianBlur stdDeviation="0.625" result="effect1_foregroundBlur_235_4688"/>
</filter>
<filter id="filter5_f_235_4688" x="24.0356" y="49.2607" width="21.3076" height="13.4404" filterUnits="userSpaceOnUse" color-interpolation-filters="sRGB">
<feFlood flood-opacity="0" result="BackgroundImageFix"/>
<feBlend mode="normal" in="SourceGraphic" in2="BackgroundImageFix" result="shape"/>
<feGaussianBlur stdDeviation="0.625" result="effect1_foregroundBlur_235_4688"/>
</filter>
<filter id="filter6_f_235_4688" x="41.7495" y="19.6641" width="24.4269" height="29.3779" filterUnits="userSpaceOnUse" color-interpolation-filters="sRGB">
<feFlood flood-opacity="0" result="BackgroundImageFix"/>
<feBlend mode="normal" in="SourceGraphic" in2="BackgroundImageFix" result="shape"/>
<feGaussianBlur stdDeviation="0.5" result="effect1_foregroundBlur_235_4688"/>
</filter>
<filter id="filter7_f_235_4688" x="47.5076" y="25.9053" width="16.0573" height="22.9912" filterUnits="userSpaceOnUse" color-interpolation-filters="sRGB">
<feFlood flood-opacity="0" result="BackgroundImageFix"/>
<feBlend mode="normal" in="SourceGraphic" in2="BackgroundImageFix" result="shape"/>
<feGaussianBlur stdDeviation="0.625" result="effect1_foregroundBlur_235_4688"/>
</filter>
<radialGradient id="paint0_radial_235_4688" cx="0" cy="0" r="1" gradientUnits="userSpaceOnUse" gradientTransform="translate(42.1862 44.9332) rotate(-37.5041) scale(17.9127 17.0765)">
<stop stop-color="#BB7D98"/>
<stop offset="1" stop-color="#BB7D98" stop-opacity="0"/>
</radialGradient>
<radialGradient id="paint1_radial_235_4688" cx="0" cy="0" r="1" gradientUnits="userSpaceOnUse" gradientTransform="translate(41.6099 29.1525) rotate(90.5787) scale(49.0777 67.6902)">
<stop offset="0.652" stop-color="#BB7D98" stop-opacity="0"/>
<stop offset="1" stop-color="#BB7D98"/>
</radialGradient>
<radialGradient id="paint2_radial_235_4688" cx="0" cy="0" r="1" gradientUnits="userSpaceOnUse" gradientTransform="translate(41.2686 46.1901) rotate(-40.721) scale(14.2717 11.7344)">
<stop stop-color="#E2AF98"/>
<stop offset="1" stop-color="#E2AF98" stop-opacity="0"/>
</radialGradient>
<radialGradient id="paint3_radial_235_4688" cx="0" cy="0" r="1" gradientUnits="userSpaceOnUse" gradientTransform="translate(24.3724 46.3291) rotate(90) scale(5.30737 5.07324)">
<stop stop-color="#E7A186"/>
<stop offset="1" stop-color="#E7A186" stop-opacity="0"/>
</radialGradient>
<radialGradient id="paint4_radial_235_4688" cx="0" cy="0" r="1" gradientUnits="userSpaceOnUse" gradientTransform="translate(24.6553 46.5671) rotate(90.9091) scale(1.30141 3.37482)">
<stop stop-color="#D18D6F"/>
<stop offset="1" stop-color="#D18D6F" stop-opacity="0"/>
</radialGradient>
<linearGradient id="paint5_linear_235_4688" x1="37.2713" y1="15.4391" x2="40.7664" y2="11.9282" gradientUnits="userSpaceOnUse">
<stop stop-color="#EAA17F"/>
<stop offset="1" stop-color="#EAA17F" stop-opacity="0"/>
</linearGradient>
<radialGradient id="paint6_radial_235_4688" cx="0" cy="0" r="1" gradientUnits="userSpaceOnUse" gradientTransform="translate(53.1008 16.5095) rotate(-154.517) scale(26.2044 20.1459)">
<stop offset="0.8" stop-color="#D9AA8E" stop-opacity="0"/>
<stop offset="1" stop-color="#D9AA8E"/>
</radialGradient>
<linearGradient id="paint7_linear_235_4688" x1="54.7282" y1="11.5977" x2="48.2827" y2="18.2072" gradientUnits="userSpaceOnUse">
<stop stop-color="#FADBC4"/>
<stop offset="1" stop-color="#FADBC4" stop-opacity="0"/>
</linearGradient>
<radialGradient id="paint8_radial_235_4688" cx="0" cy="0" r="1" gradientUnits="userSpaceOnUse" gradientTransform="translate(43.6692 22.2945) rotate(-65.449) scale(9.3555 16.9274)">
<stop stop-color="#FFD6B4"/>
<stop offset="0.572" stop-color="#FFD6B4" stop-opacity="0"/>
</radialGradient>
<linearGradient id="paint9_linear_235_4688" x1="55.8835" y1="22.1729" x2="52.4149" y2="17.5462" gradientUnits="userSpaceOnUse">
<stop stop-color="#FFC4AA"/>
<stop offset="1" stop-color="#FFC4AA" stop-opacity="0"/>
</linearGradient>
<linearGradient id="paint10_linear_235_4688" x1="50.678" y1="18.7862" x2="57.8903" y2="18.1755" gradientUnits="userSpaceOnUse">
<stop stop-color="#F3AA84"/>
<stop offset="1" stop-color="#F3AA84" stop-opacity="0"/>
</linearGradient>
<linearGradient id="paint11_linear_235_4688" x1="64.6425" y1="25.7261" x2="62.6385" y2="23.241" gradientUnits="userSpaceOnUse">
<stop stop-color="#FFC4AA"/>
<stop offset="1" stop-color="#FFC4AA" stop-opacity="0"/>
</linearGradient>
<radialGradient id="paint12_radial_235_4688" cx="0" cy="0" r="1" gradientUnits="userSpaceOnUse" gradientTransform="translate(55.9022 22.3791) rotate(-32.0054) scale(3.8971 7.12078)">
<stop stop-color="#FFDDBC"/>
<stop offset="1" stop-color="#FFDDBC" stop-opacity="0"/>
</radialGradient>
<radialGradient id="paint13_radial_235_4688" cx="0" cy="0" r="1" gradientUnits="userSpaceOnUse" gradientTransform="translate(62.242 15.7617) rotate(-140.949) scale(17.7738 15.2538)">
<stop offset="0.83" stop-color="#DBAB90" stop-opacity="0"/>
<stop offset="1" stop-color="#DBAB90"/>
</radialGradient>
<linearGradient id="paint14_linear_235_4688" x1="19.6325" y1="27.0055" x2="21.3827" y2="18.9975" gradientUnits="userSpaceOnUse">
<stop stop-color="#C68588"/>
<stop offset="1" stop-color="#C68588" stop-opacity="0"/>
</linearGradient>
<radialGradient id="paint15_radial_235_4688" cx="0" cy="0" r="1" gradientUnits="userSpaceOnUse" gradientTransform="translate(31.3286 25.5647) rotate(-88.5639) scale(4.48223 13.0342)">
<stop stop-color="#DA947B"/>
<stop offset="1" stop-color="#DA947B" stop-opacity="0"/>
</radialGradient>
<radialGradient id="paint16_radial_235_4688" cx="0" cy="0" r="1" gradientUnits="userSpaceOnUse" gradientTransform="translate(45.3116 21.9163) rotate(-167.844) scale(34.4007 26.7919)">
<stop offset="0.826" stop-color="#DDAB8F" stop-opacity="0"/>
<stop offset="1" stop-color="#DDAB8F"/>
</radialGradient>
<radialGradient id="paint17_radial_235_4688" cx="0" cy="0" r="1" gradientUnits="userSpaceOnUse" gradientTransform="translate(44.071 17.9184) rotate(119.455) scale(4.03236 8.65745)">
<stop stop-color="#FFD9B8"/>
<stop offset="1" stop-color="#FFD9B8" stop-opacity="0"/>
</radialGradient>
<radialGradient id="paint18_radial_235_4688" cx="0" cy="0" r="1" gradientUnits="userSpaceOnUse" gradientTransform="translate(28.5044 30.5178) rotate(-76.809) scale(18.4279 64.9943)">
<stop offset="0.822" stop-color="#FFD9BA" stop-opacity="0"/>
<stop offset="1" stop-color="#FFD9BA"/>
</radialGradient>
<linearGradient id="paint19_linear_235_4688" x1="56.9678" y1="7.07141" x2="69.888" y2="13.7417" gradientUnits="userSpaceOnUse">
<stop stop-color="#FFE5C7"/>
<stop offset="1" stop-color="#FFE5C7" stop-opacity="0"/>
</linearGradient>
<linearGradient id="paint20_linear_235_4688" x1="41.9223" y1="6.14346" x2="55.1253" y2="23.1721" gradientUnits="userSpaceOnUse">
<stop stop-color="#FFE5C7"/>
<stop offset="1" stop-color="#FFE5C7" stop-opacity="0"/>
</linearGradient>
<linearGradient id="paint21_linear_235_4688" x1="22.2437" y1="13.6042" x2="22.7539" y2="26.9315" gradientUnits="userSpaceOnUse">
<stop stop-color="#FFE5C7"/>
<stop offset="1" stop-color="#FFE5C7" stop-opacity="0"/>
</linearGradient>
<linearGradient id="paint22_linear_235_4688" x1="24.8161" y1="38.7998" x2="44.5625" y2="24.1902" gradientUnits="userSpaceOnUse">
<stop stop-color="#F9C3B4"/>
<stop offset="1" stop-color="#F9C3B4" stop-opacity="0"/>
</linearGradient>
<linearGradient id="paint23_linear_235_4688" x1="27.0847" y1="53.0234" x2="46.6751" y2="54.2554" gradientUnits="userSpaceOnUse">
<stop stop-color="#FFD9C3"/>
<stop offset="1" stop-color="#FFD9C3" stop-opacity="0"/>
</linearGradient>
<linearGradient id="paint24_linear_235_4688" x1="68.2065" y1="46.9688" x2="44.5763" y2="10.3338" gradientUnits="userSpaceOnUse">
<stop stop-color="#FFDFC1"/>
<stop offset="1" stop-color="#FFDFC1" stop-opacity="0"/>
</linearGradient>
<radialGradient id="paint25_radial_235_4688" cx="0" cy="0" r="1" gradientUnits="userSpaceOnUse" gradientTransform="translate(20.026 41.4223) rotate(-8.10199) scale(48.8656 69.7444)">
<stop offset="0.872" stop-color="#FFE1C2" stop-opacity="0"/>
<stop offset="1" stop-color="#FFE1C2"/>
</radialGradient>
<radialGradient id="paint26_radial_235_4688" cx="0" cy="0" r="1" gradientUnits="userSpaceOnUse" gradientTransform="translate(61.8981 31.9707) rotate(150.191) scale(12.2387 19.3166)">
<stop stop-color="#FFF0DE"/>
<stop offset="1" stop-color="#FFF0DE" stop-opacity="0"/>
</radialGradient>
<radialGradient id="paint27_radial_235_4688" cx="0" cy="0" r="1" gradientUnits="userSpaceOnUse" gradientTransform="translate(64.14 67.556) rotate(-136.156) scale(58.1414 43.4498)">
<stop offset="0.872" stop-color="#DBAF9A" stop-opacity="0"/>
<stop offset="1" stop-color="#DBAF9A"/>
</radialGradient>
<radialGradient id="paint28_radial_235_4688" cx="0" cy="0" r="1" gradientUnits="userSpaceOnUse" gradientTransform="translate(41.4008 47.2015) rotate(34.432) scale(14.294 14.3738)">
<stop stop-color="#E5A78B"/>
<stop offset="1" stop-color="#E5A78B" stop-opacity="0"/>
</radialGradient>
</defs>
</svg>
