<svg width="24" height="24" viewBox="0 0 24 24" fill="none" xmlns="http://www.w3.org/2000/svg">
<path fill-rule="evenodd" clip-rule="evenodd" d="M12.0007 1C11.0476 1 10.3938 1.60342 9.90325 2.24398C9.42413 2.86959 8.92038 3.77301 8.32132 4.84738L7.95235 5.50884C7.55001 6.23082 7.475 6.32503 7.40085 6.38164C7.33217 6.43349 7.23774 6.47595 6.45619 6.65261L5.74597 6.81338C4.58204 7.07639 3.59494 7.29945 2.8698 7.5853C2.11048 7.88463 1.38326 8.35024 1.10288 9.25071C0.826827 10.1403 1.14665 10.944 1.58449 11.6396C2.00731 12.3113 2.67739 13.0944 3.474 14.0254L3.95503 14.5883C4.48585 15.2084 4.54894 15.3113 4.57977 15.4117L4.58158 15.4175C4.61452 15.5224 4.62047 15.6534 4.54034 16.4815L4.46633 17.2403C4.34642 18.48 4.24602 19.5181 4.28167 20.3153C4.31819 21.1321 4.50573 21.9912 5.25219 22.5576C6.01436 23.1355 6.89042 23.0545 7.66549 22.8323C8.41133 22.6185 9.33296 22.1942 10.4202 21.6937L11.0919 21.3849C11.8278 21.0451 11.9244 21.025 12.0007 21.025C12.077 21.025 12.1736 21.0451 12.9094 21.3849L13.5085 21.6598L13.5866 21.6958C14.6711 22.1953 15.5912 22.619 16.3361 22.8325C17.1116 23.0549 17.9876 23.1356 18.75 22.5567C19.4964 21.9906 19.6834 21.1312 19.7198 20.315C19.7553 19.518 19.6549 18.48 19.535 17.2403L19.461 16.4805C19.3811 15.6555 19.3863 15.5213 19.4197 15.4136C19.4514 15.3117 19.5167 15.2071 20.0463 14.5873L20.529 14.0234C21.3249 13.0928 21.9944 12.31 22.4168 11.6388C22.8545 10.9435 23.175 10.1408 22.8987 9.25135C22.6183 8.35089 21.8911 7.88489 21.132 7.58566C20.4091 7.3007 19.4253 7.07801 18.2653 6.81543L18.1825 6.79669L17.5465 6.65269C16.7598 6.47511 16.6679 6.43293 16.6011 6.38211C16.5268 6.32555 16.4527 6.23322 16.0492 5.50921L15.68 4.84738C15.081 3.77301 14.5772 2.86959 14.0981 2.24398C13.6075 1.60342 12.9537 1 12.0007 1ZM12.3532 8.5233L12.8158 3.89809C13.127 4.37842 13.491 5.0284 13.9743 5.89505L14.3021 6.48279L14.3681 6.60162C14.6596 7.12728 14.9385 7.63027 15.3902 7.97389C15.8489 8.3228 16.4075 8.44752 16.9768 8.57462L17.1055 8.60346L17.7408 8.74731C19.0049 9.03352 19.8359 9.22455 20.3986 9.44634C20.931 9.65619 20.9746 9.79877 20.9881 9.84265L20.9887 9.84466C21.0044 9.89518 21.0518 10.053 20.7242 10.5734C20.39 11.1044 19.8207 11.7744 18.961 12.7797L18.4395 13.3888C18.0494 13.8434 17.6795 14.2744 17.5098 14.82C17.3413 15.3632 17.3972 15.9318 17.4574 16.5415L17.5363 17.3502C17.6659 18.6909 17.7502 19.5871 17.7218 20.226C17.694 20.8497 17.5665 20.9445 17.5428 20.9622L17.5413 20.9633L17.5401 20.9643C17.5314 20.9729 17.4362 21.0673 16.8872 20.91C16.3072 20.7437 15.5269 20.3874 14.3439 19.8427L13.7479 19.5691L13.6309 19.5149C13.3894 19.4027 13.1497 19.2914 12.906 19.2032L12.4373 15.4428C12.1511 13.1467 12.1229 10.8257 12.3532 8.5233Z" stroke-width="0.1" fill="##FF7F0F"/>
</svg>
