<svg width="80" height="80" viewBox="0 0 80 88" fill="none" xmlns="http://www.w3.org/2000/svg">
<rect y="8" width="80" height="80" rx="40" fill="#3BE191"/>
<g filter="url(#filter0_i_235_4742)">
<path d="M30.3775 9.27163C30.3585 8.17994 30.557 7.09539 30.9617 6.08126C31.3663 5.06714 31.9688 4.14375 32.7341 3.36499C33.4994 2.58622 34.4121 1.96768 35.4191 1.54545C36.426 1.12322 37.5069 0.905762 38.5987 0.905762C39.6906 0.905762 40.7715 1.12322 41.7785 1.54545C42.7854 1.96768 43.6981 2.58622 44.4634 3.36499C45.2287 4.14375 45.8312 5.06714 46.2358 6.08126C46.6405 7.09539 46.839 8.17994 46.82 9.27163V18.7316C46.82 19.5391 46.765 20.3441 46.64 21.1491C46.595 21.4416 46.5475 21.7366 46.52 22.0291C46.43 22.9541 46.54 24.1641 47.17 24.9766L45.665 26.4266C49.4955 28.388 52.7093 31.3701 54.9514 35.0434C57.1935 38.7166 58.3766 42.9382 58.37 47.2416C58.37 49.7041 57.99 52.0791 57.2875 54.3066L54.7975 70.5741H34.5425V70.5666C22.035 70.2966 12 62.1416 12 47.2416C12 38.4841 16.1925 31.4341 22.5375 27.4591L22.52 27.4466C22.9525 27.1466 23.4625 26.8416 24.01 26.5141L24.0125 26.5116C25.8125 25.4341 28.0125 24.1141 29.17 21.9591C30.1775 20.0891 30.3725 17.0566 30.3725 15.6516H30.3775V9.27163Z" fill="url(#paint0_linear_235_4742)"/>
</g>
<path d="M30.3775 9.27163C30.3585 8.17994 30.557 7.09539 30.9617 6.08126C31.3663 5.06714 31.9688 4.14375 32.7341 3.36499C33.4994 2.58622 34.4121 1.96768 35.4191 1.54545C36.426 1.12322 37.5069 0.905762 38.5987 0.905762C39.6906 0.905762 40.7715 1.12322 41.7785 1.54545C42.7854 1.96768 43.6981 2.58622 44.4634 3.36499C45.2287 4.14375 45.8312 5.06714 46.2358 6.08126C46.6405 7.09539 46.839 8.17994 46.82 9.27163V18.7316C46.82 19.5391 46.765 20.3441 46.64 21.1491C46.595 21.4416 46.5475 21.7366 46.52 22.0291C46.43 22.9541 46.54 24.1641 47.17 24.9766L45.665 26.4266C49.4955 28.388 52.7093 31.3701 54.9514 35.0434C57.1935 38.7166 58.3766 42.9382 58.37 47.2416C58.37 49.7041 57.99 52.0791 57.2875 54.3066L54.7975 70.5741H34.5425V70.5666C22.035 70.2966 12 62.1416 12 47.2416C12 38.4841 16.1925 31.4341 22.5375 27.4591L22.52 27.4466C22.9525 27.1466 23.4625 26.8416 24.01 26.5141L24.0125 26.5116C25.8125 25.4341 28.0125 24.1141 29.17 21.9591C30.1775 20.0891 30.3725 17.0566 30.3725 15.6516H30.3775V9.27163Z" fill="url(#paint1_radial_235_4742)"/>
<path d="M30.3775 9.27163C30.3585 8.17994 30.557 7.09539 30.9617 6.08126C31.3663 5.06714 31.9688 4.14375 32.7341 3.36499C33.4994 2.58622 34.4121 1.96768 35.4191 1.54545C36.426 1.12322 37.5069 0.905762 38.5987 0.905762C39.6906 0.905762 40.7715 1.12322 41.7785 1.54545C42.7854 1.96768 43.6981 2.58622 44.4634 3.36499C45.2287 4.14375 45.8312 5.06714 46.2358 6.08126C46.6405 7.09539 46.839 8.17994 46.82 9.27163V18.7316C46.82 19.5391 46.765 20.3441 46.64 21.1491C46.595 21.4416 46.5475 21.7366 46.52 22.0291C46.43 22.9541 46.54 24.1641 47.17 24.9766L45.665 26.4266C49.4955 28.388 52.7093 31.3701 54.9514 35.0434C57.1935 38.7166 58.3766 42.9382 58.37 47.2416C58.37 49.7041 57.99 52.0791 57.2875 54.3066L54.7975 70.5741H34.5425V70.5666C22.035 70.2966 12 62.1416 12 47.2416C12 38.4841 16.1925 31.4341 22.5375 27.4591L22.52 27.4466C22.9525 27.1466 23.4625 26.8416 24.01 26.5141L24.0125 26.5116C25.8125 25.4341 28.0125 24.1141 29.17 21.9591C30.1775 20.0891 30.3725 17.0566 30.3725 15.6516H30.3775V9.27163Z" fill="url(#paint2_radial_235_4742)"/>
<path d="M30.3775 9.27163C30.3585 8.17994 30.557 7.09539 30.9617 6.08126C31.3663 5.06714 31.9688 4.14375 32.7341 3.36499C33.4994 2.58622 34.4121 1.96768 35.4191 1.54545C36.426 1.12322 37.5069 0.905762 38.5987 0.905762C39.6906 0.905762 40.7715 1.12322 41.7785 1.54545C42.7854 1.96768 43.6981 2.58622 44.4634 3.36499C45.2287 4.14375 45.8312 5.06714 46.2358 6.08126C46.6405 7.09539 46.839 8.17994 46.82 9.27163V18.7316C46.82 19.5391 46.765 20.3441 46.64 21.1491C46.595 21.4416 46.5475 21.7366 46.52 22.0291C46.43 22.9541 46.54 24.1641 47.17 24.9766L45.665 26.4266C49.4955 28.388 52.7093 31.3701 54.9514 35.0434C57.1935 38.7166 58.3766 42.9382 58.37 47.2416C58.37 49.7041 57.99 52.0791 57.2875 54.3066L54.7975 70.5741H34.5425V70.5666C22.035 70.2966 12 62.1416 12 47.2416C12 38.4841 16.1925 31.4341 22.5375 27.4591L22.52 27.4466C22.9525 27.1466 23.4625 26.8416 24.01 26.5141L24.0125 26.5116C25.8125 25.4341 28.0125 24.1141 29.17 21.9591C30.1775 20.0891 30.3725 17.0566 30.3725 15.6516H30.3775V9.27163Z" fill="url(#paint3_radial_235_4742)"/>
<path d="M30.3775 9.27163C30.3585 8.17994 30.557 7.09539 30.9617 6.08126C31.3663 5.06714 31.9688 4.14375 32.7341 3.36499C33.4994 2.58622 34.4121 1.96768 35.4191 1.54545C36.426 1.12322 37.5069 0.905762 38.5987 0.905762C39.6906 0.905762 40.7715 1.12322 41.7785 1.54545C42.7854 1.96768 43.6981 2.58622 44.4634 3.36499C45.2287 4.14375 45.8312 5.06714 46.2358 6.08126C46.6405 7.09539 46.839 8.17994 46.82 9.27163V18.7316C46.82 19.5391 46.765 20.3441 46.64 21.1491C46.595 21.4416 46.5475 21.7366 46.52 22.0291C46.43 22.9541 46.54 24.1641 47.17 24.9766L45.665 26.4266C49.4955 28.388 52.7093 31.3701 54.9514 35.0434C57.1935 38.7166 58.3766 42.9382 58.37 47.2416C58.37 49.7041 57.99 52.0791 57.2875 54.3066L54.7975 70.5741H34.5425V70.5666C22.035 70.2966 12 62.1416 12 47.2416C12 38.4841 16.1925 31.4341 22.5375 27.4591L22.52 27.4466C22.9525 27.1466 23.4625 26.8416 24.01 26.5141L24.0125 26.5116C25.8125 25.4341 28.0125 24.1141 29.17 21.9591C30.1775 20.0891 30.3725 17.0566 30.3725 15.6516H30.3775V9.27163Z" fill="url(#paint4_radial_235_4742)"/>
<path d="M30.3775 9.27163C30.3585 8.17994 30.557 7.09539 30.9617 6.08126C31.3663 5.06714 31.9688 4.14375 32.7341 3.36499C33.4994 2.58622 34.4121 1.96768 35.4191 1.54545C36.426 1.12322 37.5069 0.905762 38.5987 0.905762C39.6906 0.905762 40.7715 1.12322 41.7785 1.54545C42.7854 1.96768 43.6981 2.58622 44.4634 3.36499C45.2287 4.14375 45.8312 5.06714 46.2358 6.08126C46.6405 7.09539 46.839 8.17994 46.82 9.27163V18.7316C46.82 19.5391 46.765 20.3441 46.64 21.1491C46.595 21.4416 46.5475 21.7366 46.52 22.0291C46.43 22.9541 46.54 24.1641 47.17 24.9766L45.665 26.4266C49.4955 28.388 52.7093 31.3701 54.9514 35.0434C57.1935 38.7166 58.3766 42.9382 58.37 47.2416C58.37 49.7041 57.99 52.0791 57.2875 54.3066L54.7975 70.5741H34.5425V70.5666C22.035 70.2966 12 62.1416 12 47.2416C12 38.4841 16.1925 31.4341 22.5375 27.4591L22.52 27.4466C22.9525 27.1466 23.4625 26.8416 24.01 26.5141L24.0125 26.5116C25.8125 25.4341 28.0125 24.1141 29.17 21.9591C30.1775 20.0891 30.3725 17.0566 30.3725 15.6516H30.3775V9.27163Z" fill="url(#paint5_radial_235_4742)"/>
<path d="M30.3775 9.27163C30.3585 8.17994 30.557 7.09539 30.9617 6.08126C31.3663 5.06714 31.9688 4.14375 32.7341 3.36499C33.4994 2.58622 34.4121 1.96768 35.4191 1.54545C36.426 1.12322 37.5069 0.905762 38.5987 0.905762C39.6906 0.905762 40.7715 1.12322 41.7785 1.54545C42.7854 1.96768 43.6981 2.58622 44.4634 3.36499C45.2287 4.14375 45.8312 5.06714 46.2358 6.08126C46.6405 7.09539 46.839 8.17994 46.82 9.27163V18.7316C46.82 19.5391 46.765 20.3441 46.64 21.1491C46.595 21.4416 46.5475 21.7366 46.52 22.0291C46.43 22.9541 46.54 24.1641 47.17 24.9766L45.665 26.4266C49.4955 28.388 52.7093 31.3701 54.9514 35.0434C57.1935 38.7166 58.3766 42.9382 58.37 47.2416C58.37 49.7041 57.99 52.0791 57.2875 54.3066L54.7975 70.5741H34.5425V70.5666C22.035 70.2966 12 62.1416 12 47.2416C12 38.4841 16.1925 31.4341 22.5375 27.4591L22.52 27.4466C22.9525 27.1466 23.4625 26.8416 24.01 26.5141L24.0125 26.5116C25.8125 25.4341 28.0125 24.1141 29.17 21.9591C30.1775 20.0891 30.3725 17.0566 30.3725 15.6516H30.3775V9.27163Z" fill="url(#paint6_radial_235_4742)"/>
<path d="M30.3775 9.27163C30.3585 8.17994 30.557 7.09539 30.9617 6.08126C31.3663 5.06714 31.9688 4.14375 32.7341 3.36499C33.4994 2.58622 34.4121 1.96768 35.4191 1.54545C36.426 1.12322 37.5069 0.905762 38.5987 0.905762C39.6906 0.905762 40.7715 1.12322 41.7785 1.54545C42.7854 1.96768 43.6981 2.58622 44.4634 3.36499C45.2287 4.14375 45.8312 5.06714 46.2358 6.08126C46.6405 7.09539 46.839 8.17994 46.82 9.27163V18.7316C46.82 19.5391 46.765 20.3441 46.64 21.1491C46.595 21.4416 46.5475 21.7366 46.52 22.0291C46.43 22.9541 46.54 24.1641 47.17 24.9766L45.665 26.4266C49.4955 28.388 52.7093 31.3701 54.9514 35.0434C57.1935 38.7166 58.3766 42.9382 58.37 47.2416C58.37 49.7041 57.99 52.0791 57.2875 54.3066L54.7975 70.5741H34.5425V70.5666C22.035 70.2966 12 62.1416 12 47.2416C12 38.4841 16.1925 31.4341 22.5375 27.4591L22.52 27.4466C22.9525 27.1466 23.4625 26.8416 24.01 26.5141L24.0125 26.5116C25.8125 25.4341 28.0125 24.1141 29.17 21.9591C30.1775 20.0891 30.3725 17.0566 30.3725 15.6516H30.3775V9.27163Z" fill="url(#paint7_linear_235_4742)"/>
<g filter="url(#filter1_f_235_4742)">
<path d="M58.905 33.149C58.905 31.457 58.2328 29.8342 57.0364 28.6377C55.8399 27.4412 54.2171 26.769 52.525 26.769H45.46C44.1506 26.7696 42.8731 27.1731 41.8009 27.9247C40.7286 28.6762 39.9136 29.7395 39.4664 30.9702C39.0193 32.2009 38.9616 33.5394 39.3012 34.804C39.6409 36.0686 40.3614 37.198 41.365 38.039C40.5989 38.6161 39.9724 39.3581 39.5321 40.2102C39.0917 41.0622 38.8487 42.0024 38.8211 42.9612C38.7935 43.9199 38.982 44.8725 39.3726 45.7485C39.7632 46.6245 40.3459 47.4014 41.0775 48.0215C40.3703 48.6196 39.8022 49.3647 39.4127 50.205C39.0232 51.0453 38.8218 51.9604 38.8225 52.8865V53.2015C38.8225 54.9515 39.525 56.534 40.665 57.6865C39.7904 58.552 39.1927 59.6578 38.9478 60.8636C38.7029 62.0694 38.8219 63.3208 39.2897 64.4589C39.7574 65.5969 40.5528 66.5703 41.5749 67.2554C42.597 67.9404 43.7996 68.3063 45.03 68.3065H52.04C53.1308 68.3067 54.2024 68.0193 55.1468 67.4735C56.0912 66.9277 56.8751 66.1427 57.4196 65.1974C57.9641 64.2522 58.2498 63.1803 58.2482 62.0895C58.2465 60.9987 57.9574 59.9276 57.41 58.984C58.511 58.471 59.4426 57.6543 60.0954 56.6299C60.7481 55.6056 61.0949 54.4162 61.095 53.2015V52.8865C61.095 50.9115 60.195 49.149 58.79 47.979C59.5942 47.281 60.2114 46.3933 60.5858 45.3964C60.9603 44.3996 61.0801 43.325 60.9343 42.2702C60.7886 41.2153 60.382 40.2135 59.7513 39.3555C59.1206 38.4975 58.2858 37.8104 57.3225 37.3565C58.3075 36.2315 58.905 34.759 58.905 33.1465" fill="url(#paint8_linear_235_4742)"/>
</g>
<g filter="url(#filter2_i_235_4742)">
<path d="M57.325 37.7517C61.3429 37.7517 64.6 34.4945 64.6 30.4767C64.6 26.4588 61.3429 23.2017 57.325 23.2017H49.2675C45.2496 23.2017 41.9925 26.4588 41.9925 30.4767C41.9925 34.4945 45.2496 37.7517 49.2675 37.7517H57.325Z" fill="url(#paint9_linear_235_4742)"/>
<path d="M57.325 37.7517C61.3429 37.7517 64.6 34.4945 64.6 30.4767C64.6 26.4588 61.3429 23.2017 57.325 23.2017H49.2675C45.2496 23.2017 41.9925 26.4588 41.9925 30.4767C41.9925 34.4945 45.2496 37.7517 49.2675 37.7517H57.325Z" fill="url(#paint10_radial_235_4742)"/>
<path d="M57.325 37.7517C61.3429 37.7517 64.6 34.4945 64.6 30.4767C64.6 26.4588 61.3429 23.2017 57.325 23.2017H49.2675C45.2496 23.2017 41.9925 26.4588 41.9925 30.4767C41.9925 34.4945 45.2496 37.7517 49.2675 37.7517H57.325Z" fill="url(#paint11_radial_235_4742)"/>
</g>
<g filter="url(#filter3_f_235_4742)">
<path d="M59.0425 26.769H49.9925C48.2556 26.769 46.8475 28.1771 46.8475 29.914C46.8475 31.651 48.2556 33.059 49.9925 33.059H59.0425C60.7794 33.059 62.1875 31.651 62.1875 29.914C62.1875 28.1771 60.7794 26.769 59.0425 26.769Z" fill="url(#paint12_linear_235_4742)"/>
</g>
<g filter="url(#filter4_i_235_4742)">
<path d="M56.7675 70.5765C60.6777 70.5765 63.8475 67.4067 63.8475 63.4965C63.8475 59.5863 60.6777 56.4165 56.7675 56.4165H48.775C44.8648 56.4165 41.695 59.5863 41.695 63.4965C41.695 67.4067 44.8648 70.5765 48.775 70.5765H56.7675Z" fill="url(#paint13_linear_235_4742)"/>
<path d="M56.7675 70.5765C60.6777 70.5765 63.8475 67.4067 63.8475 63.4965C63.8475 59.5863 60.6777 56.4165 56.7675 56.4165H48.775C44.8648 56.4165 41.695 59.5863 41.695 63.4965C41.695 67.4067 44.8648 70.5765 48.775 70.5765H56.7675Z" fill="url(#paint14_radial_235_4742)"/>
<path d="M56.7675 70.5765C60.6777 70.5765 63.8475 67.4067 63.8475 63.4965C63.8475 59.5863 60.6777 56.4165 56.7675 56.4165H48.775C44.8648 56.4165 41.695 59.5863 41.695 63.4965C41.695 67.4067 44.8648 70.5765 48.775 70.5765H56.7675Z" fill="url(#paint15_radial_235_4742)"/>
</g>
<g filter="url(#filter5_f_235_4742)">
<path d="M60.3425 60.6216H50.6075C49.5885 60.6216 48.7625 61.4476 48.7625 62.4666C48.7625 63.4855 49.5885 64.3116 50.6075 64.3116H60.3425C61.3615 64.3116 62.1875 63.4855 62.1875 62.4666C62.1875 61.4476 61.3615 60.6216 60.3425 60.6216Z" fill="url(#paint16_linear_235_4742)"/>
</g>
<g filter="url(#filter6_i_235_4742)">
<path d="M67.095 53.344V52.984C67.095 48.9661 63.8379 45.709 59.82 45.709H48.9725C44.9546 45.709 41.6975 48.9661 41.6975 52.984V53.344C41.6975 57.3619 44.9546 60.619 48.9725 60.619H59.82C63.8379 60.619 67.095 57.3619 67.095 53.344Z" fill="url(#paint17_linear_235_4742)"/>
<path d="M67.095 53.344V52.984C67.095 48.9661 63.8379 45.709 59.82 45.709H48.9725C44.9546 45.709 41.6975 48.9661 41.6975 52.984V53.344C41.6975 57.3619 44.9546 60.619 48.9725 60.619H59.82C63.8379 60.619 67.095 57.3619 67.095 53.344Z" fill="url(#paint18_radial_235_4742)"/>
<path d="M67.095 53.344V52.984C67.095 48.9661 63.8379 45.709 59.82 45.709H48.9725C44.9546 45.709 41.6975 48.9661 41.6975 52.984V53.344C41.6975 57.3619 44.9546 60.619 48.9725 60.619H59.82C63.8379 60.619 67.095 57.3619 67.095 53.344Z" fill="url(#paint19_radial_235_4742)"/>
</g>
<g filter="url(#filter7_f_235_4742)">
<path d="M62.755 50.9468H49.6325C48.6135 50.9468 47.7875 51.7728 47.7875 52.7918C47.7875 53.8107 48.6135 54.6368 49.6325 54.6368H62.755C63.774 54.6368 64.6 53.8107 64.6 52.7918C64.6 51.7728 63.774 50.9468 62.755 50.9468Z" fill="url(#paint20_linear_235_4742)"/>
</g>
<g filter="url(#filter8_i_235_4742)">
<path d="M66.98 41.8939V41.8614C66.98 37.8436 63.7229 34.5864 59.705 34.5864H48.97C44.9521 34.5864 41.695 37.8436 41.695 41.8614V41.8939C41.695 45.9118 44.9521 49.1689 48.97 49.1689H59.705C63.7229 49.1689 66.98 45.9118 66.98 41.8939Z" fill="url(#paint21_linear_235_4742)"/>
<path d="M66.98 41.8939V41.8614C66.98 37.8436 63.7229 34.5864 59.705 34.5864H48.97C44.9521 34.5864 41.695 37.8436 41.695 41.8614V41.8939C41.695 45.9118 44.9521 49.1689 48.97 49.1689H59.705C63.7229 49.1689 66.98 45.9118 66.98 41.8939Z" fill="url(#paint22_radial_235_4742)"/>
</g>
<g filter="url(#filter9_f_235_4742)">
<path d="M61.455 37.6489H49.815C48.0781 37.6489 46.67 39.057 46.67 40.7939C46.67 42.5309 48.0781 43.9389 49.815 43.9389H61.455C63.1919 43.9389 64.6 42.5309 64.6 40.7939C64.6 39.057 63.1919 37.6489 61.455 37.6489Z" fill="url(#paint23_linear_235_4742)"/>
</g>
<path d="M38.6275 1.04932C36.4467 1.04932 34.3553 1.91561 32.8133 3.45763C31.2713 4.99965 30.405 7.09107 30.405 9.27182V15.6518H30.4C30.4 17.0568 30.205 20.0893 29.2 21.9593C28.04 24.1143 25.84 25.4343 24.0425 26.5093C23.4925 26.8393 22.9825 27.1468 22.55 27.4468C25.0375 29.4393 30.13 33.4218 30.255 33.3268C30.38 33.2318 36.115 30.1893 38.965 28.6768L38.845 26.9518C40.9869 26.8945 43.0219 26.0033 44.5166 24.468C46.0113 22.9327 46.8476 20.8745 46.8475 18.7318V9.27182C46.8475 7.09151 45.9815 5.00046 44.4401 3.45851C42.8986 1.91657 40.8078 1.04998 38.6275 1.04932Z" fill="url(#paint24_radial_235_4742)"/>
<g filter="url(#filter10_f_235_4742)">
<path d="M44.7475 7.11924C44.7475 5.48309 43.4212 4.15674 41.785 4.15674C40.1489 4.15674 38.8225 5.48309 38.8225 7.11924V21.1867C38.8225 22.8229 40.1489 24.1492 41.785 24.1492C43.4212 24.1492 44.7475 22.8229 44.7475 21.1867V7.11924Z" fill="url(#paint25_linear_235_4742)"/>
</g>
<defs>
<filter id="filter0_i_235_4742" x="12" y="0.905762" width="46.87" height="69.6685" filterUnits="userSpaceOnUse" color-interpolation-filters="sRGB">
<feFlood flood-opacity="0" result="BackgroundImageFix"/>
<feBlend mode="normal" in="SourceGraphic" in2="BackgroundImageFix" result="shape"/>
<feColorMatrix in="SourceAlpha" type="matrix" values="0 0 0 0 0 0 0 0 0 0 0 0 0 0 0 0 0 0 127 0" result="hardAlpha"/>
<feOffset dx="0.5"/>
<feGaussianBlur stdDeviation="1.5"/>
<feComposite in2="hardAlpha" operator="arithmetic" k2="-1" k3="1"/>
<feColorMatrix type="matrix" values="0 0 0 0 0.87451 0 0 0 0 0.67451 0 0 0 0 0.568627 0 0 0 1 0"/>
<feBlend mode="normal" in2="shape" result="effect1_innerShadow_235_4742"/>
</filter>
<filter id="filter1_f_235_4742" x="36.8185" y="24.769" width="26.2766" height="45.5376" filterUnits="userSpaceOnUse" color-interpolation-filters="sRGB">
<feFlood flood-opacity="0" result="BackgroundImageFix"/>
<feBlend mode="normal" in="SourceGraphic" in2="BackgroundImageFix" result="shape"/>
<feGaussianBlur stdDeviation="1" result="effect1_foregroundBlur_235_4742"/>
</filter>
<filter id="filter2_i_235_4742" x="41.9925" y="23.2017" width="23.1075" height="14.5498" filterUnits="userSpaceOnUse" color-interpolation-filters="sRGB">
<feFlood flood-opacity="0" result="BackgroundImageFix"/>
<feBlend mode="normal" in="SourceGraphic" in2="BackgroundImageFix" result="shape"/>
<feColorMatrix in="SourceAlpha" type="matrix" values="0 0 0 0 0 0 0 0 0 0 0 0 0 0 0 0 0 0 127 0" result="hardAlpha"/>
<feOffset dx="0.5"/>
<feGaussianBlur stdDeviation="0.75"/>
<feComposite in2="hardAlpha" operator="arithmetic" k2="-1" k3="1"/>
<feColorMatrix type="matrix" values="0 0 0 0 0.898039 0 0 0 0 0.690196 0 0 0 0 0.568627 0 0 0 1 0"/>
<feBlend mode="normal" in2="shape" result="effect1_innerShadow_235_4742"/>
</filter>
<filter id="filter3_f_235_4742" x="45.5975" y="25.519" width="17.84" height="8.79004" filterUnits="userSpaceOnUse" color-interpolation-filters="sRGB">
<feFlood flood-opacity="0" result="BackgroundImageFix"/>
<feBlend mode="normal" in="SourceGraphic" in2="BackgroundImageFix" result="shape"/>
<feGaussianBlur stdDeviation="0.625" result="effect1_foregroundBlur_235_4742"/>
</filter>
<filter id="filter4_i_235_4742" x="41.695" y="56.4165" width="22.6525" height="14.6602" filterUnits="userSpaceOnUse" color-interpolation-filters="sRGB">
<feFlood flood-opacity="0" result="BackgroundImageFix"/>
<feBlend mode="normal" in="SourceGraphic" in2="BackgroundImageFix" result="shape"/>
<feColorMatrix in="SourceAlpha" type="matrix" values="0 0 0 0 0 0 0 0 0 0 0 0 0 0 0 0 0 0 127 0" result="hardAlpha"/>
<feOffset dx="0.5" dy="0.5"/>
<feGaussianBlur stdDeviation="0.75"/>
<feComposite in2="hardAlpha" operator="arithmetic" k2="-1" k3="1"/>
<feColorMatrix type="matrix" values="0 0 0 0 0.811765 0 0 0 0 0.568627 0 0 0 0 0.541176 0 0 0 1 0"/>
<feBlend mode="normal" in2="shape" result="effect1_innerShadow_235_4742"/>
</filter>
<filter id="filter5_f_235_4742" x="47.5125" y="59.3716" width="15.925" height="6.18994" filterUnits="userSpaceOnUse" color-interpolation-filters="sRGB">
<feFlood flood-opacity="0" result="BackgroundImageFix"/>
<feBlend mode="normal" in="SourceGraphic" in2="BackgroundImageFix" result="shape"/>
<feGaussianBlur stdDeviation="0.625" result="effect1_foregroundBlur_235_4742"/>
</filter>
<filter id="filter6_i_235_4742" x="41.6975" y="45.709" width="26.3975" height="15.4102" filterUnits="userSpaceOnUse" color-interpolation-filters="sRGB">
<feFlood flood-opacity="0" result="BackgroundImageFix"/>
<feBlend mode="normal" in="SourceGraphic" in2="BackgroundImageFix" result="shape"/>
<feColorMatrix in="SourceAlpha" type="matrix" values="0 0 0 0 0 0 0 0 0 0 0 0 0 0 0 0 0 0 127 0" result="hardAlpha"/>
<feOffset dx="1" dy="0.5"/>
<feGaussianBlur stdDeviation="0.75"/>
<feComposite in2="hardAlpha" operator="arithmetic" k2="-1" k3="1"/>
<feColorMatrix type="matrix" values="0 0 0 0 0.831373 0 0 0 0 0.576471 0 0 0 0 0.505882 0 0 0 1 0"/>
<feBlend mode="normal" in2="shape" result="effect1_innerShadow_235_4742"/>
</filter>
<filter id="filter7_f_235_4742" x="46.5375" y="49.6968" width="19.3125" height="6.18994" filterUnits="userSpaceOnUse" color-interpolation-filters="sRGB">
<feFlood flood-opacity="0" result="BackgroundImageFix"/>
<feBlend mode="normal" in="SourceGraphic" in2="BackgroundImageFix" result="shape"/>
<feGaussianBlur stdDeviation="0.625" result="effect1_foregroundBlur_235_4742"/>
</filter>
<filter id="filter8_i_235_4742" x="41.695" y="34.5864" width="25.785" height="15.0825" filterUnits="userSpaceOnUse" color-interpolation-filters="sRGB">
<feFlood flood-opacity="0" result="BackgroundImageFix"/>
<feBlend mode="normal" in="SourceGraphic" in2="BackgroundImageFix" result="shape"/>
<feColorMatrix in="SourceAlpha" type="matrix" values="0 0 0 0 0 0 0 0 0 0 0 0 0 0 0 0 0 0 127 0" result="hardAlpha"/>
<feOffset dx="0.5" dy="0.5"/>
<feGaussianBlur stdDeviation="0.75"/>
<feComposite in2="hardAlpha" operator="arithmetic" k2="-1" k3="1"/>
<feColorMatrix type="matrix" values="0 0 0 0 0.862745 0 0 0 0 0.658824 0 0 0 0 0.54902 0 0 0 1 0"/>
<feBlend mode="normal" in2="shape" result="effect1_innerShadow_235_4742"/>
</filter>
<filter id="filter9_f_235_4742" x="45.42" y="36.3989" width="20.43" height="8.79004" filterUnits="userSpaceOnUse" color-interpolation-filters="sRGB">
<feFlood flood-opacity="0" result="BackgroundImageFix"/>
<feBlend mode="normal" in="SourceGraphic" in2="BackgroundImageFix" result="shape"/>
<feGaussianBlur stdDeviation="0.625" result="effect1_foregroundBlur_235_4742"/>
</filter>
<filter id="filter10_f_235_4742" x="37.5725" y="2.90674" width="8.42499" height="22.4927" filterUnits="userSpaceOnUse" color-interpolation-filters="sRGB">
<feFlood flood-opacity="0" result="BackgroundImageFix"/>
<feBlend mode="normal" in="SourceGraphic" in2="BackgroundImageFix" result="shape"/>
<feGaussianBlur stdDeviation="0.625" result="effect1_foregroundBlur_235_4742"/>
</filter>
<linearGradient id="paint0_linear_235_4742" x1="49.025" y1="25.9591" x2="20.635" y2="80.1366" gradientUnits="userSpaceOnUse">
<stop stop-color="#FFDDBE"/>
<stop offset="1" stop-color="#E7AFA8"/>
</linearGradient>
<radialGradient id="paint1_radial_235_4742" cx="0" cy="0" r="1" gradientUnits="userSpaceOnUse" gradientTransform="translate(45.0937 4.61088) rotate(138.814) scale(9.26518 7.22903)">
<stop stop-color="#FFE6C7"/>
<stop offset="1" stop-color="#FFE6C7" stop-opacity="0"/>
</radialGradient>
<radialGradient id="paint2_radial_235_4742" cx="0" cy="0" r="1" gradientUnits="userSpaceOnUse" gradientTransform="translate(25.691 35.8108) rotate(133.564) scale(18.5305 13.4238)">
<stop stop-color="#F2C0A5"/>
<stop offset="1" stop-color="#F2C0A5" stop-opacity="0"/>
</radialGradient>
<radialGradient id="paint3_radial_235_4742" cx="0" cy="0" r="1" gradientUnits="userSpaceOnUse" gradientTransform="translate(49.5575 38.0366) rotate(135.794) scale(26.723 16.4741)">
<stop stop-color="#DDA895"/>
<stop offset="1" stop-color="#DDA895" stop-opacity="0"/>
</radialGradient>
<radialGradient id="paint4_radial_235_4742" cx="0" cy="0" r="1" gradientUnits="userSpaceOnUse" gradientTransform="translate(26.01 80.8117) rotate(-62.612) scale(36.8553 65.5285)">
<stop stop-color="#C08494"/>
<stop offset="1" stop-color="#C08494" stop-opacity="0"/>
</radialGradient>
<radialGradient id="paint5_radial_235_4742" cx="0" cy="0" r="1" gradientUnits="userSpaceOnUse" gradientTransform="translate(50.2925 47.9841) rotate(180) scale(38.835 59.7688)">
<stop offset="0.864" stop-color="#EDB29B" stop-opacity="0"/>
<stop offset="1" stop-color="#EDB29B"/>
</radialGradient>
<radialGradient id="paint6_radial_235_4742" cx="0" cy="0" r="1" gradientUnits="userSpaceOnUse" gradientTransform="translate(45.6225 24.2666) rotate(38.8999) scale(3.90565 5.14345)">
<stop stop-color="#FFDBBA"/>
<stop offset="1" stop-color="#FFDBBA" stop-opacity="0"/>
</radialGradient>
<linearGradient id="paint7_linear_235_4742" x1="35.185" y1="73.6241" x2="35.185" y2="65.0316" gradientUnits="userSpaceOnUse">
<stop stop-color="#B57895"/>
<stop offset="1" stop-color="#B57895" stop-opacity="0"/>
</linearGradient>
<linearGradient id="paint8_linear_235_4742" x1="48.205" y1="31.389" x2="48.205" y2="69.809" gradientUnits="userSpaceOnUse">
<stop stop-color="#B5755F"/>
<stop offset="1" stop-color="#B3748D"/>
</linearGradient>
<linearGradient id="paint9_linear_235_4742" x1="64.6" y1="30.4767" x2="44.2375" y2="30.4767" gradientUnits="userSpaceOnUse">
<stop stop-color="#FFD8BA"/>
<stop offset="1" stop-color="#ECB9A3"/>
</linearGradient>
<radialGradient id="paint10_radial_235_4742" cx="0" cy="0" r="1" gradientUnits="userSpaceOnUse" gradientTransform="translate(44.0475 34.8492) scale(16.565 6.64417)">
<stop stop-color="#DFA995"/>
<stop offset="1" stop-color="#DFA995" stop-opacity="0"/>
</radialGradient>
<radialGradient id="paint11_radial_235_4742" cx="0" cy="0" r="1" gradientUnits="userSpaceOnUse" gradientTransform="translate(45.6675 36.9242) rotate(-142.633) scale(5.80276 3.88419)">
<stop stop-color="#CA8C6F"/>
<stop offset="1" stop-color="#CA8C6F" stop-opacity="0"/>
</radialGradient>
<linearGradient id="paint12_linear_235_4742" x1="61.39" y1="28.4915" x2="44.855" y2="28.4915" gradientUnits="userSpaceOnUse">
<stop stop-color="#FFE7CA"/>
<stop offset="1" stop-color="#FFE7CA" stop-opacity="0"/>
</linearGradient>
<linearGradient id="paint13_linear_235_4742" x1="61.9075" y1="63.4965" x2="41.695" y2="63.4965" gradientUnits="userSpaceOnUse">
<stop stop-color="#FECEB7"/>
<stop offset="1" stop-color="#DAA59E"/>
</linearGradient>
<radialGradient id="paint14_radial_235_4742" cx="0" cy="0" r="1" gradientUnits="userSpaceOnUse" gradientTransform="translate(48.075 70.574) scale(20.5192 3.89017)">
<stop stop-color="#BF8196"/>
<stop offset="1" stop-color="#BF8196" stop-opacity="0"/>
</radialGradient>
<radialGradient id="paint15_radial_235_4742" cx="0" cy="0" r="1" gradientUnits="userSpaceOnUse" gradientTransform="translate(47.025 58.9015) scale(16.8242 3.7827)">
<stop stop-color="#B57767"/>
<stop offset="1" stop-color="#B57767" stop-opacity="0"/>
</radialGradient>
<linearGradient id="paint16_linear_235_4742" x1="61.49" y1="61.6341" x2="47.0175" y2="61.6341" gradientUnits="userSpaceOnUse">
<stop stop-color="#FFD2C1"/>
<stop offset="1" stop-color="#FFD2C1" stop-opacity="0"/>
</linearGradient>
<linearGradient id="paint17_linear_235_4742" x1="64.87" y1="53.164" x2="41.6975" y2="53.164" gradientUnits="userSpaceOnUse">
<stop stop-color="#FFDDC1"/>
<stop offset="1" stop-color="#E5B1A3"/>
</linearGradient>
<radialGradient id="paint18_radial_235_4742" cx="0" cy="0" r="1" gradientUnits="userSpaceOnUse" gradientTransform="translate(46.8425 60.619) scale(23.0421 8.1969)">
<stop offset="0.14" stop-color="#CA8E96"/>
<stop offset="1" stop-color="#CA8E96" stop-opacity="0"/>
</radialGradient>
<radialGradient id="paint19_radial_235_4742" cx="0" cy="0" r="1" gradientUnits="userSpaceOnUse" gradientTransform="translate(48.895 47.0115) scale(11.8832 4.82387)">
<stop stop-color="#BB7E6C"/>
<stop offset="1" stop-color="#BB7E6C" stop-opacity="0"/>
</radialGradient>
<linearGradient id="paint20_linear_235_4742" x1="63.7275" y1="51.9593" x2="45.605" y2="51.9593" gradientUnits="userSpaceOnUse">
<stop stop-color="#FFE2C9"/>
<stop offset="1" stop-color="#FFE2C9" stop-opacity="0"/>
</linearGradient>
<linearGradient id="paint21_linear_235_4742" x1="66.98" y1="41.8764" x2="41.6975" y2="41.8764" gradientUnits="userSpaceOnUse">
<stop stop-color="#FFDFBF"/>
<stop offset="1" stop-color="#E2AE9C"/>
</linearGradient>
<radialGradient id="paint22_radial_235_4742" cx="0" cy="0" r="1" gradientUnits="userSpaceOnUse" gradientTransform="translate(48.1175 49.1689) scale(20.2344 9.39212)">
<stop stop-color="#D39797"/>
<stop offset="1" stop-color="#D39797" stop-opacity="0"/>
</radialGradient>
<linearGradient id="paint23_linear_235_4742" x1="63.67" y1="39.3739" x2="44.3425" y2="39.3739" gradientUnits="userSpaceOnUse">
<stop stop-color="#FFE8CA"/>
<stop offset="1" stop-color="#FFE8CA" stop-opacity="0"/>
</linearGradient>
<radialGradient id="paint24_radial_235_4742" cx="0" cy="0" r="1" gradientUnits="userSpaceOnUse" gradientTransform="translate(30.5875 11.2293) rotate(90) scale(15.8224 6.2446)">
<stop stop-color="#E0A892"/>
<stop offset="1" stop-color="#E0A892" stop-opacity="0"/>
</radialGradient>
<linearGradient id="paint25_linear_235_4742" x1="44.44" y1="9.63924" x2="38.0525" y2="9.63924" gradientUnits="userSpaceOnUse">
<stop stop-color="#FFE7CA"/>
<stop offset="1" stop-color="#FFE7CA" stop-opacity="0"/>
</linearGradient>
</defs>
</svg>
