<svg width="36" height="36" viewBox="0 0 36 36" fill="none" xmlns="http://www.w3.org/2000/svg">
<path d="M36 18C36 27.9411 27.9411 36 18 36C8.05887 36 0 27.9411 0 18C0 8.05887 8.05887 0 18 0C27.9411 0 36 8.05887 36 18Z" fill="#FF7500"/>
<path fill-rule="evenodd" clip-rule="evenodd" d="M25.1984 10.7581C23.1187 10.7033 21.9815 10.8996 21.4287 11.4512C20.7112 12.2757 20.9076 14.3925 20.9203 15.4177C22.0005 15.4191 24.37 15.3917 25.0179 15.3931C24.7597 16.9165 24.4191 18.9033 24.3637 19.2383C23.133 19.2426 21.9862 19.234 20.9203 19.2383C20.925 21.1414 20.9393 27.7127 20.9203 28.8C20.594 28.8 16.4632 28.7971 16.3143 28.8C16.3143 28.478 16.3428 19.6368 16.3428 19.2383C15.4225 19.2383 13.6089 19.2383 12.6 19.2383C12.6048 18.743 12.6 16.7461 12.6 15.3643C12.9896 15.3614 16.1654 15.3643 16.3444 15.3643C16.3444 13.002 15.9215 10.1315 18.0677 8.42186C19.5027 7.27827 21.8532 6.87253 25.1921 7.48331C25.1921 8.40598 25.1984 10.078 25.2 10.7596L25.1984 10.7581Z" fill="white"/>
</svg>
