<svg width="22" height="22" viewBox="0 0 22 22" fill="none" xmlns="http://www.w3.org/2000/svg">
<path d="M22 11C22 17.0751 17.0751 22 11 22C4.92487 22 0 17.0751 0 11C0 4.92487 4.92487 0 11 0C17.0751 0 22 4.92487 22 11Z" fill="#FF7500"/>
<path fill-rule="evenodd" clip-rule="evenodd" d="M15.399 6.57441C14.1281 6.54088 13.4331 6.66089 13.0953 6.99797C12.6568 7.50182 12.7769 8.79541 12.7846 9.42192C13.4448 9.4228 14.8928 9.40604 15.2887 9.40692C15.1309 10.3379 14.9228 11.552 14.8889 11.7567C14.1368 11.7594 13.436 11.7541 12.7846 11.7567C12.7875 12.9198 12.7962 16.9356 12.7846 17.6C12.5852 17.6 10.0608 17.5982 9.96983 17.6C9.96983 17.4032 9.98725 12.0003 9.98725 11.7567C9.42488 11.7567 8.31658 11.7567 7.7 11.7567C7.7029 11.4541 7.7 10.2337 7.7 9.38927C7.93811 9.3875 9.87884 9.38927 9.98822 9.38927C9.98822 7.94566 9.72978 6.19145 11.0413 5.14669C11.9183 4.44783 13.3547 4.19988 15.3952 4.57313C15.3952 5.13699 15.399 6.1588 15.4 6.5753L15.399 6.57441Z" fill="white"/>
</svg>
