<svg width="34" height="36" viewBox="0 0 34 36" fill="none" xmlns="http://www.w3.org/2000/svg">
<path d="M34 18C34 27.9411 26.3888 36 17 36C7.61116 36 0 27.9411 0 18C0 8.05887 7.61116 0 17 0C26.3888 0 34 8.05887 34 18Z" fill="#FF7500"/>
<path fill-rule="evenodd" clip-rule="evenodd" d="M8.64831 13.2029C8.8232 11.0503 10.3038 9.30243 12.5863 9.12827C13.5764 9.122 20.1629 9.122 21.5591 9.122C23.5896 9.19731 25.3251 11.1397 25.38 13.2264C25.42 14.6683 25.3681 21.4211 25.3651 22.943C25.3266 24.4979 23.8445 26.5156 21.7695 26.8325C20.5957 26.8608 12.7449 26.9172 12.1239 26.8215C9.33305 26.0669 8.7402 23.9597 8.65572 22.8395C8.57124 22.2574 8.63497 14.4565 8.64831 13.2029ZM6.80604 23.0811C6.9172 26.1124 9.49905 28.7121 12.5018 28.8L21.8673 28.7812C24.8167 28.6211 27.1896 25.6589 27.197 22.885L27.2 13.1433C27.1422 9.92688 24.4344 7.3271 22.0437 7.22825L12.2765 7.20001C9.75397 7.19374 7.04466 9.70409 6.84013 12.6616C6.78232 14.4628 6.80307 21.269 6.80604 23.0811ZM13.6119 18.0008C13.6386 15.9894 15.1444 14.3906 17.0756 14.4173C18.9342 14.4439 20.4356 16.1133 20.3986 18.0871C20.363 20.0106 18.9001 21.5639 17.0727 21.6016C15.18 21.6408 13.5852 20.0091 13.6119 18.0008ZM11.7726 17.9977C11.7697 21.0822 14.144 23.5926 17.0742 23.5392C19.9317 23.4875 22.223 21.0838 22.2319 18.04C22.2408 15.026 19.908 12.5298 17.0786 12.4765C14.1544 12.4859 11.7845 14.9491 11.7726 17.9977ZM21.2226 12.307C21.2567 12.9973 21.7725 13.5575 22.4394 13.5512C23.1212 13.5449 23.6518 12.9958 23.6681 12.3007C23.6844 11.5806 23.1434 10.9514 22.4483 10.9624C21.771 10.9749 21.1856 11.5743 21.2226 12.307Z" fill="white"/>
</svg>
