<svg width="22" height="22" viewBox="0 0 22 22" fill="none" xmlns="http://www.w3.org/2000/svg">
<path d="M22 11C22 17.0751 17.0751 22 11 22C4.92487 22 0 17.0751 0 11C0 4.92487 4.92487 0 11 0C17.0751 0 22 4.92487 22 11Z" fill="#FF7500"/>
<path fill-rule="evenodd" clip-rule="evenodd" d="M5.59597 8.06843C5.70913 6.75294 6.66719 5.68482 8.14408 5.57839C8.7847 5.57455 13.0466 5.57455 13.95 5.57455C15.2638 5.62058 16.3868 6.80759 16.4223 8.08281C16.4482 8.96396 16.4147 13.0907 16.4127 14.0207C16.3878 14.9709 15.4288 16.204 14.0862 16.3976C13.3266 16.4149 8.24669 16.4494 7.84486 16.3909C6.03903 15.9297 5.65543 14.6421 5.60076 13.9575C5.5461 13.6017 5.58733 8.83452 5.59597 8.06843ZM4.40391 14.1051C4.47583 15.9576 6.14644 17.5463 8.08941 17.6L14.1495 17.5885C16.0579 17.4907 17.5933 15.6805 17.5981 13.9853L17.6 8.03199C17.5626 6.06643 15.8105 4.47767 14.2636 4.41727L7.94364 4.40001C6.31139 4.39617 4.55831 5.93027 4.42596 7.73764C4.38856 8.83836 4.40199 12.9977 4.40391 14.1051ZM8.80772 11.0005C8.82498 9.77128 9.79934 8.79425 11.0489 8.81055C12.2516 8.82685 13.223 9.84703 13.1991 11.0532C13.176 12.2287 12.2295 13.1779 11.047 13.201C9.82236 13.2249 8.79046 12.2278 8.80772 11.0005ZM7.61758 10.9986C7.61566 12.8836 9.15201 14.4177 11.048 14.3851C12.897 14.3535 14.3796 12.8846 14.3854 11.0245C14.3911 9.18257 12.8816 7.6571 11.0509 7.6245C9.15872 7.63025 7.62525 9.13559 7.61758 10.9986ZM13.7323 7.52095C13.7543 7.94283 14.0881 8.28512 14.5196 8.28129C14.9608 8.27745 15.3041 7.94187 15.3147 7.51711C15.3252 7.07702 14.9752 6.69253 14.5254 6.69924C14.0871 6.70691 13.7083 7.07318 13.7323 7.52095Z" fill="white"/>
</svg>
