<svg width="22" height="22" viewBox="0 0 22 22" fill="none" xmlns="http://www.w3.org/2000/svg">
<path d="M22 11C22 17.0751 17.0751 22 11 22C4.92487 22 0 17.0751 0 11C0 4.92487 4.92487 0 11 0C17.0751 0 22 4.92487 22 11Z" fill="#FF7500"/>
<path fill-rule="evenodd" clip-rule="evenodd" d="M9.41578 16.4991H11.6162L11.6024 13.0737C11.6016 11.948 11.7497 11.0383 12.9292 10.9996C14.1397 10.96 14.2551 11.9824 14.2551 13.0737L14.2439 16.4991H16.459C16.4401 14.9396 16.5064 13.344 16.4995 11.7802C16.4909 9.66728 15.0469 8.6104 12.9258 8.99683C12.3399 9.10958 11.8393 9.50031 11.6033 9.7981L11.599 8.93831L9.40199 8.94433L9.41578 16.4991ZM7.98731 16.4974L8.00369 8.93831H5.72056C5.72229 11.4316 5.72229 14.0325 5.72229 16.5L7.98818 16.4983L7.98731 16.4974ZM6.8535 8.19728C7.60133 8.19728 8.20701 7.59225 8.20701 6.84864C8.20701 6.10504 7.60133 5.5 6.8535 5.5C6.10567 5.5 5.5 6.10504 5.5 6.84864C5.5 7.59225 6.10567 8.19728 6.8535 8.19728Z" fill="white"/>
</svg>
