<svg width="34" height="36" viewBox="0 0 34 36" fill="none" xmlns="http://www.w3.org/2000/svg">
<path d="M34 18C34 27.9411 26.3888 36 17 36C7.61116 36 0 27.9411 0 18C0 8.05887 7.61116 0 17 0C26.3888 0 34 8.05887 34 18Z" fill="#FF7500"/>
<path fill-rule="evenodd" clip-rule="evenodd" d="M14.5517 26.9986H17.9523L17.931 21.3934C17.9297 19.5513 18.1587 18.0627 19.9815 17.9993C21.8522 17.9345 22.0307 19.6076 22.0307 21.3934L22.0134 26.9986H25.4366C25.4074 24.4467 25.5099 21.8356 25.4992 19.2767C25.4859 15.8192 23.2543 14.0897 19.9762 14.7221C19.0708 14.9066 18.2971 15.546 17.9323 16.0333L17.9257 14.6263L14.5304 14.6362L14.5517 26.9986ZM12.344 26.9958L12.3693 14.6263H8.84087C8.84353 18.7063 8.84354 22.9623 8.84354 27L12.3454 26.9972L12.344 26.9958ZM10.5918 13.4137C11.7475 13.4137 12.6836 12.4237 12.6836 11.2069C12.6836 9.99006 11.7475 9 10.5918 9C9.43604 9 8.5 9.99006 8.5 11.2069C8.5 12.4237 9.43604 13.4137 10.5918 13.4137Z" fill="white"/>
</svg>
