<svg width="18" height="14" viewBox="0 0 18 14" fill="none" xmlns="http://www.w3.org/2000/svg">
<path d="M8.22974 10.2169C8.22974 12.3073 6.38651 14 4.11127 14C1.83603 14 0 12.3073 0 10.2169C0 5.82531 3.68646 1.50396 4.91769 0.18571C5.13369 -0.0482981 5.48649 -0.0638986 5.7169 0.154509C5.9761 0.396318 5.9905 0.817533 5.7601 1.08274C5.10489 1.83157 3.85207 3.41502 2.98805 5.5679C2.80805 6.02032 3.13925 6.51173 3.59286 6.46493C3.76566 6.44153 3.93847 6.43373 4.11127 6.43373C6.38651 6.43373 8.22974 8.12639 8.22974 10.2169Z" fill="#FF7500"/>
<path d="M18 10.2169C18 12.3073 16.1568 14 13.8815 14C11.6063 14 9.76306 12.3073 9.76306 10.2169C9.76306 5.82531 13.4495 1.50396 14.6807 0.18571C14.8967 -0.0482981 15.2496 -0.0638986 15.48 0.154509C15.7392 0.396318 15.7536 0.817533 15.5232 1.08274C14.8679 1.83157 13.6151 3.41502 12.7511 5.5679C12.5711 6.02032 12.9023 6.51173 13.3559 6.46493C13.5287 6.44153 13.7015 6.43373 13.8743 6.43373C16.1496 6.43373 17.9928 8.12639 17.9928 10.2169H18Z" fill="#FF7500"/>
</svg>
