<svg width="22" height="18" viewBox="0 0 22 18" fill="none" xmlns="http://www.w3.org/2000/svg">
<path d="M18.0637 5.42204C18.287 5.25962 18.3364 4.94691 18.1739 4.72359C18.0115 4.50026 17.6988 4.45088 17.4755 4.6133L18.0637 5.42204ZM12.2226 9.05184L12.5166 9.45623L12.5167 9.45621L12.2226 9.05184ZM9.77678 9.05184L9.48269 9.45621L9.48273 9.45623L9.77678 9.05184ZM4.52384 4.6133C4.30052 4.45088 3.98781 4.50026 3.82539 4.72359C3.66297 4.94691 3.71235 5.25962 3.93567 5.42204L4.52384 4.6133ZM16 16.5H6V17.5H16V16.5ZM6 16.5C4.5698 16.5 3.4556 16.1627 2.70403 15.5059C1.96438 14.8595 1.5 13.8366 1.5 12.2941H0.5C0.5 14.0457 1.03562 15.3758 2.04597 16.2588C3.0444 17.1314 4.4302 17.5 6 17.5V16.5ZM1.5 12.2941V5.70588H0.5V12.2941H1.5ZM1.5 5.70588C1.5 4.16338 1.96438 3.14055 2.70403 2.49413C3.4556 1.8373 4.5698 1.5 6 1.5V0.5C4.4302 0.5 3.0444 0.868585 2.04597 1.74116C1.03562 2.62416 0.5 3.95427 0.5 5.70588H1.5ZM6 1.5H16V0.5H6V1.5ZM16 1.5C17.4302 1.5 18.5444 1.8373 19.296 2.49413C20.0356 3.14055 20.5 4.16338 20.5 5.70588H21.5C21.5 3.95427 20.9644 2.62416 19.954 1.74116C18.9556 0.868585 17.5698 0.5 16 0.5V1.5ZM20.5 5.70588V12.2941H21.5V5.70588H20.5ZM20.5 12.2941C20.5 13.8366 20.0356 14.8595 19.296 15.5059C18.5444 16.1627 17.4302 16.5 16 16.5V17.5C17.5698 17.5 18.9556 17.1314 19.954 16.2588C20.9644 15.3758 21.5 14.0457 21.5 12.2941H20.5ZM17.4755 4.6133L11.9285 8.64747L12.5167 9.45621L18.0637 5.42204L17.4755 4.6133ZM11.9285 8.64744C11.3835 9.04373 10.6158 9.04373 10.0708 8.64744L9.48273 9.45623C10.3783 10.1075 11.621 10.1075 12.5166 9.45623L11.9285 8.64744ZM10.0709 8.64747L4.52384 4.6133L3.93567 5.42204L9.48269 9.45621L10.0709 8.64747Z" fill="#FF7500"/>
</svg>
