<svg width="104" height="12" viewBox="0 0 104 12" fill="none" xmlns="http://www.w3.org/2000/svg">
<path d="M16.6955 11.7391C16.3478 11.7391 16.0535 11.6212 15.8128 11.3854C15.572 11.1495 15.4516 10.8652 15.4516 10.5324C15.4516 10.1996 15.574 9.91533 15.8188 9.67949C16.0635 9.44366 16.3558 9.32574 16.6955 9.32574C17.0352 9.32574 17.3255 9.44366 17.5662 9.67949C17.807 9.91533 17.9273 10.1996 17.9273 10.5324C17.9273 10.8652 17.807 11.1495 17.5662 11.3854C17.3255 11.6212 17.0352 11.7391 16.6955 11.7391Z" fill="#FF7500"/>
<path d="M16.1291 3.81021L13.8735 11.7426C13.8545 11.8105 13.7913 11.8577 13.7193 11.8577H11.6892C11.6172 11.8577 11.5547 11.8111 11.535 11.7433L10.2212 7.20374L8.90732 11.7433C8.88762 11.8111 8.82448 11.8577 8.75318 11.8577H6.72299C6.65102 11.8577 6.58787 11.8105 6.56886 11.7433L4.64459 5.00879C4.62219 4.9303 4.54139 4.87908 4.45991 4.89571C2.78279 5.23161 0.997042 4.37558 0.264408 2.78789C-0.420017 1.41106 0.347924 0.333535 1.1634 0.0708054C1.83152 -0.145364 2.47589 0.160599 2.94847 0.620874C3.49845 1.15631 3.69808 1.80415 4.05319 2.45532C4.49522 3.26746 5.47568 3.65324 6.34955 3.43241C6.43646 3.41046 6.52473 3.46101 6.54578 3.54615L7.79173 8.51739C7.81142 8.59587 7.92413 8.59787 7.94654 8.52005L9.3344 3.72441C9.35409 3.65656 9.41724 3.61 9.48853 3.61H10.9416C11.0136 3.61 11.076 3.65656 11.0957 3.72441L12.4836 8.52071C12.506 8.59853 12.6187 8.59654 12.6384 8.51805L13.8463 3.72973C13.864 3.65989 13.9285 3.61067 14.0018 3.61067H15.9743C16.0802 3.61067 16.1576 3.70977 16.1291 3.81021Z" fill="#FF7500"/>
<path d="M27.8471 11.9684C27.0716 11.9684 26.3705 11.8366 25.7437 11.5731C25.1275 11.3096 24.6388 10.9302 24.2776 10.4348C23.9164 9.93939 23.7305 9.35441 23.7199 8.67984H26.1102C26.142 9.13307 26.3014 9.49144 26.5882 9.75494C26.8857 10.0184 27.2894 10.1502 27.7993 10.1502C28.3199 10.1502 28.7289 10.029 29.0264 9.78656C29.3238 9.5336 29.4726 9.20685 29.4726 8.80632C29.4726 8.47958 29.3716 8.2108 29.1698 8C28.9679 7.7892 28.713 7.62582 28.4049 7.50988C28.1074 7.3834 27.6931 7.24638 27.1619 7.09881C26.4395 6.88801 25.8499 6.68248 25.3931 6.48221C24.9469 6.27141 24.5591 5.96047 24.2298 5.54941C23.9111 5.1278 23.7517 4.56917 23.7517 3.87352C23.7517 3.22003 23.9164 2.65086 24.2457 2.16601C24.5751 1.68116 25.0372 1.31225 25.6321 1.05929C26.227 0.795784 26.9069 0.664032 27.6718 0.664032C28.8192 0.664032 29.7488 0.943346 30.4605 1.50198C31.183 2.05007 31.5813 2.8195 31.6557 3.81028H29.2016C29.1804 3.43083 29.0157 3.11989 28.7076 2.87747C28.4102 2.62451 28.0118 2.49802 27.5125 2.49802C27.0769 2.49802 26.7263 2.6087 26.4608 2.83004C26.2058 3.05138 26.0783 3.37286 26.0783 3.79447C26.0783 4.08959 26.1739 4.33729 26.3651 4.53755C26.567 4.72727 26.8113 4.88538 27.0982 5.01186C27.3956 5.1278 27.81 5.26482 28.3411 5.42292C29.0635 5.63373 29.6532 5.84453 30.11 6.05534C30.5668 6.26614 30.9599 6.58235 31.2892 7.00395C31.6185 7.42556 31.7832 7.97892 31.7832 8.66403C31.7832 9.25428 31.6291 9.80237 31.3211 10.3083C31.013 10.8142 30.5615 11.22 29.9665 11.5257C29.3716 11.8208 28.6652 11.9684 27.8471 11.9684Z" fill="#FF7500"/>
<path d="M33.1437 7.44664C33.1437 6.56126 33.319 5.77602 33.6695 5.09091C34.0307 4.4058 34.5141 3.87879 35.1197 3.50988C35.7358 3.14097 36.4211 2.95652 37.1753 2.95652C37.834 2.95652 38.4077 3.08827 38.8964 3.35178C39.3957 3.61528 39.7941 3.9473 40.0915 4.34783V3.09881H42.3384V11.8577H40.0915V10.5771C39.8047 10.9881 39.4063 11.3307 38.8964 11.6047C38.397 11.8682 37.8181 12 37.1594 12C36.4157 12 35.7358 11.8103 35.1197 11.4308C34.5141 11.0514 34.0307 10.5191 33.6695 9.83399C33.319 9.13834 33.1437 8.34256 33.1437 7.44664ZM40.0915 7.47826C40.0915 6.94071 39.9853 6.48221 39.7728 6.10277C39.5603 5.71278 39.2735 5.41765 38.9123 5.21739C38.5511 5.00659 38.1633 4.90119 37.749 4.90119C37.3347 4.90119 36.9522 5.00132 36.6017 5.20158C36.2511 5.40184 35.9642 5.69697 35.7411 6.08696C35.5287 6.4664 35.4224 6.91963 35.4224 7.44664C35.4224 7.97365 35.5287 8.43742 35.7411 8.83794C35.9642 9.22793 36.2511 9.52833 36.6017 9.73913C36.9629 9.94993 37.3453 10.0553 37.749 10.0553C38.1633 10.0553 38.5511 9.9552 38.9123 9.75494C39.2735 9.54414 39.5603 9.24901 39.7728 8.86957C39.9853 8.47958 40.0915 8.01581 40.0915 7.47826Z" fill="#FF7500"/>
<path d="M46.7483 0.158103V11.8577H44.5173V0.158103H46.7483Z" fill="#FF7500"/>
<path d="M52.8726 12C52.0227 12 51.2578 11.8155 50.5779 11.4466C49.898 11.0672 49.3615 10.5349 48.9684 9.8498C48.586 9.16469 48.3947 8.37418 48.3947 7.47826C48.3947 6.58235 48.5913 5.79183 48.9843 5.10672C49.388 4.42161 49.9352 3.8946 50.6257 3.52569C51.3162 3.14624 52.0864 2.95652 52.9363 2.95652C53.7862 2.95652 54.5564 3.14624 55.247 3.52569C55.9375 3.8946 56.4793 4.42161 56.8724 5.10672C57.2761 5.79183 57.4779 6.58235 57.4779 7.47826C57.4779 8.37418 57.2708 9.16469 56.8564 9.8498C56.4527 10.5349 55.9003 11.0672 55.1992 11.4466C54.5086 11.8155 53.7331 12 52.8726 12ZM52.8726 10.0711C53.2763 10.0711 53.6534 9.97628 54.004 9.78656C54.3652 9.5863 54.652 9.29117 54.8645 8.90119C55.077 8.5112 55.1832 8.03689 55.1832 7.47826C55.1832 6.64559 54.9601 6.00791 54.5139 5.56522C54.0784 5.11199 53.5419 4.88538 52.9045 4.88538C52.267 4.88538 51.7305 5.11199 51.295 5.56522C50.87 6.00791 50.6576 6.64559 50.6576 7.47826C50.6576 8.31094 50.8647 8.95389 51.279 9.40711C51.704 9.8498 52.2352 10.0711 52.8726 10.0711Z" fill="#FF7500"/>
<path d="M64.0066 2.97233C65.0583 2.97233 65.9082 3.30435 66.5563 3.96838C67.2043 4.62187 67.5283 5.53887 67.5283 6.71937V11.8577H65.2974V7.01976C65.2974 6.32411 65.1221 5.79183 64.7715 5.42292C64.4209 5.04348 63.9428 4.85375 63.3373 4.85375C62.7211 4.85375 62.2324 5.04348 61.8712 5.42292C61.5207 5.79183 61.3454 6.32411 61.3454 7.01976V11.8577H59.1144V3.09881H61.3454V4.18972C61.6428 3.81028 62.02 3.51515 62.4768 3.30435C62.9442 3.083 63.4542 2.97233 64.0066 2.97233Z" fill="#FF7500"/>
<path d="M69.0762 7.44664C69.0762 6.56126 69.2515 5.77602 69.602 5.09091C69.9632 4.4058 70.4466 3.87879 71.0522 3.50988C71.6683 3.14097 72.3535 2.95652 73.1078 2.95652C73.7665 2.95652 74.3402 3.08827 74.8288 3.35178C75.3282 3.61528 75.7265 3.9473 76.024 4.34783V3.09881H78.2709V11.8577H76.024V10.5771C75.7372 10.9881 75.3388 11.3307 74.8288 11.6047C74.3295 11.8682 73.7505 12 73.0919 12C72.3482 12 71.6683 11.8103 71.0522 11.4308C70.4466 11.0514 69.9632 10.5191 69.602 9.83399C69.2515 9.13834 69.0762 8.34256 69.0762 7.44664ZM76.024 7.47826C76.024 6.94071 75.9178 6.48221 75.7053 6.10277C75.4928 5.71278 75.206 5.41765 74.8448 5.21739C74.4836 5.00659 74.0958 4.90119 73.6815 4.90119C73.2672 4.90119 72.8847 5.00132 72.5341 5.20158C72.1836 5.40184 71.8967 5.69697 71.6736 6.08696C71.4612 6.4664 71.3549 6.91963 71.3549 7.44664C71.3549 7.97365 71.4612 8.43742 71.6736 8.83794C71.8967 9.22793 72.1836 9.52833 72.5341 9.73913C72.8954 9.94993 73.2778 10.0553 73.6815 10.0553C74.0958 10.0553 74.4836 9.9552 74.8448 9.75494C75.206 9.54414 75.4928 9.24901 75.7053 8.86957C75.9178 8.47958 76.024 8.01581 76.024 7.47826Z" fill="#FF7500"/>
<path d="M91.4134 2.97233C92.497 2.97233 93.3681 3.30435 94.0268 3.96838C94.6961 4.62187 95.0307 5.53887 95.0307 6.71937V11.8577H92.7998V7.01976C92.7998 6.33465 92.6245 5.81291 92.2739 5.45455C91.9233 5.08564 91.4453 4.90119 90.8397 4.90119C90.2342 4.90119 89.7508 5.08564 89.3896 5.45455C89.039 5.81291 88.8637 6.33465 88.8637 7.01976V11.8577H86.6328V7.01976C86.6328 6.33465 86.4575 5.81291 86.1069 5.45455C85.7563 5.08564 85.2783 4.90119 84.6727 4.90119C84.0565 4.90119 83.5678 5.08564 83.2066 5.45455C82.8561 5.81291 82.6808 6.33465 82.6808 7.01976V11.8577H80.4498V3.09881H82.6808V4.1581C82.9676 3.7892 83.3341 3.49934 83.7803 3.28854C84.2371 3.07773 84.7365 2.97233 85.2783 2.97233C85.9688 2.97233 86.585 3.11989 87.1268 3.41502C87.6686 3.6996 88.0882 4.11067 88.3857 4.64822C88.6725 4.14229 89.0868 3.7365 89.6286 3.43083C90.181 3.12516 90.776 2.97233 91.4134 2.97233Z" fill="#FF7500"/>
<path d="M100.526 12C99.8037 12 99.1556 11.8735 98.582 11.6206C98.0083 11.357 97.5515 11.004 97.2115 10.5613C96.8822 10.1186 96.7016 9.62846 96.6697 9.09091H98.9166C98.9591 9.42819 99.1238 9.70751 99.4106 9.92885C99.7081 10.1502 100.075 10.2609 100.51 10.2609C100.935 10.2609 101.264 10.1765 101.498 10.0079C101.742 9.83926 101.865 9.62319 101.865 9.35968C101.865 9.0751 101.716 8.8643 101.418 8.72727C101.132 8.57971 100.669 8.42161 100.032 8.25296C99.3734 8.09486 98.8316 7.93149 98.4067 7.76285C97.9923 7.5942 97.6311 7.33597 97.3231 6.98814C97.0256 6.64032 96.8769 6.17128 96.8769 5.58103C96.8769 5.09618 97.015 4.65349 97.2912 4.25296C97.578 3.85244 97.9817 3.53623 98.5023 3.30435C99.0335 3.07246 99.6549 2.95652 100.367 2.95652C101.418 2.95652 102.258 3.22003 102.885 3.74704C103.511 4.2635 103.857 4.96443 103.92 5.8498H101.785C101.753 5.50198 101.604 5.22793 101.339 5.02767C101.084 4.81686 100.739 4.71146 100.303 4.71146C99.8993 4.71146 99.5859 4.78524 99.3628 4.93281C99.1503 5.08037 99.0441 5.2859 99.0441 5.54941C99.0441 5.84453 99.1928 6.07115 99.4903 6.22925C99.7877 6.37681 100.25 6.52964 100.877 6.68775C101.514 6.84585 102.04 7.00922 102.454 7.17787C102.869 7.34651 103.224 7.61001 103.522 7.96838C103.83 8.31621 103.989 8.77997 104 9.35968C104 9.86561 103.857 10.3188 103.57 10.7194C103.294 11.1199 102.89 11.4361 102.359 11.668C101.838 11.8893 101.227 12 100.526 12Z" fill="#FF7500"/>
</svg>
