<svg width="120" height="14" viewBox="0 0 120 14" fill="none" xmlns="http://www.w3.org/2000/svg">
<path d="M19.264 13.6957C18.8628 13.6957 18.5233 13.5581 18.2455 13.2829C17.9677 13.0078 17.8288 12.6761 17.8288 12.2878C17.8288 11.8996 17.97 11.5679 18.2524 11.2927C18.5349 11.0176 18.8721 10.88 19.264 10.88C19.656 10.88 19.9909 11.0176 20.2687 11.2927C20.5465 11.5679 20.6854 11.8996 20.6854 12.2878C20.6854 12.6761 20.5465 13.0078 20.2687 13.2829C19.9909 13.5581 19.656 13.6957 19.264 13.6957Z" fill="#FF7500"/>
<path d="M18.6105 4.44524L16.0079 13.6997C15.9859 13.7789 15.9131 13.834 15.83 13.834H13.4875C13.4044 13.834 13.3324 13.7797 13.3096 13.7005L11.7937 8.40436L10.2777 13.7005C10.255 13.7797 10.1821 13.834 10.0998 13.834H7.7573C7.67425 13.834 7.60139 13.7789 7.57946 13.7005L5.35915 5.84358C5.33329 5.75202 5.24006 5.69227 5.14605 5.71167C3.21092 6.10354 1.15043 5.10484 0.305086 3.25254C-0.484636 1.64623 0.401451 0.389124 1.34238 0.0826062C2.1133 -0.169592 2.8568 0.187365 3.40208 0.724353C4.03668 1.34903 4.26701 2.10485 4.67676 2.86454C5.18679 3.81203 6.3181 4.26211 7.3264 4.00448C7.42668 3.97887 7.52853 4.03785 7.55282 4.13717L8.99046 9.93695C9.01318 10.0285 9.14323 10.0308 9.16908 9.94005L10.7705 4.34514C10.7932 4.26599 10.866 4.21167 10.9483 4.21167H12.6249C12.7079 4.21167 12.78 4.26599 12.8027 4.34514L14.4041 9.94083C14.43 10.0316 14.56 10.0293 14.5828 9.93773L15.9765 4.35135C15.9969 4.26987 16.0713 4.21244 16.1559 4.21244H18.4319C18.5541 4.21244 18.6434 4.32807 18.6105 4.44524Z" fill="#FF7500"/>
<path d="M32.1313 13.9631C31.2365 13.9631 30.4275 13.8094 29.7042 13.502C28.9933 13.1946 28.4294 12.7519 28.0126 12.1739C27.5958 11.596 27.3813 10.9135 27.3691 10.1265H30.1271C30.1639 10.6552 30.3478 11.0733 30.6787 11.3808C31.022 11.6882 31.4878 11.8419 32.0762 11.8419C32.6768 11.8419 33.1487 11.7005 33.492 11.4177C33.8352 11.1225 34.0068 10.7413 34.0068 10.274C34.0068 9.89284 33.8903 9.57927 33.6574 9.33333C33.4245 9.0874 33.1303 8.89679 32.7749 8.76153C32.4316 8.61397 31.9536 8.45411 31.3407 8.28195C30.5071 8.03601 29.8268 7.79622 29.2997 7.56258C28.7849 7.31664 28.3375 6.95389 27.9575 6.47431C27.5897 5.98243 27.4058 5.3307 27.4058 4.5191C27.4058 3.7567 27.5958 3.09266 27.9758 2.52701C28.3558 1.96135 28.8891 1.53096 29.5755 1.23584C30.262 0.928414 31.0465 0.774703 31.9291 0.774703C33.2529 0.774703 34.3255 1.10057 35.1468 1.75231C35.9803 2.39174 36.44 3.28942 36.5258 4.44532H33.6942C33.6697 4.00263 33.4797 3.63988 33.1242 3.35705C32.781 3.06192 32.3213 2.91436 31.7452 2.91436C31.2426 2.91436 30.8381 3.04348 30.5316 3.30171C30.2375 3.55995 30.0904 3.935 30.0904 4.42688C30.0904 4.77119 30.2007 5.06017 30.4213 5.29381C30.6542 5.51515 30.9362 5.6996 31.2671 5.84717C31.6103 5.98243 32.0884 6.14229 32.7013 6.32675C33.5349 6.57268 34.2152 6.81862 34.7423 7.06456C35.2694 7.3105 35.7229 7.6794 36.1029 8.17128C36.4829 8.66315 36.6729 9.30874 36.6729 10.108C36.6729 10.7967 36.4952 11.4361 36.1397 12.0264C35.7842 12.6166 35.2632 13.09 34.5768 13.4466C33.8903 13.791 33.0752 13.9631 32.1313 13.9631Z" fill="#FF7500"/>
<path d="M38.2427 8.68775C38.2427 7.65481 38.445 6.73869 38.8495 5.93939C39.2662 5.1401 39.824 4.52525 40.5227 4.09486C41.2337 3.66447 42.0243 3.44927 42.8946 3.44927C43.6546 3.44927 44.3165 3.60299 44.8804 3.91041C45.4565 4.21783 45.9162 4.60518 46.2594 5.07246V3.61528H48.852V13.834H46.2594V12.3399C45.9285 12.8195 45.4688 13.2191 44.8804 13.5389C44.3043 13.8463 43.6362 14 42.8762 14C42.0182 14 41.2337 13.7787 40.5227 13.336C39.824 12.8933 39.2662 12.2723 38.8495 11.473C38.445 10.6614 38.2427 9.73298 38.2427 8.68775ZM46.2594 8.72464C46.2594 8.0975 46.1369 7.56258 45.8917 7.11989C45.6465 6.66491 45.3156 6.3206 44.8988 6.08696C44.482 5.84102 44.0346 5.71805 43.5565 5.71805C43.0785 5.71805 42.6372 5.83487 42.2327 6.06851C41.8282 6.30215 41.4972 6.64646 41.2398 7.10145C40.9946 7.54414 40.872 8.0729 40.872 8.68775C40.872 9.30259 40.9946 9.84365 41.2398 10.3109C41.4972 10.7659 41.8282 11.1164 42.2327 11.3623C42.6495 11.6083 43.0907 11.7312 43.5565 11.7312C44.0346 11.7312 44.482 11.6144 44.8988 11.3808C45.3156 11.1348 45.6465 10.7905 45.8917 10.3478C46.1369 9.89284 46.2594 9.35178 46.2594 8.72464Z" fill="#FF7500"/>
<path d="M53.9403 0.184453V13.834H51.3661V0.184453H53.9403Z" fill="#FF7500"/>
<path d="M61.0068 14C60.0262 14 59.1436 13.7848 58.3591 13.3544C57.5746 12.9117 56.9556 12.2907 56.502 11.4914C56.0607 10.6921 55.8401 9.76987 55.8401 8.72464C55.8401 7.6794 56.0669 6.75714 56.5204 5.95784C56.9862 5.15854 57.6175 4.5437 58.4143 4.11331C59.211 3.67062 60.0997 3.44927 61.0804 3.44927C62.061 3.44927 62.9497 3.67062 63.7465 4.11331C64.5433 4.5437 65.1684 5.15854 65.622 5.95784C66.0878 6.75714 66.3207 7.6794 66.3207 8.72464C66.3207 9.76987 66.0816 10.6921 65.6036 11.4914C65.1378 12.2907 64.5004 12.9117 63.6913 13.3544C62.8946 13.7848 61.9997 14 61.0068 14ZM61.0068 11.7497C61.4726 11.7497 61.9078 11.639 62.3123 11.4177C62.7291 11.184 63.0601 10.8397 63.3052 10.3847C63.5504 9.92973 63.673 9.37637 63.673 8.72464C63.673 7.75318 63.4155 7.00922 62.9007 6.49275C62.3981 5.96399 61.7791 5.6996 61.0436 5.6996C60.3081 5.6996 59.6891 5.96399 59.1865 6.49275C58.6962 7.00922 58.451 7.75318 58.451 8.72464C58.451 9.69609 58.6901 10.4462 59.1681 10.975C59.6585 11.4914 60.2714 11.7497 61.0068 11.7497Z" fill="#FF7500"/>
<path d="M73.8538 3.46772C75.0673 3.46772 76.0479 3.85507 76.7957 4.62978C77.5434 5.39218 77.9173 6.46201 77.9173 7.83926V13.834H75.3431V8.18972C75.3431 7.37813 75.1408 6.75714 74.7363 6.32675C74.3318 5.88406 73.7802 5.66271 73.0815 5.66271C72.3705 5.66271 71.8067 5.88406 71.3899 6.32675C70.9854 6.75714 70.7831 7.37813 70.7831 8.18972V13.834H68.2089V3.61528H70.7831V4.88801C71.1264 4.44532 71.5615 4.10101 72.0886 3.85507C72.628 3.59684 73.2163 3.46772 73.8538 3.46772Z" fill="#FF7500"/>
<path d="M79.7033 8.68775C79.7033 7.65481 79.9055 6.73869 80.31 5.93939C80.7268 5.1401 81.2846 4.52525 81.9833 4.09486C82.6942 3.66447 83.4849 3.44927 84.3552 3.44927C85.1152 3.44927 85.7771 3.60299 86.341 3.91041C86.9171 4.21783 87.3768 4.60518 87.72 5.07246V3.61528H90.3126V13.834H87.72V12.3399C87.389 12.8195 86.9294 13.2191 86.341 13.5389C85.7649 13.8463 85.0968 14 84.3368 14C83.4787 14 82.6942 13.7787 81.9833 13.336C81.2846 12.8933 80.7268 12.2723 80.31 11.473C79.9055 10.6614 79.7033 9.73298 79.7033 8.68775ZM87.72 8.72464C87.72 8.0975 87.5974 7.56258 87.3523 7.11989C87.1071 6.66491 86.7761 6.3206 86.3594 6.08696C85.9426 5.84102 85.4952 5.71805 85.0171 5.71805C84.5391 5.71805 84.0978 5.83487 83.6933 6.06851C83.2887 6.30215 82.9578 6.64646 82.7004 7.10145C82.4552 7.54414 82.3326 8.0729 82.3326 8.68775C82.3326 9.30259 82.4552 9.84365 82.7004 10.3109C82.9578 10.7659 83.2887 11.1164 83.6933 11.3623C84.11 11.6083 84.5513 11.7312 85.0171 11.7312C85.4952 11.7312 85.9426 11.6144 86.3594 11.3808C86.7761 11.1348 87.1071 10.7905 87.3523 10.3478C87.5974 9.89284 87.72 9.35178 87.72 8.72464Z" fill="#FF7500"/>
<path d="M105.477 3.46772C106.727 3.46772 107.732 3.85507 108.492 4.62978C109.265 5.39218 109.651 6.46201 109.651 7.83926V13.834H107.077V8.18972C107.077 7.39043 106.874 6.78173 106.47 6.36364C106.065 5.93324 105.514 5.71805 104.815 5.71805C104.116 5.71805 103.559 5.93324 103.142 6.36364C102.737 6.78173 102.535 7.39043 102.535 8.18972V13.834H99.9609V8.18972C99.9609 7.39043 99.7586 6.78173 99.3541 6.36364C98.9496 5.93324 98.398 5.71805 97.6993 5.71805C96.9883 5.71805 96.4244 5.93324 96.0077 6.36364C95.6032 6.78173 95.4009 7.39043 95.4009 8.18972V13.834H92.8267V3.61528H95.4009V4.85112C95.7319 4.42073 96.1548 4.08256 96.6696 3.83663C97.1967 3.59069 97.7728 3.46772 98.398 3.46772C99.1948 3.46772 99.9057 3.63988 100.531 3.98419C101.156 4.3162 101.64 4.79578 101.983 5.42292C102.314 4.83267 102.792 4.35924 103.418 4.00263C104.055 3.64602 104.742 3.46772 105.477 3.46772Z" fill="#FF7500"/>
<path d="M115.992 14C115.158 14 114.41 13.8524 113.748 13.5573C113.086 13.2499 112.559 12.8379 112.167 12.3215C111.787 11.805 111.579 11.2332 111.542 10.6061H114.135C114.184 10.9996 114.374 11.3254 114.705 11.5837C115.048 11.8419 115.471 11.971 115.973 11.971C116.464 11.971 116.844 11.8726 117.113 11.6759C117.395 11.4791 117.536 11.2271 117.536 10.9196C117.536 10.5876 117.365 10.3417 117.021 10.1818C116.69 10.0097 116.157 9.82521 115.422 9.62846C114.662 9.444 114.036 9.2534 113.546 9.05665C113.068 8.8599 112.651 8.55863 112.296 8.15283C111.953 7.74704 111.781 7.19982 111.781 6.5112C111.781 5.94554 111.94 5.42907 112.259 4.96179C112.59 4.49451 113.056 4.1256 113.656 3.85507C114.269 3.58454 114.986 3.44927 115.808 3.44927C117.021 3.44927 117.99 3.7567 118.713 4.37154C119.436 4.97409 119.835 5.79183 119.908 6.82477H117.444C117.407 6.41897 117.236 6.09925 116.929 5.86561C116.635 5.61967 116.237 5.49671 115.734 5.49671C115.268 5.49671 114.907 5.58278 114.649 5.75494C114.404 5.9271 114.282 6.16689 114.282 6.47431C114.282 6.81862 114.453 7.083 114.796 7.26746C115.14 7.43961 115.673 7.61792 116.396 7.80237C117.132 7.98682 117.738 8.17743 118.216 8.37418C118.695 8.57093 119.105 8.87835 119.448 9.29644C119.804 9.70224 119.988 10.2433 120 10.9196C120 11.5099 119.835 12.0386 119.504 12.5059C119.185 12.9732 118.719 13.3421 118.106 13.6126C117.505 13.8709 116.801 14 115.992 14Z" fill="#FF7500"/>
</svg>
