<svg width="26" height="24" viewBox="0 0 26 24" fill="none" xmlns="http://www.w3.org/2000/svg">
<path d="M14.6503 1.2023L16.4113 6.63286C16.6441 7.34997 17.311 7.83559 18.0629 7.83559H23.761C25.4421 7.83559 26.142 9.99215 24.7805 10.9825L20.1713 14.3383C19.5634 14.7822 19.3081 15.5672 19.5409 16.2843L21.3019 21.7149C21.8211 23.3179 19.9907 24.6512 18.6308 23.6591L14.0217 20.3033C13.4138 19.8594 12.5889 19.8594 11.9793 20.3033L7.37013 23.6591C6.0103 24.6495 4.17983 23.3162 4.6991 21.7149L6.4601 16.2843C6.69282 15.5672 6.43753 14.7822 5.82968 14.3383L1.21877 10.9825C-0.141064 9.99215 0.557086 7.83559 2.2382 7.83559H7.93629C8.68828 7.83559 9.35517 7.34997 9.58788 6.63286L11.3489 1.2023C11.8682 -0.400765 14.1311 -0.400765 14.6503 1.2023Z" fill="#FFEFE1"/>
</svg>
