<svg width="22" height="22" viewBox="0 0 22 22" fill="none" xmlns="http://www.w3.org/2000/svg">
<path d="M22 11C22 17.0751 17.0751 22 11 22C4.92487 22 0 17.0751 0 11C0 4.92487 4.92487 0 11 0C17.0751 0 22 4.92487 22 11Z" fill="#FF7500"/>
<path fill-rule="evenodd" clip-rule="evenodd" d="M11.4631 13.1062C11.4776 15.0968 9.7367 15.9527 8.55006 15.1129C6.81093 13.8806 7.81158 11.1081 9.95171 11.4105V9.32042C7.56573 9.30241 5.49728 10.5906 5.5 13.3498C5.50091 14.7735 6.07427 15.8361 7.0586 16.7565C8.52466 17.9281 10.5586 17.8399 11.9594 16.7356C13.0408 15.8835 13.5588 14.6048 13.5525 13.2001C13.5506 12.7451 13.5125 9.30336 13.5624 8.68629C13.9752 8.89198 15.1346 9.95739 16.5 9.7318C16.5 9.65691 16.5 7.72988 16.5 7.48628C14.3826 7.46922 13.7094 6.4057 13.4817 4.4H11.4786L11.4631 13.1062Z" fill="white"/>
</svg>
