<svg width="35" height="36" viewBox="0 0 35 36" fill="none" xmlns="http://www.w3.org/2000/svg">
<path d="M35 18C35 27.9411 27.165 36 17.5 36C7.83502 36 0 27.9411 0 18C0 8.05887 7.83502 0 17.5 0C27.165 0 35 8.05887 35 18Z" fill="#FF7500"/>
<path fill-rule="evenodd" clip-rule="evenodd" d="M18.2368 21.4466C18.2599 24.7038 15.4902 26.1044 13.6024 24.7302C10.8356 22.7138 12.4275 18.1769 15.8323 18.6717V15.2516C12.0364 15.2221 8.74568 17.33 8.75 21.8452C8.75145 24.1749 9.66361 25.9136 11.2296 27.4197C13.562 29.3368 16.7978 29.1926 19.0263 27.3856C20.7467 25.9912 21.5708 23.8988 21.5607 21.6001C21.5578 20.8556 21.4972 15.2237 21.5766 14.2139C22.2333 14.5505 24.0778 16.2939 26.25 15.9248C26.25 15.8022 26.25 12.6489 26.25 12.2503C22.8813 12.2224 21.8104 10.4821 21.4481 7.2H18.2613L18.2368 21.4466Z" fill="white"/>
</svg>
