<svg width="18" height="14" viewBox="0 0 18 14" fill="none" xmlns="http://www.w3.org/2000/svg">
<path d="M9.7705 3.78313C9.7705 1.69266 11.6137 0 13.8816 0C16.1496 0 18 1.69266 18 3.78313C18 8.17469 14.3136 12.496 13.0825 13.8143C12.8665 14.0483 12.5137 14.0639 12.2833 13.8455C12.0241 13.6037 12.0097 13.1825 12.2401 12.9173C12.8953 12.1684 14.148 10.585 15.012 8.4321C15.192 7.97968 14.8608 7.48827 14.4072 7.53507C14.2344 7.55847 14.0616 7.56627 13.8889 7.56627C11.6137 7.56627 9.7705 5.87361 9.7705 3.78313Z" fill="#FF7500"/>
<path d="M0 3.78313C0 1.69266 1.84318 0 4.11835 0C6.39352 0 8.2367 1.69266 8.2367 3.78313C8.2367 8.17469 4.55034 12.496 3.31916 13.8143C3.10316 14.0483 2.75037 14.0639 2.51997 13.8455C2.26077 13.6037 2.24637 13.1825 2.47677 12.9173C3.13196 12.1684 4.38475 10.585 5.24873 8.4321C5.42873 7.97968 5.09754 7.48827 4.64394 7.53507C4.47114 7.55847 4.29835 7.56627 4.12555 7.56627C1.85038 7.56627 0.0071987 5.87361 0.0071987 3.78313H0Z" fill="#FF7500"/>
</svg>
