<svg width="60" height="37" viewBox="0 0 60 37" fill="none" xmlns="http://www.w3.org/2000/svg">
<path d="M53.1684 11.8283L45.733 36.4536C45.6703 36.6642 45.4621 36.8108 45.2249 36.8108H38.5325C38.2952 36.8108 38.0893 36.6663 38.0244 36.4556L33.6934 22.3631L29.3624 36.4556C29.2975 36.6663 29.0893 36.8108 28.8543 36.8108H22.1619C21.9246 36.8108 21.7165 36.6642 21.6538 36.4556L15.3106 15.5492C15.2367 15.3055 14.9704 15.1465 14.7018 15.1981C9.1733 16.2409 3.28668 13.5834 0.871603 8.65467C-1.38456 4.38045 1.14691 1.03542 3.83505 0.219807C6.0375 -0.451266 8.1616 0.49856 9.71943 1.92743C11.5324 3.58962 12.1905 5.60077 13.3611 7.62225C14.8182 10.1434 18.0502 11.341 20.9309 10.6555C21.2174 10.5874 21.5083 10.7443 21.5777 11.0086L25.6849 26.4412C25.7498 26.6848 26.1214 26.691 26.1952 26.4494L30.7702 11.562C30.8351 11.3513 31.0433 11.2068 31.2783 11.2068H36.0682C36.3054 11.2068 36.5113 11.3513 36.5763 11.562L41.1513 26.4515C41.2251 26.6931 41.5967 26.6869 41.6616 26.4432L45.6434 11.5785C45.7016 11.3617 45.9143 11.2089 46.156 11.2089H52.6581C53.0073 11.2089 53.2625 11.5165 53.1684 11.8283Z" fill="#FFECDC"/>
<path d="M55.8771 37C54.7132 37 53.7284 36.6283 52.9226 35.885C52.1169 35.1416 51.714 34.2455 51.714 33.1966C51.714 32.1476 52.1236 31.2515 52.9428 30.5081C53.762 29.7648 54.7401 29.3931 55.8771 29.3931C57.0142 29.3931 57.9856 29.7648 58.7913 30.5081C59.5971 31.2515 60 32.1476 60 33.1966C60 34.2455 59.5971 35.1416 58.7913 35.885C57.9856 36.6283 57.0142 37 55.8771 37Z" fill="#FFECDC"/>
</svg>
