<svg width="13" height="9" viewBox="0 0 13 9" fill="none" xmlns="http://www.w3.org/2000/svg">
<path d="M11.5198 3.05748L9.90881 8.38186C9.89523 8.42739 9.85013 8.45909 9.79872 8.45909H8.34871C8.2973 8.45909 8.25269 8.42784 8.23862 8.3823L7.30023 5.33527L6.36185 8.3823C6.34778 8.42784 6.30268 8.45909 6.25176 8.45909H4.80174C4.75034 8.45909 4.70524 8.42739 4.69166 8.3823L3.3173 3.86198C3.30129 3.8093 3.24358 3.77492 3.18539 3.78608C1.98755 4.01154 0.712114 3.43696 0.188847 2.37128C-0.299988 1.44713 0.248497 0.723874 0.830928 0.547526C1.30812 0.402429 1.76835 0.607797 2.10588 0.916741C2.49869 1.27613 2.64127 1.71098 2.8949 2.14805C3.2106 2.69317 3.91088 2.95211 4.53502 2.80389C4.59709 2.78916 4.66014 2.82309 4.67517 2.88023L5.56506 6.21701C5.57913 6.26969 5.65963 6.27103 5.67563 6.2188L6.66688 2.99988C6.68095 2.95435 6.72605 2.92309 6.77697 2.92309H7.81477C7.86618 2.92309 7.91079 2.95435 7.92486 2.99988L8.91611 6.21924C8.93211 6.27148 9.01261 6.27014 9.02668 6.21746L9.88941 3.00345C9.90202 2.95658 9.94809 2.92354 10.0005 2.92354H11.4093C11.4849 2.92354 11.5402 2.99006 11.5198 3.05748Z" fill="#3F1E11"/>
<path d="M12.1067 8.5C11.8545 8.5 11.6412 8.41964 11.4666 8.25892C11.292 8.09819 11.2047 7.90443 11.2047 7.67764C11.2047 7.45084 11.2934 7.25708 11.4709 7.09636C11.6484 6.93563 11.8604 6.85527 12.1067 6.85527C12.3531 6.85527 12.5635 6.93563 12.7381 7.09636C12.9127 7.25708 13 7.45084 13 7.67764C13 7.90443 12.9127 8.09819 12.7381 8.25892C12.5635 8.41964 12.3531 8.5 12.1067 8.5Z" fill="#FF7500"/>
</svg>
