<svg width="94" height="32" viewBox="0 0 94 32" fill="none" xmlns="http://www.w3.org/2000/svg">
<path d="M48.6717 32C46.3963 32 44.4592 31.1993 42.8603 29.6022C41.2614 28.003 40.4619 26.0421 40.4619 23.7237C40.4619 21.4054 41.2614 19.4424 42.8603 17.8453C44.4592 16.2461 46.3963 15.4454 48.6717 15.4454C50.9471 15.4454 52.9088 16.2461 54.4995 17.8453C56.0882 19.4445 56.8815 21.4033 56.8815 23.7237C56.8815 26.0442 56.0861 28.003 54.4995 29.6022C52.9108 31.2014 50.9676 32 48.6717 32ZM48.6717 26.9828C49.5736 26.9828 50.3157 26.6797 50.902 26.0735C51.4862 25.4672 51.7773 24.6833 51.7773 23.7217C51.7773 22.76 51.4862 21.9761 50.902 21.3699C50.3177 20.7636 49.5736 20.4605 48.6717 20.4605C47.7697 20.4605 47.0564 20.7636 46.4722 21.3699C45.888 21.9761 45.5969 22.76 45.5969 23.7217C45.5969 24.6833 45.89 25.4672 46.4722 26.0735C47.0564 26.6797 47.7882 26.9828 48.6717 26.9828Z" fill="#3F1E11"/>
<path d="M67.0071 32C64.7318 32 62.7946 31.1993 61.1957 29.6022C59.5968 28.003 58.7974 26.0421 58.7974 23.7237C58.7974 21.4054 59.5968 19.4424 61.1957 17.8453C62.7946 16.2461 64.7318 15.4454 67.0071 15.4454C69.2825 15.4454 71.2442 16.2461 72.8349 17.8453C74.4236 19.4445 75.2169 21.4033 75.2169 23.7237C75.2169 26.0442 74.4215 28.003 72.8349 29.6022C71.2463 31.2014 69.303 32 67.0071 32ZM67.0071 26.9828C67.9091 26.9828 68.6511 26.6797 69.2374 26.0735C69.8216 25.4672 70.1127 24.6833 70.1127 23.7217C70.1127 22.76 69.8216 21.9761 69.2374 21.3699C68.6532 20.7636 67.9091 20.4605 67.0071 20.4605C66.1052 20.4605 65.3918 20.7636 64.8076 21.3699C64.2234 21.9761 63.9323 22.76 63.9323 23.7217C63.9323 24.6833 64.2254 25.4672 64.8076 26.0735C65.3918 26.6797 66.1236 26.9828 67.0071 26.9828Z" fill="#3F1E11"/>
<path d="M86.5562 13.9687C84.8917 13.8496 84.0123 14.4119 83.92 15.6536C83.9118 15.7749 84.0061 15.8815 84.125 15.8815H86.1462C86.3717 15.8815 86.5562 16.0697 86.5562 16.2996V20.4492C86.5562 20.6792 86.3717 20.8673 86.1462 20.8673H84.1168C84.0041 20.8673 83.9118 20.9614 83.9118 21.0764V31.5602H78.8076V21.0764C78.8076 20.9614 78.7154 20.8673 78.6027 20.8673H77.2805C77.055 20.8673 76.8705 20.6792 76.8705 20.4492V16.2996C76.8705 16.0697 77.055 15.8815 77.2805 15.8815H78.6068C78.7195 15.8815 78.8077 15.7895 78.8097 15.6745C78.8486 13.5172 79.4985 11.8615 80.7612 10.7075C82.0629 9.51596 83.9938 8.99334 86.5562 9.13968V13.9687Z" fill="#3F1E11"/>
<path d="M41.2397 10.1412L35.4714 31.2551C35.4222 31.4349 35.2602 31.5603 35.0757 31.5603H29.8854C29.703 31.5603 29.5411 31.437 29.4919 31.2572L26.1321 19.1742L22.7724 31.2572C22.7232 31.437 22.5612 31.5603 22.3788 31.5603H17.1885C17.004 31.5603 16.8441 31.4349 16.7929 31.2551L11.8732 13.3292C11.8158 13.1201 11.6108 12.9842 11.3996 13.0281C7.11334 13.9229 2.54621 11.6442 0.672624 7.41936C-1.07182 3.75473 0.891961 0.886576 2.97669 0.188352C4.68424 -0.386533 6.33234 0.426668 7.53972 1.6517C8.94593 3.07741 9.45636 4.80206 10.3645 6.53508C11.4939 8.69665 14.003 9.72308 16.2353 9.13565C16.4567 9.07712 16.6822 9.21091 16.7375 9.43877L19.923 22.6716C19.9722 22.8806 20.2613 22.8848 20.3187 22.6778L23.867 9.91331C23.9162 9.73353 24.0781 9.61019 24.2606 9.61019H27.977C28.1594 9.61019 28.3214 9.73353 28.3706 9.91331L31.9189 22.6799C31.9763 22.8869 32.2654 22.8806 32.3146 22.6737L35.4037 9.92795C35.4488 9.74189 35.6128 9.61019 35.8014 9.61019H40.8441C41.1147 9.61019 41.3115 9.87359 41.2397 10.1412Z" fill="#3F1E11"/>
<path d="M90.8022 32C89.9002 32 89.1356 31.6802 88.5125 31.0426C87.8873 30.405 87.5736 29.6377 87.5736 28.7388C87.5736 27.8399 87.8914 27.0727 88.5268 26.433C89.1623 25.7954 89.9207 25.4756 90.8022 25.4756C91.6836 25.4756 92.4359 25.7954 93.0612 26.433C93.6864 27.0706 94 27.8399 94 28.7388C94 29.6377 93.6864 30.407 93.0612 31.0426C92.4359 31.6802 91.6816 32 90.8022 32Z" fill="#FF7500"/>
</svg>
