<svg width="88" height="30" viewBox="0 0 88 30" fill="none" xmlns="http://www.w3.org/2000/svg">
<path d="M45.565 30C43.4349 30 41.6214 29.2494 40.1245 27.7521C38.6277 26.2528 37.8793 24.4145 37.8793 22.241C37.8793 20.0676 38.6277 18.2273 40.1245 16.73C41.6214 15.2307 43.4349 14.4801 45.565 14.4801C47.6951 14.4801 49.5316 15.2307 51.0208 16.73C52.5081 18.2292 53.2507 20.0656 53.2507 22.241C53.2507 24.4164 52.5061 26.2528 51.0208 27.7521C49.5336 29.2513 47.7143 30 45.565 30ZM45.565 25.2964C46.4094 25.2964 47.1041 25.0122 47.6529 24.4439C48.1998 23.8755 48.4723 23.1406 48.4723 22.2391C48.4723 21.3375 48.1998 20.6026 47.6529 20.0342C47.106 19.4659 46.4094 19.1817 45.565 19.1817C44.7206 19.1817 44.0528 19.4659 43.5059 20.0342C42.9589 20.6026 42.6864 21.3375 42.6864 22.2391C42.6864 23.1406 42.9609 23.8755 43.5059 24.4439C44.0528 25.0122 44.7379 25.2964 45.565 25.2964Z" fill="#3F1E11"/>
<path d="M62.7301 30C60.6 30 58.7865 29.2494 57.2896 27.7521C55.7928 26.2528 55.0443 24.4145 55.0443 22.241C55.0443 20.0676 55.7928 18.2273 57.2896 16.73C58.7865 15.2307 60.6 14.4801 62.7301 14.4801C64.8602 14.4801 66.6967 15.2307 68.1859 16.73C69.6731 18.2292 70.4158 20.0656 70.4158 22.241C70.4158 24.4164 69.6712 26.2528 68.1859 27.7521C66.6986 29.2513 64.8794 30 62.7301 30ZM62.7301 25.2964C63.5745 25.2964 64.2691 25.0122 64.818 24.4439C65.3649 23.8755 65.6374 23.1406 65.6374 22.2391C65.6374 21.3375 65.3649 20.6026 64.818 20.0342C64.2711 19.4659 63.5745 19.1817 62.7301 19.1817C61.8857 19.1817 61.2179 19.4659 60.671 20.0342C60.124 20.6026 59.8515 21.3375 59.8515 22.2391C59.8515 23.1406 60.1259 23.8755 60.671 24.4439C61.2179 25.0122 61.903 25.2964 62.7301 25.2964Z" fill="#3F1E11"/>
<path d="M81.0313 13.0957C79.4731 12.984 78.6498 13.5111 78.5634 14.6753C78.5558 14.789 78.644 14.8889 78.7553 14.8889H80.6475C80.8586 14.8889 81.0313 15.0653 81.0313 15.2809V19.1712C81.0313 19.3867 80.8586 19.5631 80.6475 19.5631H78.7477C78.6421 19.5631 78.5558 19.6513 78.5558 19.7591V29.5877H73.7774V19.7591C73.7774 19.6513 73.691 19.5631 73.5855 19.5631H72.3477C72.1366 19.5631 71.9639 19.3867 71.9639 19.1712V15.2809C71.9639 15.0653 72.1366 14.8889 72.3477 14.8889H73.5893C73.6949 14.8889 73.7774 14.8027 73.7793 14.6949C73.8158 12.6723 74.4241 11.1202 75.6062 10.0383C76.8248 8.92122 78.6325 8.43126 81.0313 8.56845V13.0957Z" fill="#3F1E11"/>
<path d="M38.6074 9.50735L33.2072 29.3017C33.1612 29.4702 33.0096 29.5878 32.8369 29.5878H27.9779C27.8071 29.5878 27.6555 29.4722 27.6094 29.3036L24.4641 17.9758L21.3188 29.3036C21.2728 29.4722 21.1212 29.5878 20.9504 29.5878H16.0914C15.9186 29.5878 15.769 29.4702 15.721 29.3017L11.1153 12.4961C11.0616 12.3001 10.8697 12.1727 10.672 12.2139C6.6593 13.0527 2.38369 10.9165 0.62969 6.95565C-1.00341 3.52006 0.835027 0.831165 2.78669 0.17658C4.38524 -0.362375 5.92815 0.400001 7.05846 1.54846C8.37492 2.88507 8.85276 4.50194 9.70289 6.12664C10.7603 8.15311 13.1092 9.11539 15.199 8.56467C15.4063 8.5098 15.6174 8.63523 15.6692 8.84885L18.6514 21.2546C18.6974 21.4506 18.968 21.4545 19.0217 21.2605L22.3436 9.29373C22.3896 9.12519 22.5412 9.00956 22.712 9.00956H26.1912C26.362 9.00956 26.5136 9.12519 26.5597 9.29373L29.8815 21.2624C29.9353 21.4565 30.2059 21.4506 30.2519 21.2566L33.1439 9.30745C33.1861 9.13303 33.3396 9.00956 33.5162 9.00956H38.237C38.4903 9.00956 38.6746 9.2565 38.6074 9.50735Z" fill="#3F1E11"/>
<path d="M85.0063 30C84.1619 30 83.4461 29.7001 82.8627 29.1024C82.2774 28.5046 81.9838 27.7854 81.9838 26.9427C81.9838 26.0999 82.2813 25.3807 82.8762 24.781C83.4711 24.1832 84.1811 23.8834 85.0063 23.8834C85.8315 23.8834 86.5358 24.1832 87.1211 24.781C87.7064 25.3787 88 26.0999 88 26.9427C88 27.7854 87.7064 28.5066 87.1211 29.1024C86.5358 29.7001 85.8296 30 85.0063 30Z" fill="#FF7500"/>
</svg>
