<svg width="113" height="40" viewBox="0 0 113 40" fill="none" xmlns="http://www.w3.org/2000/svg">
<path d="M58.5096 40C55.7743 40 53.4456 38.9992 51.5235 37.0028C49.6015 35.0037 48.6404 32.5526 48.6404 29.6547C48.6404 26.7567 49.6015 24.303 51.5235 22.3066C53.4456 20.3076 55.7743 19.3068 58.5096 19.3068C61.2449 19.3068 63.6031 20.3076 65.5154 22.3066C67.4251 24.3056 68.3788 26.7541 68.3788 29.6547C68.3788 32.5552 67.4227 35.0037 65.5154 37.0028C63.6056 39.0018 61.2695 40 58.5096 40ZM58.5096 33.7285C59.5938 33.7285 60.4859 33.3496 61.1907 32.5918C61.893 31.834 62.2429 30.8541 62.2429 29.6521C62.2429 28.45 61.893 27.4701 61.1907 26.7123C60.4884 25.9545 59.5938 25.5756 58.5096 25.5756C57.4253 25.5756 56.5678 25.9545 55.8655 26.7123C55.1632 27.4701 54.8133 28.45 54.8133 29.6521C54.8133 30.8541 55.1656 31.834 55.8655 32.5918C56.5678 33.3496 57.4475 33.7285 58.5096 33.7285Z" fill="#3F1E11"/>
<path d="M80.5511 40C77.8158 40 75.4872 38.9992 73.5651 37.0028C71.643 35.0037 70.6819 32.5526 70.6819 29.6547C70.6819 26.7567 71.643 24.303 73.5651 22.3066C75.4872 20.3076 77.8158 19.3068 80.5511 19.3068C83.2864 19.3068 85.6447 20.3076 87.5569 22.3066C89.4667 24.3056 90.4203 26.7541 90.4203 29.6547C90.4203 32.5552 89.4642 35.0037 87.5569 37.0028C85.6471 39.0018 83.3111 40 80.5511 40ZM80.5511 33.7285C81.6354 33.7285 82.5274 33.3496 83.2322 32.5918C83.9345 31.834 84.2844 30.8541 84.2844 29.6521C84.2844 28.45 83.9345 27.4701 83.2322 26.7123C82.5299 25.9545 81.6354 25.5756 80.5511 25.5756C79.4669 25.5756 78.6093 25.9545 77.907 26.7123C77.2047 27.4701 76.8548 28.45 76.8548 29.6521C76.8548 30.8541 77.2072 31.834 77.907 32.5918C78.6093 33.3496 79.4891 33.7285 80.5511 33.7285Z" fill="#3F1E11"/>
<path d="M104.052 17.4609C102.051 17.3119 100.993 18.0149 100.883 19.5671C100.873 19.7186 100.986 19.8519 101.129 19.8519H103.559C103.83 19.8519 104.052 20.0871 104.052 20.3745V25.5615C104.052 25.849 103.83 26.0842 103.559 26.0842H101.119C100.984 26.0842 100.873 26.2017 100.873 26.3455V39.4502H94.7369V26.3455C94.7369 26.2017 94.626 26.0842 94.4904 26.0842H92.901C92.63 26.0842 92.4082 25.849 92.4082 25.5615V20.3745C92.4082 20.0871 92.63 19.8519 92.901 19.8519H94.4954C94.6309 19.8519 94.7369 19.7369 94.7393 19.5932C94.7861 16.8965 95.5673 14.8269 97.0853 13.3844C98.65 11.895 100.971 11.2417 104.052 11.4246V17.4609Z" fill="#3F1E11"/>
<path d="M49.5754 12.6765L42.6411 39.0689C42.582 39.2936 42.3873 39.4504 42.1655 39.4504H35.9261C35.7068 39.4504 35.5121 39.2963 35.453 39.0715L31.4141 23.9677L27.3753 39.0715C27.3162 39.2963 27.1215 39.4504 26.9022 39.4504H20.6628C20.441 39.4504 20.2488 39.2936 20.1872 39.0689L14.2731 16.6615C14.2041 16.4002 13.9576 16.2303 13.7038 16.2852C8.55115 17.4036 3.06087 14.5553 0.80858 9.2742C-1.28847 4.69341 1.07225 1.10822 3.57836 0.23544C5.63105 -0.483166 7.61228 0.533335 9.0637 2.06462C10.7542 3.84676 11.3677 6.00258 12.4594 8.16885C13.8172 10.8708 16.8334 12.1539 19.5169 11.4196C19.783 11.3464 20.0541 11.5136 20.1206 11.7985L23.95 28.3395C24.0092 28.6008 24.3566 28.606 24.4256 28.3473L28.6912 12.3916C28.7503 12.1669 28.945 12.0127 29.1643 12.0127H33.6319C33.8512 12.0127 34.0459 12.1669 34.1051 12.3916L38.3706 28.3499C38.4396 28.6086 38.7871 28.6008 38.8462 28.3421L42.5598 12.4099C42.614 12.1774 42.8111 12.0127 43.0378 12.0127H49.0998C49.4251 12.0127 49.6617 12.342 49.5754 12.6765Z" fill="#3F1E11"/>
<path d="M109.156 40C108.072 40 107.152 39.6002 106.403 38.8032C105.652 38.0062 105.275 37.0472 105.275 35.9235C105.275 34.7999 105.657 33.8409 106.421 33.0413C107.184 32.2443 108.096 31.8445 109.156 31.8445C110.215 31.8445 111.12 32.2443 111.871 33.0413C112.623 33.8383 113 34.7999 113 35.9235C113 37.0472 112.623 38.0088 111.871 38.8032C111.12 39.6002 110.213 40 109.156 40Z" fill="#FF7500"/>
</svg>
