<svg width="36" height="36" viewBox="0 0 36 36" fill="none" xmlns="http://www.w3.org/2000/svg">
<path d="M36 18C36 27.9411 27.9411 36 18 36C8.05887 36 0 27.9411 0 18C0 8.05887 8.05887 0 18 0C27.9411 0 36 8.05887 36 18Z" fill="#FF7500"/>
<path fill-rule="evenodd" clip-rule="evenodd" d="M15.8474 21.6354C15.8474 19.938 15.8474 17.9722 15.8474 16.317L21.5174 18.8654C21.3687 18.9393 15.931 21.5932 15.8474 21.6354ZM9.96912 13.0266C8.71668 13.199 7.85102 13.8015 7.59316 14.8612C7.13837 16.7379 6.9301 21.7057 7.80143 23.5238C8.29306 24.5472 9.38399 24.832 10.6676 24.9528C14.5227 25.2095 22.1918 25.3888 26.0682 24.8473C27.349 24.696 28.1424 24.0443 28.3846 22.994C28.8649 20.9016 28.9684 17.3017 28.4838 15.1413C28.158 13.8167 27.2668 13.213 25.9562 12.9821C22.8124 12.4546 13.4714 12.4769 9.96912 13.0266Z" fill="white"/>
</svg>
