<svg width="22" height="22" viewBox="0 0 22 22" fill="none" xmlns="http://www.w3.org/2000/svg">
<path d="M22 11C22 17.0751 17.0751 22 11 22C4.92487 22 0 17.0751 0 11C0 4.92487 4.92487 0 11 0C17.0751 0 22 4.92487 22 11Z" fill="#FF7500"/>
<path fill-rule="evenodd" clip-rule="evenodd" d="M9.68453 13.2216C9.68453 12.1843 9.68453 10.983 9.68453 9.97153L13.1495 11.5289C13.0586 11.574 9.73561 13.1958 9.68453 13.2216ZM6.09224 7.96072C5.32686 8.06603 4.79785 8.43423 4.64027 9.08182C4.36234 10.2287 4.23506 13.2646 4.76754 14.3757C5.06798 15.0011 5.73466 15.1751 6.51909 15.2489C8.87499 15.4058 13.5617 15.5154 15.9306 15.1844C16.7133 15.092 17.1981 14.6937 17.3462 14.0519C17.6397 12.7732 17.7029 10.5733 17.4068 9.25303C17.2076 8.44354 16.663 8.07462 15.8621 7.9335C13.9409 7.61114 8.23255 7.62475 6.09224 7.96072Z" fill="white"/>
</svg>
