<svg width="208" height="208" viewBox="0 0 208 208" fill="none" xmlns="http://www.w3.org/2000/svg">
<g filter="url(#filter0_ii_1007_19587)">
<path d="M46.007 174.901L70.2065 153.49L135.128 145.463L168.577 175.233C170.196 176.673 171.338 178.571 171.853 180.676C172.367 182.78 172.23 184.991 171.46 187.016C170.689 189.04 169.322 190.783 167.538 192.013C165.754 193.242 163.639 193.901 161.473 193.901H53.2025C50.9971 193.901 48.8439 193.23 47.0291 191.977C45.2143 190.724 43.824 188.949 43.0429 186.886C42.2618 184.824 42.1271 182.573 42.6565 180.432C43.186 178.291 44.3546 176.362 46.007 174.901Z" fill="url(#paint0_linear_1007_19587)"/>
<path d="M46.007 174.901L70.2065 153.49L135.128 145.463L168.577 175.233C170.196 176.673 171.338 178.571 171.853 180.676C172.367 182.78 172.23 184.991 171.46 187.016C170.689 189.04 169.322 190.783 167.538 192.013C165.754 193.242 163.639 193.901 161.473 193.901H53.2025C50.9971 193.901 48.8439 193.23 47.0291 191.977C45.2143 190.724 43.824 188.949 43.0429 186.886C42.2618 184.824 42.1271 182.573 42.6565 180.432C43.186 178.291 44.3546 176.362 46.007 174.901Z" fill="url(#paint1_linear_1007_19587)"/>
<path d="M46.007 174.901L70.2065 153.49L135.128 145.463L168.577 175.233C170.196 176.673 171.338 178.571 171.853 180.676C172.367 182.78 172.23 184.991 171.46 187.016C170.689 189.04 169.322 190.783 167.538 192.013C165.754 193.242 163.639 193.901 161.473 193.901H53.2025C50.9971 193.901 48.8439 193.23 47.0291 191.977C45.2143 190.724 43.824 188.949 43.0429 186.886C42.2618 184.824 42.1271 182.573 42.6565 180.432C43.186 178.291 44.3546 176.362 46.007 174.901Z" fill="url(#paint2_radial_1007_19587)"/>
</g>
<path d="M46.007 174.901L70.2065 153.49L135.128 145.463L168.577 175.233C170.196 176.673 171.338 178.571 171.853 180.676C172.367 182.78 172.23 184.991 171.46 187.016C170.689 189.04 169.322 190.783 167.538 192.013C165.754 193.242 163.639 193.901 161.473 193.901H53.2025C50.9971 193.901 48.8439 193.23 47.0291 191.977C45.2143 190.724 43.824 188.949 43.0429 186.886C42.2618 184.824 42.1271 182.573 42.6565 180.432C43.186 178.291 44.3546 176.362 46.007 174.901Z" fill="url(#paint3_linear_1007_19587)"/>
<g filter="url(#filter1_ii_1007_19587)">
<path d="M107.25 174.655C143.097 174.655 172.159 145.6 172.159 109.746C172.159 73.8984 143.104 44.8369 107.25 44.8369C71.4023 44.8369 42.3408 73.8919 42.3408 109.746C42.3408 145.593 71.3958 174.655 107.25 174.655Z" fill="url(#paint4_radial_1007_19587)"/>
<path d="M107.25 174.655C143.097 174.655 172.159 145.6 172.159 109.746C172.159 73.8984 143.104 44.8369 107.25 44.8369C71.4023 44.8369 42.3408 73.8919 42.3408 109.746C42.3408 145.593 71.3958 174.655 107.25 174.655Z" fill="url(#paint5_radial_1007_19587)"/>
</g>
<g filter="url(#filter2_i_1007_19587)">
<path d="M107.25 154.199C113.162 154.199 119.017 153.034 124.479 150.772C129.941 148.509 134.905 145.193 139.085 141.012C143.266 136.831 146.582 131.868 148.845 126.406C151.108 120.943 152.272 115.089 152.272 109.177C152.272 103.264 151.108 97.4096 148.845 91.9473C146.582 86.4849 143.266 81.5217 139.085 77.341C134.905 73.1603 129.941 69.844 124.479 67.5814C119.017 65.3188 113.162 64.1543 107.25 64.1543C95.3091 64.1543 83.8576 68.8977 75.4143 77.341C66.9709 85.7843 62.2275 97.2359 62.2275 109.177C62.2275 121.117 66.9709 132.569 75.4143 141.012C83.8576 149.455 95.3091 154.199 107.25 154.199Z" fill="url(#paint6_linear_1007_19587)"/>
<path d="M107.25 154.199C113.162 154.199 119.017 153.034 124.479 150.772C129.941 148.509 134.905 145.193 139.085 141.012C143.266 136.831 146.582 131.868 148.845 126.406C151.108 120.943 152.272 115.089 152.272 109.177C152.272 103.264 151.108 97.4096 148.845 91.9473C146.582 86.4849 143.266 81.5217 139.085 77.341C134.905 73.1603 129.941 69.844 124.479 67.5814C119.017 65.3188 113.162 64.1543 107.25 64.1543C95.3091 64.1543 83.8576 68.8977 75.4143 77.341C66.9709 85.7843 62.2275 97.2359 62.2275 109.177C62.2275 121.117 66.9709 132.569 75.4143 141.012C83.8576 149.455 95.3091 154.199 107.25 154.199Z" fill="url(#paint7_radial_1007_19587)"/>
</g>
<path d="M107.25 154.199C113.162 154.199 119.017 153.034 124.479 150.772C129.941 148.509 134.905 145.193 139.085 141.012C143.266 136.831 146.582 131.868 148.845 126.406C151.108 120.943 152.272 115.089 152.272 109.177C152.272 103.264 151.108 97.4096 148.845 91.9473C146.582 86.4849 143.266 81.5217 139.085 77.341C134.905 73.1603 129.941 69.844 124.479 67.5814C119.017 65.3188 113.162 64.1543 107.25 64.1543C95.3091 64.1543 83.8576 68.8977 75.4143 77.341C66.9709 85.7843 62.2275 97.2359 62.2275 109.177C62.2275 121.117 66.9709 132.569 75.4143 141.012C83.8576 149.455 95.3091 154.199 107.25 154.199Z" fill="url(#paint8_radial_1007_19587)"/>
<g filter="url(#filter3_f_1007_19587)">
<path fill-rule="evenodd" clip-rule="evenodd" d="M109.726 86.6705C109.673 84.983 108.965 83.3825 107.752 82.2077C106.54 81.0329 104.917 80.376 103.229 80.376C101.541 80.376 99.9188 81.0329 98.7062 82.2077C97.4937 83.3825 96.7858 84.983 96.7324 86.6705V112.644C96.7324 114.841 97.8179 116.778 99.4819 117.955L112.124 130.246C112.73 130.883 113.458 131.389 114.265 131.736C115.071 132.083 115.94 132.263 116.818 132.265C117.696 132.267 118.566 132.091 119.374 131.748C120.182 131.405 120.913 130.901 121.521 130.268C122.129 129.635 122.603 128.884 122.913 128.063C123.224 127.242 123.364 126.366 123.327 125.488C123.29 124.611 123.075 123.75 122.696 122.958C122.316 122.166 121.78 121.459 121.12 120.88L109.726 109.797V86.6705Z" fill="url(#paint9_linear_1007_19587)"/>
</g>
<path d="M40.9889 18.2257C28.0279 27.3907 22.9969 44.2907 27.7744 59.1367C29.2824 63.7517 34.5734 65.6042 38.4734 62.9002L81.3734 32.6102C85.2149 29.9062 85.5984 24.0302 82.0689 20.7997C70.8109 10.5687 53.9499 9.05417 40.9889 18.2257Z" fill="url(#paint10_radial_1007_19587)"/>
<path d="M40.9889 18.2257C28.0279 27.3907 22.9969 44.2907 27.7744 59.1367C29.2824 63.7517 34.5734 65.6042 38.4734 62.9002L81.3734 32.6102C85.2149 29.9062 85.5984 24.0302 82.0689 20.7997C70.8109 10.5687 53.9499 9.05417 40.9889 18.2257Z" fill="url(#paint11_linear_1007_19587)"/>
<path d="M173.511 18.2257C186.472 27.3907 191.503 44.2907 186.726 59.1367C185.218 63.7517 179.927 65.6042 176.027 62.9002L133.127 32.6102C129.285 29.9062 128.902 24.0302 132.431 20.7997C143.689 10.5687 160.55 9.05417 173.511 18.2257Z" fill="url(#paint12_radial_1007_19587)"/>
<path d="M173.511 18.2257C186.472 27.3907 191.503 44.2907 186.726 59.1367C185.218 63.7517 179.927 65.6042 176.027 62.9002L133.127 32.6102C129.285 29.9062 128.902 24.0302 132.431 20.7997C143.689 10.5687 160.55 9.05417 173.511 18.2257Z" fill="url(#paint13_linear_1007_19587)"/>
<path fill-rule="evenodd" clip-rule="evenodd" d="M102.759 105.228C103.952 103.988 105.588 103.272 107.309 103.237C109.029 103.201 110.693 103.85 111.937 105.04L125.145 117.884C126.297 119.097 126.937 120.707 126.932 122.38C126.926 124.053 126.276 125.66 125.116 126.866C123.957 128.072 122.377 128.784 120.705 128.854C119.033 128.925 117.399 128.348 116.142 127.244L102.941 114.406C101.702 113.212 100.987 111.575 100.952 109.855C100.918 108.134 101.568 106.47 102.759 105.228Z" fill="url(#paint14_linear_1007_19587)"/>
<path fill-rule="evenodd" clip-rule="evenodd" d="M107.25 77.1745C108.974 77.1745 110.627 77.8593 111.846 79.0783C113.065 80.2973 113.75 81.9506 113.75 83.6745V109.648C113.75 111.372 113.065 113.026 111.846 114.245C110.627 115.464 108.974 116.148 107.25 116.148C105.526 116.148 103.873 115.464 102.654 114.245C101.435 113.026 100.75 111.372 100.75 109.648V83.668C100.75 81.9441 101.435 80.2908 102.654 79.0718C103.873 77.8528 105.526 77.168 107.25 77.168" fill="url(#paint15_linear_1007_19587)"/>
<path fill-rule="evenodd" clip-rule="evenodd" d="M107.25 77.1745C108.974 77.1745 110.627 77.8593 111.846 79.0783C113.065 80.2973 113.75 81.9506 113.75 83.6745V109.648C113.75 111.372 113.065 113.026 111.846 114.245C110.627 115.464 108.974 116.148 107.25 116.148C105.526 116.148 103.873 115.464 102.654 114.245C101.435 113.026 100.75 111.372 100.75 109.648V83.668C100.75 81.9441 101.435 80.2908 102.654 79.0718C103.873 77.8528 105.526 77.168 107.25 77.168" fill="url(#paint16_radial_1007_19587)"/>
<defs>
<filter id="filter0_ii_1007_19587" x="41.8389" y="145.463" width="130.819" height="48.9385" filterUnits="userSpaceOnUse" color-interpolation-filters="sRGB">
<feFlood flood-opacity="0" result="BackgroundImageFix"/>
<feBlend mode="normal" in="SourceGraphic" in2="BackgroundImageFix" result="shape"/>
<feColorMatrix in="SourceAlpha" type="matrix" values="0 0 0 0 0 0 0 0 0 0 0 0 0 0 0 0 0 0 127 0" result="hardAlpha"/>
<feOffset dx="-0.5" dy="0.5"/>
<feGaussianBlur stdDeviation="0.5"/>
<feComposite in2="hardAlpha" operator="arithmetic" k2="-1" k3="1"/>
<feColorMatrix type="matrix" values="0 0 0 0 0.980392 0 0 0 0 0.945098 0 0 0 0 1 0 0 0 1 0"/>
<feBlend mode="normal" in2="shape" result="effect1_innerShadow_1007_19587"/>
<feColorMatrix in="SourceAlpha" type="matrix" values="0 0 0 0 0 0 0 0 0 0 0 0 0 0 0 0 0 0 127 0" result="hardAlpha"/>
<feOffset dx="0.5" dy="0.5"/>
<feGaussianBlur stdDeviation="0.5"/>
<feComposite in2="hardAlpha" operator="arithmetic" k2="-1" k3="1"/>
<feColorMatrix type="matrix" values="0 0 0 0 0.576471 0 0 0 0 0.533333 0 0 0 0 0.584314 0 0 0 1 0"/>
<feBlend mode="normal" in2="effect1_innerShadow_1007_19587" result="effect2_innerShadow_1007_19587"/>
</filter>
<filter id="filter1_ii_1007_19587" x="42.0408" y="44.8369" width="130.518" height="129.818" filterUnits="userSpaceOnUse" color-interpolation-filters="sRGB">
<feFlood flood-opacity="0" result="BackgroundImageFix"/>
<feBlend mode="normal" in="SourceGraphic" in2="BackgroundImageFix" result="shape"/>
<feColorMatrix in="SourceAlpha" type="matrix" values="0 0 0 0 0 0 0 0 0 0 0 0 0 0 0 0 0 0 127 0" result="hardAlpha"/>
<feOffset dx="0.4"/>
<feGaussianBlur stdDeviation="0.4"/>
<feComposite in2="hardAlpha" operator="arithmetic" k2="-1" k3="1"/>
<feColorMatrix type="matrix" values="0 0 0 0 0.682353 0 0 0 0 0.25098 0 0 0 0 0.262745 0 0 0 1 0"/>
<feBlend mode="normal" in2="shape" result="effect1_innerShadow_1007_19587"/>
<feColorMatrix in="SourceAlpha" type="matrix" values="0 0 0 0 0 0 0 0 0 0 0 0 0 0 0 0 0 0 127 0" result="hardAlpha"/>
<feOffset dx="-0.3"/>
<feGaussianBlur stdDeviation="0.3"/>
<feComposite in2="hardAlpha" operator="arithmetic" k2="-1" k3="1"/>
<feColorMatrix type="matrix" values="0 0 0 0 1 0 0 0 0 0.309804 0 0 0 0 0.588235 0 0 0 1 0"/>
<feBlend mode="normal" in2="effect1_innerShadow_1007_19587" result="effect2_innerShadow_1007_19587"/>
</filter>
<filter id="filter2_i_1007_19587" x="61.7275" y="64.1543" width="90.5449" height="90.5449" filterUnits="userSpaceOnUse" color-interpolation-filters="sRGB">
<feFlood flood-opacity="0" result="BackgroundImageFix"/>
<feBlend mode="normal" in="SourceGraphic" in2="BackgroundImageFix" result="shape"/>
<feColorMatrix in="SourceAlpha" type="matrix" values="0 0 0 0 0 0 0 0 0 0 0 0 0 0 0 0 0 0 127 0" result="hardAlpha"/>
<feOffset dx="-0.5" dy="0.5"/>
<feGaussianBlur stdDeviation="0.5"/>
<feComposite in2="hardAlpha" operator="arithmetic" k2="-1" k3="1"/>
<feColorMatrix type="matrix" values="0 0 0 0 0.866667 0 0 0 0 0.631373 0 0 0 0 0.776471 0 0 0 1 0"/>
<feBlend mode="normal" in2="shape" result="effect1_innerShadow_1007_19587"/>
</filter>
<filter id="filter3_f_1007_19587" x="95.9824" y="79.626" width="28.1006" height="53.3896" filterUnits="userSpaceOnUse" color-interpolation-filters="sRGB">
<feFlood flood-opacity="0" result="BackgroundImageFix"/>
<feBlend mode="normal" in="SourceGraphic" in2="BackgroundImageFix" result="shape"/>
<feGaussianBlur stdDeviation="0.375" result="effect1_foregroundBlur_1007_19587"/>
</filter>
<linearGradient id="paint0_linear_1007_19587" x1="52.156" y1="183.117" x2="164.118" y2="183.117" gradientUnits="userSpaceOnUse">
<stop stop-color="#D4BDE5"/>
<stop offset="1" stop-color="#E5CAF2"/>
</linearGradient>
<linearGradient id="paint1_linear_1007_19587" x1="110.974" y1="196.65" x2="110.974" y2="186.608" gradientUnits="userSpaceOnUse">
<stop stop-color="#D4A6F6"/>
<stop offset="1" stop-color="#D4A6F6" stop-opacity="0"/>
</linearGradient>
<radialGradient id="paint2_radial_1007_19587" cx="0" cy="0" r="1" gradientUnits="userSpaceOnUse" gradientTransform="translate(94.2676 145.464) rotate(104.908) scale(33.115 49.9999)">
<stop offset="0.654" stop-color="#BE87BE"/>
<stop offset="1" stop-color="#BE87BE" stop-opacity="0"/>
</radialGradient>
<linearGradient id="paint3_linear_1007_19587" x1="158.236" y1="162.974" x2="153.159" y2="168.453" gradientUnits="userSpaceOnUse">
<stop stop-color="#F3E5F1"/>
<stop offset="1" stop-color="#F3E5F1" stop-opacity="0"/>
</linearGradient>
<radialGradient id="paint4_radial_1007_19587" cx="0" cy="0" r="1" gradientUnits="userSpaceOnUse" gradientTransform="translate(142.598 62.1309) rotate(120.726) scale(117.676)">
<stop stop-color="#FF4995"/>
<stop offset="1" stop-color="#FF435C"/>
</radialGradient>
<radialGradient id="paint5_radial_1007_19587" cx="0" cy="0" r="1" gradientUnits="userSpaceOnUse" gradientTransform="translate(107.25 109.746) rotate(90) scale(50.8912)">
<stop offset="0.848" stop-color="#D2355C"/>
<stop offset="1" stop-color="#D2355C" stop-opacity="0"/>
</radialGradient>
<linearGradient id="paint6_linear_1007_19587" x1="73.1248" y1="78.7793" x2="132.034" y2="150.682" gradientUnits="userSpaceOnUse">
<stop stop-color="#FFECFF"/>
<stop offset="1" stop-color="#DDC8E2"/>
</linearGradient>
<radialGradient id="paint7_radial_1007_19587" cx="0" cy="0" r="1" gradientUnits="userSpaceOnUse" gradientTransform="translate(107.25 69.0293) rotate(90) scale(89.375 89.375)">
<stop offset="0.718" stop-color="#B89A9F" stop-opacity="0"/>
<stop offset="1" stop-color="#B89A9F"/>
</radialGradient>
<radialGradient id="paint8_radial_1007_19587" cx="0" cy="0" r="1" gradientUnits="userSpaceOnUse" gradientTransform="translate(93.4373 98.2793) rotate(32.607) scale(65.5876 57.9127)">
<stop offset="0.887" stop-color="#B394A7" stop-opacity="0"/>
<stop offset="0.977" stop-color="#B394A7"/>
</radialGradient>
<linearGradient id="paint9_linear_1007_19587" x1="109.927" y1="80.1705" x2="109.927" y2="132.06" gradientUnits="userSpaceOnUse">
<stop stop-color="#C4AFCA"/>
<stop offset="1" stop-color="#CFA5CF"/>
</linearGradient>
<radialGradient id="paint10_radial_1007_19587" cx="0" cy="0" r="1" gradientUnits="userSpaceOnUse" gradientTransform="translate(82.4719 32.0577) rotate(-169.408) scale(50.8348 57.1892)">
<stop stop-color="#FFDC56"/>
<stop offset="0.593" stop-color="#FFB02E"/>
<stop offset="1" stop-color="#BF8942"/>
</radialGradient>
<linearGradient id="paint11_linear_1007_19587" x1="66.4234" y1="43.5172" x2="64.2784" y2="40.7027" gradientUnits="userSpaceOnUse">
<stop stop-color="#F88F6D"/>
<stop offset="1" stop-color="#F88F6D" stop-opacity="0"/>
</linearGradient>
<radialGradient id="paint12_radial_1007_19587" cx="0" cy="0" r="1" gradientUnits="userSpaceOnUse" gradientTransform="translate(186.472 32.0577) rotate(-173.953) scale(56.7847 98.5407)">
<stop stop-color="#FFFF63"/>
<stop offset="0.736" stop-color="#F1AE2C"/>
<stop offset="1" stop-color="#C48039"/>
</radialGradient>
<linearGradient id="paint13_linear_1007_19587" x1="159.25" y1="51.8567" x2="161.87" y2="48.1712" gradientUnits="userSpaceOnUse">
<stop stop-color="#E76D2F"/>
<stop offset="1" stop-color="#E76D2F" stop-opacity="0"/>
</linearGradient>
<linearGradient id="paint14_linear_1007_19587" x1="117.403" y1="114.679" x2="115.213" y2="128.394" gradientUnits="userSpaceOnUse">
<stop stop-color="#FF4F5C"/>
<stop offset="1" stop-color="#F0368B"/>
</linearGradient>
<linearGradient id="paint15_linear_1007_19587" x1="104.416" y1="93.8145" x2="116.525" y2="93.8145" gradientUnits="userSpaceOnUse">
<stop stop-color="#3A234F"/>
<stop offset="1" stop-color="#3A323B"/>
</linearGradient>
<radialGradient id="paint16_radial_1007_19587" cx="0" cy="0" r="1" gradientUnits="userSpaceOnUse" gradientTransform="translate(110.546 79.807) rotate(114.747) scale(7.87186 7.50585)">
<stop stop-color="#463C4B"/>
<stop offset="1" stop-color="#463C4B" stop-opacity="0"/>
</radialGradient>
</defs>
</svg>
