<svg width="80" height="88" viewBox="0 0 80 88" fill="none" xmlns="http://www.w3.org/2000/svg">
<rect y="8" width="80" height="80" rx="40" fill="#746AE9"/>
<g filter="url(#filter0_i_235_4826)">
<path fill-rule="evenodd" clip-rule="evenodd" d="M32.1451 3.10009C32.6256 2.48418 33.2227 1.96894 33.9023 1.5838C34.582 1.19865 35.3308 0.95114 36.1061 0.855396C36.8814 0.759652 37.6679 0.817548 38.4208 1.02578C39.1737 1.23402 39.8783 1.58851 40.4942 2.06902C43.0494 4.08431 45.4205 6.32271 47.5795 8.75779C47.428 7.40383 47.7458 6.03889 48.4799 4.89115C49.214 3.7434 50.3198 2.88243 51.6125 2.45215C52.9052 2.02188 54.3064 2.04838 55.5819 2.52723C56.8574 3.00608 57.9298 3.90825 58.62 5.08293C62.5592 11.7717 65.5467 21.5617 66.3055 31.3437L66.3345 31.341L66.3742 32.076C66.4641 33.6543 66.6492 36.8771 66.5513 42.9446C66.4535 49.0597 64.7694 53.8978 62.3054 57.956C58.041 65.2423 49.9589 70.0513 40.9198 70.0513C30.9104 70.0513 22.6618 63.886 18.8178 55.9996C18.3773 55.0959 18.1488 54.1035 18.1497 53.0981C18.1506 52.0928 18.3808 51.1008 18.8229 50.1978C19.2649 49.2949 19.9072 48.5046 20.7007 47.8873C21.4942 47.2699 22.4181 46.8418 23.4021 46.6353C22.3919 46.5247 21.4207 46.1831 20.5637 45.6368C19.7068 45.0905 18.9871 44.3542 18.4605 43.485C17.9339 42.6159 17.6145 41.6371 17.5269 40.6246C17.4394 39.6121 17.5862 38.5931 17.9559 37.6464C19.97 32.5677 23.6492 28.3235 28.3909 25.6093C24.4226 24.2874 20.6023 23.6159 17.9559 23.481C17.0799 23.4502 16.2188 23.2454 15.4227 22.8786C14.6266 22.5118 13.9114 21.9903 13.3187 21.3444C12.7261 20.6986 12.2678 19.9413 11.9706 19.1167C11.6734 18.2921 11.5432 17.4166 11.5876 16.5412C11.6319 15.6658 11.85 14.8079 12.229 14.0176C12.6081 13.2272 13.1405 12.5202 13.7954 11.9375C14.4503 11.3549 15.2145 10.9084 16.0436 10.6239C16.8727 10.3395 17.7501 10.2228 18.6248 10.2806C22.7041 10.4868 28.9726 11.5761 35.3758 14.0824C34.6197 13.2628 33.8688 12.4961 33.1286 11.8008C30.5377 9.78094 30.1252 5.69365 32.1451 3.10274M40.9225 35.9359C35.9178 35.9359 31.8199 38.5083 30.2627 42.4793C29.8626 43.5006 29.2144 44.4062 28.3766 45.1142C27.5389 45.8223 26.538 46.3105 25.4642 46.5349C26.5774 46.6535 27.6422 47.053 28.5587 47.6957C29.4752 48.3385 30.2135 49.2036 30.7042 50.2097C32.5919 54.0882 36.5338 56.2164 40.9198 56.2164C45.9457 55.8198 50.2841 51.8198 50.2841 46.1647C50.2841 40.5123 46.3211 35.9333 40.9198 35.9333" fill="#FFC9B1"/>
<path fill-rule="evenodd" clip-rule="evenodd" d="M32.1451 3.10009C32.6256 2.48418 33.2227 1.96894 33.9023 1.5838C34.582 1.19865 35.3308 0.95114 36.1061 0.855396C36.8814 0.759652 37.6679 0.817548 38.4208 1.02578C39.1737 1.23402 39.8783 1.58851 40.4942 2.06902C43.0494 4.08431 45.4205 6.32271 47.5795 8.75779C47.428 7.40383 47.7458 6.03889 48.4799 4.89115C49.214 3.7434 50.3198 2.88243 51.6125 2.45215C52.9052 2.02188 54.3064 2.04838 55.5819 2.52723C56.8574 3.00608 57.9298 3.90825 58.62 5.08293C62.5592 11.7717 65.5467 21.5617 66.3055 31.3437L66.3345 31.341L66.3742 32.076C66.4641 33.6543 66.6492 36.8771 66.5513 42.9446C66.4535 49.0597 64.7694 53.8978 62.3054 57.956C58.041 65.2423 49.9589 70.0513 40.9198 70.0513C30.9104 70.0513 22.6618 63.886 18.8178 55.9996C18.3773 55.0959 18.1488 54.1035 18.1497 53.0981C18.1506 52.0928 18.3808 51.1008 18.8229 50.1978C19.2649 49.2949 19.9072 48.5046 20.7007 47.8873C21.4942 47.2699 22.4181 46.8418 23.4021 46.6353C22.3919 46.5247 21.4207 46.1831 20.5637 45.6368C19.7068 45.0905 18.9871 44.3542 18.4605 43.485C17.9339 42.6159 17.6145 41.6371 17.5269 40.6246C17.4394 39.6121 17.5862 38.5931 17.9559 37.6464C19.97 32.5677 23.6492 28.3235 28.3909 25.6093C24.4226 24.2874 20.6023 23.6159 17.9559 23.481C17.0799 23.4502 16.2188 23.2454 15.4227 22.8786C14.6266 22.5118 13.9114 21.9903 13.3187 21.3444C12.7261 20.6986 12.2678 19.9413 11.9706 19.1167C11.6734 18.2921 11.5432 17.4166 11.5876 16.5412C11.6319 15.6658 11.85 14.8079 12.229 14.0176C12.6081 13.2272 13.1405 12.5202 13.7954 11.9375C14.4503 11.3549 15.2145 10.9084 16.0436 10.6239C16.8727 10.3395 17.7501 10.2228 18.6248 10.2806C22.7041 10.4868 28.9726 11.5761 35.3758 14.0824C34.6197 13.2628 33.8688 12.4961 33.1286 11.8008C30.5377 9.78094 30.1252 5.69365 32.1451 3.10274M40.9225 35.9359C35.9178 35.9359 31.8199 38.5083 30.2627 42.4793C29.8626 43.5006 29.2144 44.4062 28.3766 45.1142C27.5389 45.8223 26.538 46.3105 25.4642 46.5349C26.5774 46.6535 27.6422 47.053 28.5587 47.6957C29.4752 48.3385 30.2135 49.2036 30.7042 50.2097C32.5919 54.0882 36.5338 56.2164 40.9198 56.2164C45.9457 55.8198 50.2841 51.8198 50.2841 46.1647C50.2841 40.5123 46.3211 35.9333 40.9198 35.9333" fill="url(#paint0_radial_235_4826)"/>
<path fill-rule="evenodd" clip-rule="evenodd" d="M32.1451 3.10009C32.6256 2.48418 33.2227 1.96894 33.9023 1.5838C34.582 1.19865 35.3308 0.95114 36.1061 0.855396C36.8814 0.759652 37.6679 0.817548 38.4208 1.02578C39.1737 1.23402 39.8783 1.58851 40.4942 2.06902C43.0494 4.08431 45.4205 6.32271 47.5795 8.75779C47.428 7.40383 47.7458 6.03889 48.4799 4.89115C49.214 3.7434 50.3198 2.88243 51.6125 2.45215C52.9052 2.02188 54.3064 2.04838 55.5819 2.52723C56.8574 3.00608 57.9298 3.90825 58.62 5.08293C62.5592 11.7717 65.5467 21.5617 66.3055 31.3437L66.3345 31.341L66.3742 32.076C66.4641 33.6543 66.6492 36.8771 66.5513 42.9446C66.4535 49.0597 64.7694 53.8978 62.3054 57.956C58.041 65.2423 49.9589 70.0513 40.9198 70.0513C30.9104 70.0513 22.6618 63.886 18.8178 55.9996C18.3773 55.0959 18.1488 54.1035 18.1497 53.0981C18.1506 52.0928 18.3808 51.1008 18.8229 50.1978C19.2649 49.2949 19.9072 48.5046 20.7007 47.8873C21.4942 47.2699 22.4181 46.8418 23.4021 46.6353C22.3919 46.5247 21.4207 46.1831 20.5637 45.6368C19.7068 45.0905 18.9871 44.3542 18.4605 43.485C17.9339 42.6159 17.6145 41.6371 17.5269 40.6246C17.4394 39.6121 17.5862 38.5931 17.9559 37.6464C19.97 32.5677 23.6492 28.3235 28.3909 25.6093C24.4226 24.2874 20.6023 23.6159 17.9559 23.481C17.0799 23.4502 16.2188 23.2454 15.4227 22.8786C14.6266 22.5118 13.9114 21.9903 13.3187 21.3444C12.7261 20.6986 12.2678 19.9413 11.9706 19.1167C11.6734 18.2921 11.5432 17.4166 11.5876 16.5412C11.6319 15.6658 11.85 14.8079 12.229 14.0176C12.6081 13.2272 13.1405 12.5202 13.7954 11.9375C14.4503 11.3549 15.2145 10.9084 16.0436 10.6239C16.8727 10.3395 17.7501 10.2228 18.6248 10.2806C22.7041 10.4868 28.9726 11.5761 35.3758 14.0824C34.6197 13.2628 33.8688 12.4961 33.1286 11.8008C30.5377 9.78094 30.1252 5.69365 32.1451 3.10274M40.9225 35.9359C35.9178 35.9359 31.8199 38.5083 30.2627 42.4793C29.8626 43.5006 29.2144 44.4062 28.3766 45.1142C27.5389 45.8223 26.538 46.3105 25.4642 46.5349C26.5774 46.6535 27.6422 47.053 28.5587 47.6957C29.4752 48.3385 30.2135 49.2036 30.7042 50.2097C32.5919 54.0882 36.5338 56.2164 40.9198 56.2164C45.9457 55.8198 50.2841 51.8198 50.2841 46.1647C50.2841 40.5123 46.3211 35.9333 40.9198 35.9333" fill="url(#paint1_radial_235_4826)"/>
<path fill-rule="evenodd" clip-rule="evenodd" d="M32.1451 3.10009C32.6256 2.48418 33.2227 1.96894 33.9023 1.5838C34.582 1.19865 35.3308 0.95114 36.1061 0.855396C36.8814 0.759652 37.6679 0.817548 38.4208 1.02578C39.1737 1.23402 39.8783 1.58851 40.4942 2.06902C43.0494 4.08431 45.4205 6.32271 47.5795 8.75779C47.428 7.40383 47.7458 6.03889 48.4799 4.89115C49.214 3.7434 50.3198 2.88243 51.6125 2.45215C52.9052 2.02188 54.3064 2.04838 55.5819 2.52723C56.8574 3.00608 57.9298 3.90825 58.62 5.08293C62.5592 11.7717 65.5467 21.5617 66.3055 31.3437L66.3345 31.341L66.3742 32.076C66.4641 33.6543 66.6492 36.8771 66.5513 42.9446C66.4535 49.0597 64.7694 53.8978 62.3054 57.956C58.041 65.2423 49.9589 70.0513 40.9198 70.0513C30.9104 70.0513 22.6618 63.886 18.8178 55.9996C18.3773 55.0959 18.1488 54.1035 18.1497 53.0981C18.1506 52.0928 18.3808 51.1008 18.8229 50.1978C19.2649 49.2949 19.9072 48.5046 20.7007 47.8873C21.4942 47.2699 22.4181 46.8418 23.4021 46.6353C22.3919 46.5247 21.4207 46.1831 20.5637 45.6368C19.7068 45.0905 18.9871 44.3542 18.4605 43.485C17.9339 42.6159 17.6145 41.6371 17.5269 40.6246C17.4394 39.6121 17.5862 38.5931 17.9559 37.6464C19.97 32.5677 23.6492 28.3235 28.3909 25.6093C24.4226 24.2874 20.6023 23.6159 17.9559 23.481C17.0799 23.4502 16.2188 23.2454 15.4227 22.8786C14.6266 22.5118 13.9114 21.9903 13.3187 21.3444C12.7261 20.6986 12.2678 19.9413 11.9706 19.1167C11.6734 18.2921 11.5432 17.4166 11.5876 16.5412C11.6319 15.6658 11.85 14.8079 12.229 14.0176C12.6081 13.2272 13.1405 12.5202 13.7954 11.9375C14.4503 11.3549 15.2145 10.9084 16.0436 10.6239C16.8727 10.3395 17.7501 10.2228 18.6248 10.2806C22.7041 10.4868 28.9726 11.5761 35.3758 14.0824C34.6197 13.2628 33.8688 12.4961 33.1286 11.8008C30.5377 9.78094 30.1252 5.69365 32.1451 3.10274M40.9225 35.9359C35.9178 35.9359 31.8199 38.5083 30.2627 42.4793C29.8626 43.5006 29.2144 44.4062 28.3766 45.1142C27.5389 45.8223 26.538 46.3105 25.4642 46.5349C26.5774 46.6535 27.6422 47.053 28.5587 47.6957C29.4752 48.3385 30.2135 49.2036 30.7042 50.2097C32.5919 54.0882 36.5338 56.2164 40.9198 56.2164C45.9457 55.8198 50.2841 51.8198 50.2841 46.1647C50.2841 40.5123 46.3211 35.9333 40.9198 35.9333" fill="url(#paint2_radial_235_4826)"/>
<path fill-rule="evenodd" clip-rule="evenodd" d="M32.1451 3.10009C32.6256 2.48418 33.2227 1.96894 33.9023 1.5838C34.582 1.19865 35.3308 0.95114 36.1061 0.855396C36.8814 0.759652 37.6679 0.817548 38.4208 1.02578C39.1737 1.23402 39.8783 1.58851 40.4942 2.06902C43.0494 4.08431 45.4205 6.32271 47.5795 8.75779C47.428 7.40383 47.7458 6.03889 48.4799 4.89115C49.214 3.7434 50.3198 2.88243 51.6125 2.45215C52.9052 2.02188 54.3064 2.04838 55.5819 2.52723C56.8574 3.00608 57.9298 3.90825 58.62 5.08293C62.5592 11.7717 65.5467 21.5617 66.3055 31.3437L66.3345 31.341L66.3742 32.076C66.4641 33.6543 66.6492 36.8771 66.5513 42.9446C66.4535 49.0597 64.7694 53.8978 62.3054 57.956C58.041 65.2423 49.9589 70.0513 40.9198 70.0513C30.9104 70.0513 22.6618 63.886 18.8178 55.9996C18.3773 55.0959 18.1488 54.1035 18.1497 53.0981C18.1506 52.0928 18.3808 51.1008 18.8229 50.1978C19.2649 49.2949 19.9072 48.5046 20.7007 47.8873C21.4942 47.2699 22.4181 46.8418 23.4021 46.6353C22.3919 46.5247 21.4207 46.1831 20.5637 45.6368C19.7068 45.0905 18.9871 44.3542 18.4605 43.485C17.9339 42.6159 17.6145 41.6371 17.5269 40.6246C17.4394 39.6121 17.5862 38.5931 17.9559 37.6464C19.97 32.5677 23.6492 28.3235 28.3909 25.6093C24.4226 24.2874 20.6023 23.6159 17.9559 23.481C17.0799 23.4502 16.2188 23.2454 15.4227 22.8786C14.6266 22.5118 13.9114 21.9903 13.3187 21.3444C12.7261 20.6986 12.2678 19.9413 11.9706 19.1167C11.6734 18.2921 11.5432 17.4166 11.5876 16.5412C11.6319 15.6658 11.85 14.8079 12.229 14.0176C12.6081 13.2272 13.1405 12.5202 13.7954 11.9375C14.4503 11.3549 15.2145 10.9084 16.0436 10.6239C16.8727 10.3395 17.7501 10.2228 18.6248 10.2806C22.7041 10.4868 28.9726 11.5761 35.3758 14.0824C34.6197 13.2628 33.8688 12.4961 33.1286 11.8008C30.5377 9.78094 30.1252 5.69365 32.1451 3.10274M40.9225 35.9359C35.9178 35.9359 31.8199 38.5083 30.2627 42.4793C29.8626 43.5006 29.2144 44.4062 28.3766 45.1142C27.5389 45.8223 26.538 46.3105 25.4642 46.5349C26.5774 46.6535 27.6422 47.053 28.5587 47.6957C29.4752 48.3385 30.2135 49.2036 30.7042 50.2097C32.5919 54.0882 36.5338 56.2164 40.9198 56.2164C45.9457 55.8198 50.2841 51.8198 50.2841 46.1647C50.2841 40.5123 46.3211 35.9333 40.9198 35.9333" fill="url(#paint3_radial_235_4826)"/>
<path fill-rule="evenodd" clip-rule="evenodd" d="M32.1451 3.10009C32.6256 2.48418 33.2227 1.96894 33.9023 1.5838C34.582 1.19865 35.3308 0.95114 36.1061 0.855396C36.8814 0.759652 37.6679 0.817548 38.4208 1.02578C39.1737 1.23402 39.8783 1.58851 40.4942 2.06902C43.0494 4.08431 45.4205 6.32271 47.5795 8.75779C47.428 7.40383 47.7458 6.03889 48.4799 4.89115C49.214 3.7434 50.3198 2.88243 51.6125 2.45215C52.9052 2.02188 54.3064 2.04838 55.5819 2.52723C56.8574 3.00608 57.9298 3.90825 58.62 5.08293C62.5592 11.7717 65.5467 21.5617 66.3055 31.3437L66.3345 31.341L66.3742 32.076C66.4641 33.6543 66.6492 36.8771 66.5513 42.9446C66.4535 49.0597 64.7694 53.8978 62.3054 57.956C58.041 65.2423 49.9589 70.0513 40.9198 70.0513C30.9104 70.0513 22.6618 63.886 18.8178 55.9996C18.3773 55.0959 18.1488 54.1035 18.1497 53.0981C18.1506 52.0928 18.3808 51.1008 18.8229 50.1978C19.2649 49.2949 19.9072 48.5046 20.7007 47.8873C21.4942 47.2699 22.4181 46.8418 23.4021 46.6353C22.3919 46.5247 21.4207 46.1831 20.5637 45.6368C19.7068 45.0905 18.9871 44.3542 18.4605 43.485C17.9339 42.6159 17.6145 41.6371 17.5269 40.6246C17.4394 39.6121 17.5862 38.5931 17.9559 37.6464C19.97 32.5677 23.6492 28.3235 28.3909 25.6093C24.4226 24.2874 20.6023 23.6159 17.9559 23.481C17.0799 23.4502 16.2188 23.2454 15.4227 22.8786C14.6266 22.5118 13.9114 21.9903 13.3187 21.3444C12.7261 20.6986 12.2678 19.9413 11.9706 19.1167C11.6734 18.2921 11.5432 17.4166 11.5876 16.5412C11.6319 15.6658 11.85 14.8079 12.229 14.0176C12.6081 13.2272 13.1405 12.5202 13.7954 11.9375C14.4503 11.3549 15.2145 10.9084 16.0436 10.6239C16.8727 10.3395 17.7501 10.2228 18.6248 10.2806C22.7041 10.4868 28.9726 11.5761 35.3758 14.0824C34.6197 13.2628 33.8688 12.4961 33.1286 11.8008C30.5377 9.78094 30.1252 5.69365 32.1451 3.10274M40.9225 35.9359C35.9178 35.9359 31.8199 38.5083 30.2627 42.4793C29.8626 43.5006 29.2144 44.4062 28.3766 45.1142C27.5389 45.8223 26.538 46.3105 25.4642 46.5349C26.5774 46.6535 27.6422 47.053 28.5587 47.6957C29.4752 48.3385 30.2135 49.2036 30.7042 50.2097C32.5919 54.0882 36.5338 56.2164 40.9198 56.2164C45.9457 55.8198 50.2841 51.8198 50.2841 46.1647C50.2841 40.5123 46.3211 35.9333 40.9198 35.9333" fill="url(#paint4_radial_235_4826)"/>
</g>
<path d="M32.1449 3.10009C32.6254 2.48418 33.2225 1.96894 33.9022 1.5838C34.5818 1.19865 35.3306 0.95114 36.1059 0.855396C36.8812 0.759652 37.6677 0.817548 38.4207 1.02578C39.1736 1.23402 39.8781 1.58851 40.494 2.06902C46.4954 6.74852 52.3144 13.7202 56.4704 21.4295H48.0949C44.235 18.1961 39.7722 15.8035 35.3783 14.0824C34.6195 13.2628 33.866 12.4961 33.1311 11.8008C30.5401 9.78094 30.1251 5.69365 32.1449 3.10274" fill="url(#paint5_linear_235_4826)"/>
<path d="M32.1449 3.10009C32.6254 2.48418 33.2225 1.96894 33.9022 1.5838C34.5818 1.19865 35.3306 0.95114 36.1059 0.855396C36.8812 0.759652 37.6677 0.817548 38.4207 1.02578C39.1736 1.23402 39.8781 1.58851 40.494 2.06902C46.4954 6.74852 52.3144 13.7202 56.4704 21.4295H48.0949C44.235 18.1961 39.7722 15.8035 35.3783 14.0824C34.6195 13.2628 33.866 12.4961 33.1311 11.8008C30.5401 9.78094 30.1251 5.69365 32.1449 3.10274" fill="url(#paint6_radial_235_4826)"/>
<path d="M32.1449 3.10009C32.6254 2.48418 33.2225 1.96894 33.9022 1.5838C34.5818 1.19865 35.3306 0.95114 36.1059 0.855396C36.8812 0.759652 37.6677 0.817548 38.4207 1.02578C39.1736 1.23402 39.8781 1.58851 40.494 2.06902C46.4954 6.74852 52.3144 13.7202 56.4704 21.4295H48.0949C44.235 18.1961 39.7722 15.8035 35.3783 14.0824C34.6195 13.2628 33.866 12.4961 33.1311 11.8008C30.5401 9.78094 30.1251 5.69365 32.1449 3.10274" fill="url(#paint7_linear_235_4826)"/>
<path d="M32.1449 3.10009C32.6254 2.48418 33.2225 1.96894 33.9022 1.5838C34.5818 1.19865 35.3306 0.95114 36.1059 0.855396C36.8812 0.759652 37.6677 0.817548 38.4207 1.02578C39.1736 1.23402 39.8781 1.58851 40.494 2.06902C46.4954 6.74852 52.3144 13.7202 56.4704 21.4295H48.0949C44.235 18.1961 39.7722 15.8035 35.3783 14.0824C34.6195 13.2628 33.866 12.4961 33.1311 11.8008C30.5401 9.78094 30.1251 5.69365 32.1449 3.10274" fill="url(#paint8_radial_235_4826)"/>
<path d="M32.1449 3.10009C32.6254 2.48418 33.2225 1.96894 33.9022 1.5838C34.5818 1.19865 35.3306 0.95114 36.1059 0.855396C36.8812 0.759652 37.6677 0.817548 38.4207 1.02578C39.1736 1.23402 39.8781 1.58851 40.494 2.06902C46.4954 6.74852 52.3144 13.7202 56.4704 21.4295H48.0949C44.235 18.1961 39.7722 15.8035 35.3783 14.0824C34.6195 13.2628 33.866 12.4961 33.1311 11.8008C30.5401 9.78094 30.1251 5.69365 32.1449 3.10274" fill="url(#paint9_linear_235_4826)"/>
<path d="M66.0071 28.3694C64.9311 19.6079 62.1577 11.0923 58.6203 5.08562C57.9302 3.91094 56.8577 3.00876 55.5822 2.52991C54.3067 2.05106 52.9055 2.02456 51.6128 2.45484C50.3202 2.88511 49.2143 3.74609 48.4803 4.89383C47.7462 6.04157 47.4284 7.40652 47.5799 8.76048C52.574 14.3442 56.9495 21.2444 59.662 28.3694H66.0071Z" fill="url(#paint10_linear_235_4826)"/>
<path d="M66.0071 28.3694C64.9311 19.6079 62.1577 11.0923 58.6203 5.08562C57.9302 3.91094 56.8577 3.00876 55.5822 2.52991C54.3067 2.05106 52.9055 2.02456 51.6128 2.45484C50.3202 2.88511 49.2143 3.74609 48.4803 4.89383C47.7462 6.04157 47.4284 7.40652 47.5799 8.76048C52.574 14.3442 56.9495 21.2444 59.662 28.3694H66.0071Z" fill="url(#paint11_linear_235_4826)"/>
<path d="M66.0071 28.3694C64.9311 19.6079 62.1577 11.0923 58.6203 5.08562C57.9302 3.91094 56.8577 3.00876 55.5822 2.52991C54.3067 2.05106 52.9055 2.02456 51.6128 2.45484C50.3202 2.88511 49.2143 3.74609 48.4803 4.89383C47.7462 6.04157 47.4284 7.40652 47.5799 8.76048C52.574 14.3442 56.9495 21.2444 59.662 28.3694H66.0071Z" fill="url(#paint12_radial_235_4826)"/>
<path d="M66.0071 28.3694C64.9311 19.6079 62.1577 11.0923 58.6203 5.08562C57.9302 3.91094 56.8577 3.00876 55.5822 2.52991C54.3067 2.05106 52.9055 2.02456 51.6128 2.45484C50.3202 2.88511 49.2143 3.74609 48.4803 4.89383C47.7462 6.04157 47.4284 7.40652 47.5799 8.76048C52.574 14.3442 56.9495 21.2444 59.662 28.3694H66.0071Z" fill="url(#paint13_radial_235_4826)"/>
<path d="M18.6254 10.2805C16.8911 10.2194 15.2025 10.8428 13.9239 12.016C12.6454 13.1893 11.8795 14.8183 11.7917 16.5514C11.7039 18.2844 12.3011 19.9825 13.4545 21.279C14.608 22.5755 16.225 23.3664 17.9565 23.4809C20.5738 23.6131 24.3386 24.2714 28.2567 25.5642C32.1885 23.1991 36.6917 21.9531 41.28 21.9607C44.4974 21.9607 47.5748 22.5609 50.4063 23.6554C50.1773 23.3503 49.9226 23.0655 49.6449 22.8041C40.0876 13.8099 25.8852 10.648 18.6254 10.2805Z" fill="url(#paint14_linear_235_4826)"/>
<path d="M18.6254 10.2805C16.8911 10.2194 15.2025 10.8428 13.9239 12.016C12.6454 13.1893 11.8795 14.8183 11.7917 16.5514C11.7039 18.2844 12.3011 19.9825 13.4545 21.279C14.608 22.5755 16.225 23.3664 17.9565 23.4809C20.5738 23.6131 24.3386 24.2714 28.2567 25.5642C32.1885 23.1991 36.6917 21.9531 41.28 21.9607C44.4974 21.9607 47.5748 22.5609 50.4063 23.6554C50.1773 23.3503 49.9226 23.0655 49.6449 22.8041C40.0876 13.8099 25.8852 10.648 18.6254 10.2805Z" fill="url(#paint15_radial_235_4826)"/>
<path d="M18.6254 10.2805C16.8911 10.2194 15.2025 10.8428 13.9239 12.016C12.6454 13.1893 11.8795 14.8183 11.7917 16.5514C11.7039 18.2844 12.3011 19.9825 13.4545 21.279C14.608 22.5755 16.225 23.3664 17.9565 23.4809C20.5738 23.6131 24.3386 24.2714 28.2567 25.5642C32.1885 23.1991 36.6917 21.9531 41.28 21.9607C44.4974 21.9607 47.5748 22.5609 50.4063 23.6554C50.1773 23.3503 49.9226 23.0655 49.6449 22.8041C40.0876 13.8099 25.8852 10.648 18.6254 10.2805Z" fill="url(#paint16_radial_235_4826)"/>
<path d="M18.6254 10.2805C16.8911 10.2194 15.2025 10.8428 13.9239 12.016C12.6454 13.1893 11.8795 14.8183 11.7917 16.5514C11.7039 18.2844 12.3011 19.9825 13.4545 21.279C14.608 22.5755 16.225 23.3664 17.9565 23.4809C20.5738 23.6131 24.3386 24.2714 28.2567 25.5642C32.1885 23.1991 36.6917 21.9531 41.28 21.9607C44.4974 21.9607 47.5748 22.5609 50.4063 23.6554C50.1773 23.3503 49.9226 23.0655 49.6449 22.8041C40.0876 13.8099 25.8852 10.648 18.6254 10.2805Z" fill="url(#paint17_radial_235_4826)"/>
<path d="M18.6254 10.2805C16.8911 10.2194 15.2025 10.8428 13.9239 12.016C12.6454 13.1893 11.8795 14.8183 11.7917 16.5514C11.7039 18.2844 12.3011 19.9825 13.4545 21.279C14.608 22.5755 16.225 23.3664 17.9565 23.4809C20.5738 23.6131 24.3386 24.2714 28.2567 25.5642C32.1885 23.1991 36.6917 21.9531 41.28 21.9607C44.4974 21.9607 47.5748 22.5609 50.4063 23.6554C50.1773 23.3503 49.9226 23.0655 49.6449 22.8041C40.0876 13.8099 25.8852 10.648 18.6254 10.2805Z" fill="url(#paint18_radial_235_4826)"/>
<g filter="url(#filter1_f_235_4826)">
<path d="M55.1406 5.96582C56.793 8.14166 60.8406 17.5456 62.0806 24.5543" stroke="url(#paint19_linear_235_4826)" stroke-width="1.25" stroke-linecap="round"/>
</g>
<g filter="url(#filter2_f_235_4826)">
<path d="M37.999 5.19336C40.8067 6.96998 47.5404 13.0824 52.91 21.1803" stroke="url(#paint20_linear_235_4826)" stroke-width="1.25" stroke-linecap="round"/>
</g>
<g filter="url(#filter3_f_235_4826)">
<path d="M20.3564 14.2334C25.8899 14.8943 39.1564 18.9288 43.175 21.5461" stroke="url(#paint21_linear_235_4826)" stroke-width="1.25" stroke-linecap="round"/>
</g>
<g filter="url(#filter4_f_235_4826)">
<path d="M24.8164 40.8985C27.9572 31.8937 38.2839 27.5156 44.5628 28.507" stroke="url(#paint22_linear_235_4826)" stroke-width="1.5" stroke-linecap="round"/>
</g>
<g filter="url(#filter5_f_235_4826)">
<path d="M25.9111 51.1348C27.3441 54.7779 32.8616 61.7919 43.4685 60.7132" stroke="url(#paint23_linear_235_4826)" stroke-width="1.25" stroke-linecap="round"/>
</g>
<g filter="url(#filter6_f_235_4826)">
<path d="M64.8194 48.0421C61.3375 24.6526 46.3842 23.8515 42.749 22.9156C50.3499 18.0405 61.6653 21.985 62.9079 26.2203C65.3032 34.4002 65.5358 43.9654 64.8194 48.0421Z" fill="url(#paint24_linear_235_4826)"/>
</g>
<path fill-rule="evenodd" clip-rule="evenodd" d="M32.1451 3.10009C32.6256 2.48418 33.2227 1.96894 33.9023 1.5838C34.582 1.19865 35.3308 0.95114 36.1061 0.855396C36.8814 0.759652 37.6679 0.817548 38.4208 1.02578C39.1737 1.23402 39.8783 1.58851 40.4942 2.06902C43.0494 4.08431 45.4205 6.32271 47.5795 8.75779C47.428 7.40383 47.7458 6.03889 48.4799 4.89115C49.214 3.7434 50.3198 2.88243 51.6125 2.45215C52.9052 2.02188 54.3064 2.04838 55.5819 2.52723C56.8574 3.00608 57.9298 3.90825 58.62 5.08293C62.5592 11.7717 65.5467 21.5617 66.3055 31.3437L66.3345 31.341L66.3742 32.076C66.4641 33.6543 66.6492 36.8771 66.5513 42.9446C66.4535 49.0597 64.7694 53.8978 62.3054 57.956C58.041 65.2423 49.9589 70.0513 40.9198 70.0513C30.9104 70.0513 22.6618 63.886 18.8178 55.9996C18.3773 55.0959 18.1488 54.1035 18.1497 53.0981C18.1506 52.0928 18.3808 51.1008 18.8229 50.1978C19.2649 49.2949 19.9072 48.5046 20.7007 47.8873C21.4942 47.2699 22.4181 46.8418 23.4021 46.6353C22.3919 46.5247 21.4207 46.1831 20.5637 45.6368C19.7068 45.0905 18.9871 44.3542 18.4605 43.485C17.9339 42.6159 17.6145 41.6371 17.5269 40.6246C17.4394 39.6121 17.5862 38.5931 17.9559 37.6464C19.97 32.5677 23.6492 28.3235 28.3909 25.6093C24.4226 24.2874 20.6023 23.6159 17.9559 23.481C17.0799 23.4502 16.2188 23.2454 15.4227 22.8786C14.6266 22.5118 13.9114 21.9903 13.3187 21.3444C12.7261 20.6986 12.2678 19.9413 11.9706 19.1167C11.6734 18.2921 11.5432 17.4166 11.5876 16.5412C11.6319 15.6658 11.85 14.8079 12.229 14.0176C12.6081 13.2272 13.1405 12.5202 13.7954 11.9375C14.4503 11.3549 15.2145 10.9084 16.0436 10.6239C16.8727 10.3395 17.7501 10.2228 18.6248 10.2806C22.7041 10.4868 28.9726 11.5761 35.3758 14.0824C34.6197 13.2628 33.8688 12.4961 33.1286 11.8008C30.5377 9.78094 30.1252 5.69365 32.1451 3.10274M40.9225 35.9359C35.9178 35.9359 31.8199 38.5083 30.2627 42.4793C29.8626 43.5006 29.2144 44.4062 28.3766 45.1142C27.5389 45.8223 26.538 46.3105 25.4642 46.5349C26.5774 46.6535 27.6422 47.053 28.5587 47.6957C29.4752 48.3385 30.2135 49.2036 30.7042 50.2097C32.5919 54.0882 36.5338 56.2164 40.9198 56.2164C45.9457 55.8198 50.2841 51.8198 50.2841 46.1647C50.2841 40.5123 46.3211 35.9333 40.9198 35.9333" fill="url(#paint25_radial_235_4826)"/>
<g filter="url(#filter7_f_235_4826)">
<path d="M49.7578 28.1553C53.6918 29.5062 61.5094 35.0979 61.3112 46.6459" stroke="url(#paint26_radial_235_4826)" stroke-width="2" stroke-linecap="round"/>
</g>
<path fill-rule="evenodd" clip-rule="evenodd" d="M59.3359 62.0031C56.9985 64.5522 54.1555 66.5863 50.9883 67.9756C47.821 69.3648 44.399 70.0788 40.9405 70.0719C30.9311 70.0719 22.6825 63.8855 18.8384 55.9753C18.3983 55.0694 18.17 54.0753 18.1709 53.0682C18.1717 52.0611 18.4017 51.0675 18.8434 50.1624C19.2852 49.2573 19.927 48.4646 20.7204 47.8443C21.5137 47.224 22.4378 46.7923 23.4227 46.5819C22.4106 46.4695 21.438 46.1256 20.5801 45.5769C19.7222 45.0282 19.0021 44.2895 18.4755 43.4178C17.9489 42.5462 17.6301 41.5651 17.5435 40.5504C17.457 39.5358 17.6052 38.5148 17.9765 37.5666C19.9873 32.4764 23.6664 28.2194 28.4116 25.4924L28.3481 25.4713C32.1472 23.3034 36.491 22.0449 40.9722 22.0449C54.4 22.0449 65.2844 32.8527 65.2844 46.1827C65.2844 52.237 63.0399 57.7678 59.3359 62.0031ZM30.2834 42.4127C31.8432 38.4285 35.9384 35.8481 40.9405 35.8481C46.3417 35.8481 50.3047 40.4377 50.3047 46.1087C50.3047 51.7822 45.9663 55.7929 40.9405 56.1894C36.5544 56.1894 32.6125 54.0585 30.7249 50.1695C30.2364 49.1602 29.4991 48.2919 28.5824 47.6462C27.6657 47.0005 26.5997 46.5988 25.4849 46.4788C26.5595 46.253 27.561 45.763 28.3988 45.0531C29.2366 44.3432 29.8843 43.4357 30.2834 42.4127Z" fill="url(#paint27_radial_235_4826)"/>
<path fill-rule="evenodd" clip-rule="evenodd" d="M59.3359 62.0031C56.9985 64.5522 54.1555 66.5863 50.9883 67.9756C47.821 69.3648 44.399 70.0788 40.9405 70.0719C30.9311 70.0719 22.6825 63.8855 18.8384 55.9753C18.3983 55.0694 18.17 54.0753 18.1709 53.0682C18.1717 52.0611 18.4017 51.0675 18.8434 50.1624C19.2852 49.2573 19.927 48.4646 20.7204 47.8443C21.5137 47.224 22.4378 46.7923 23.4227 46.5819C22.4106 46.4695 21.438 46.1256 20.5801 45.5769C19.7222 45.0282 19.0021 44.2895 18.4755 43.4178C17.9489 42.5462 17.6301 41.5651 17.5435 40.5504C17.457 39.5358 17.6052 38.5148 17.9765 37.5666C19.9873 32.4764 23.6664 28.2194 28.4116 25.4924L28.3481 25.4713C32.1472 23.3034 36.491 22.0449 40.9722 22.0449C54.4 22.0449 65.2844 32.8527 65.2844 46.1827C65.2844 52.237 63.0399 57.7678 59.3359 62.0031ZM30.2834 42.4127C31.8432 38.4285 35.9384 35.8481 40.9405 35.8481C46.3417 35.8481 50.3047 40.4377 50.3047 46.1087C50.3047 51.7822 45.9663 55.7929 40.9405 56.1894C36.5544 56.1894 32.6125 54.0585 30.7249 50.1695C30.2364 49.1602 29.4991 48.2919 28.5824 47.6462C27.6657 47.0005 26.5997 46.5988 25.4849 46.4788C26.5595 46.253 27.561 45.763 28.3988 45.0531C29.2366 44.3432 29.8843 43.4357 30.2834 42.4127Z" fill="url(#paint28_radial_235_4826)"/>
<defs>
<filter id="filter0_i_235_4826" x="11.5791" y="0.210547" width="55.6" height="69.8412" filterUnits="userSpaceOnUse" color-interpolation-filters="sRGB">
<feFlood flood-opacity="0" result="BackgroundImageFix"/>
<feBlend mode="normal" in="SourceGraphic" in2="BackgroundImageFix" result="shape"/>
<feColorMatrix in="SourceAlpha" type="matrix" values="0 0 0 0 0 0 0 0 0 0 0 0 0 0 0 0 0 0 127 0" result="hardAlpha"/>
<feOffset dx="0.6" dy="-0.6"/>
<feGaussianBlur stdDeviation="1"/>
<feComposite in2="hardAlpha" operator="arithmetic" k2="-1" k3="1"/>
<feColorMatrix type="matrix" values="0 0 0 0 0.733333 0 0 0 0 0.490196 0 0 0 0 0.596078 0 0 0 1 0"/>
<feBlend mode="normal" in2="shape" result="effect1_innerShadow_235_4826"/>
</filter>
<filter id="filter1_f_235_4826" x="53.2656" y="4.09082" width="10.6904" height="22.3389" filterUnits="userSpaceOnUse" color-interpolation-filters="sRGB">
<feFlood flood-opacity="0" result="BackgroundImageFix"/>
<feBlend mode="normal" in="SourceGraphic" in2="BackgroundImageFix" result="shape"/>
<feGaussianBlur stdDeviation="0.625" result="effect1_foregroundBlur_235_4826"/>
</filter>
<filter id="filter2_f_235_4826" x="36.124" y="3.31836" width="18.6611" height="19.7373" filterUnits="userSpaceOnUse" color-interpolation-filters="sRGB">
<feFlood flood-opacity="0" result="BackgroundImageFix"/>
<feBlend mode="normal" in="SourceGraphic" in2="BackgroundImageFix" result="shape"/>
<feGaussianBlur stdDeviation="0.625" result="effect1_foregroundBlur_235_4826"/>
</filter>
<filter id="filter3_f_235_4826" x="17.7314" y="11.6084" width="28.0684" height="12.5625" filterUnits="userSpaceOnUse" color-interpolation-filters="sRGB">
<feFlood flood-opacity="0" result="BackgroundImageFix"/>
<feBlend mode="normal" in="SourceGraphic" in2="BackgroundImageFix" result="shape"/>
<feGaussianBlur stdDeviation="1" result="effect1_foregroundBlur_235_4826"/>
</filter>
<filter id="filter4_f_235_4826" x="22.8164" y="26.3691" width="23.7461" height="16.5293" filterUnits="userSpaceOnUse" color-interpolation-filters="sRGB">
<feFlood flood-opacity="0" result="BackgroundImageFix"/>
<feBlend mode="normal" in="SourceGraphic" in2="BackgroundImageFix" result="shape"/>
<feGaussianBlur stdDeviation="0.625" result="effect1_foregroundBlur_235_4826"/>
</filter>
<filter id="filter5_f_235_4826" x="24.0361" y="49.2598" width="21.3076" height="13.4404" filterUnits="userSpaceOnUse" color-interpolation-filters="sRGB">
<feFlood flood-opacity="0" result="BackgroundImageFix"/>
<feBlend mode="normal" in="SourceGraphic" in2="BackgroundImageFix" result="shape"/>
<feGaussianBlur stdDeviation="0.625" result="effect1_foregroundBlur_235_4826"/>
</filter>
<filter id="filter6_f_235_4826" x="41.749" y="19.6641" width="24.4268" height="29.3779" filterUnits="userSpaceOnUse" color-interpolation-filters="sRGB">
<feFlood flood-opacity="0" result="BackgroundImageFix"/>
<feBlend mode="normal" in="SourceGraphic" in2="BackgroundImageFix" result="shape"/>
<feGaussianBlur stdDeviation="0.5" result="effect1_foregroundBlur_235_4826"/>
</filter>
<filter id="filter7_f_235_4826" x="47.5078" y="25.9053" width="16.0566" height="22.9902" filterUnits="userSpaceOnUse" color-interpolation-filters="sRGB">
<feFlood flood-opacity="0" result="BackgroundImageFix"/>
<feBlend mode="normal" in="SourceGraphic" in2="BackgroundImageFix" result="shape"/>
<feGaussianBlur stdDeviation="0.625" result="effect1_foregroundBlur_235_4826"/>
</filter>
<radialGradient id="paint0_radial_235_4826" cx="0" cy="0" r="1" gradientUnits="userSpaceOnUse" gradientTransform="translate(42.1862 44.9327) rotate(-37.5041) scale(17.9127 17.0765)">
<stop stop-color="#BB7D98"/>
<stop offset="1" stop-color="#BB7D98" stop-opacity="0"/>
</radialGradient>
<radialGradient id="paint1_radial_235_4826" cx="0" cy="0" r="1" gradientUnits="userSpaceOnUse" gradientTransform="translate(41.6099 29.152) rotate(90.5787) scale(49.0777 67.6902)">
<stop offset="0.652" stop-color="#BB7D98" stop-opacity="0"/>
<stop offset="1" stop-color="#BB7D98"/>
</radialGradient>
<radialGradient id="paint2_radial_235_4826" cx="0" cy="0" r="1" gradientUnits="userSpaceOnUse" gradientTransform="translate(41.2686 46.1896) rotate(-40.721) scale(14.2717 11.7344)">
<stop stop-color="#E2AF98"/>
<stop offset="1" stop-color="#E2AF98" stop-opacity="0"/>
</radialGradient>
<radialGradient id="paint3_radial_235_4826" cx="0" cy="0" r="1" gradientUnits="userSpaceOnUse" gradientTransform="translate(24.3724 46.3286) rotate(90) scale(5.30737 5.07324)">
<stop stop-color="#E7A186"/>
<stop offset="1" stop-color="#E7A186" stop-opacity="0"/>
</radialGradient>
<radialGradient id="paint4_radial_235_4826" cx="0" cy="0" r="1" gradientUnits="userSpaceOnUse" gradientTransform="translate(24.6553 46.5666) rotate(90.9091) scale(1.30141 3.37482)">
<stop stop-color="#D18D6F"/>
<stop offset="1" stop-color="#D18D6F" stop-opacity="0"/>
</radialGradient>
<linearGradient id="paint5_linear_235_4826" x1="37.2712" y1="15.4386" x2="40.7663" y2="11.9277" gradientUnits="userSpaceOnUse">
<stop stop-color="#EAA17F"/>
<stop offset="1" stop-color="#EAA17F" stop-opacity="0"/>
</linearGradient>
<radialGradient id="paint6_radial_235_4826" cx="0" cy="0" r="1" gradientUnits="userSpaceOnUse" gradientTransform="translate(53.1007 16.509) rotate(-154.517) scale(26.2044 20.1459)">
<stop offset="0.8" stop-color="#D9AA8E" stop-opacity="0"/>
<stop offset="1" stop-color="#D9AA8E"/>
</radialGradient>
<linearGradient id="paint7_linear_235_4826" x1="54.7281" y1="11.5972" x2="48.2826" y2="18.2067" gradientUnits="userSpaceOnUse">
<stop stop-color="#FADBC4"/>
<stop offset="1" stop-color="#FADBC4" stop-opacity="0"/>
</linearGradient>
<radialGradient id="paint8_radial_235_4826" cx="0" cy="0" r="1" gradientUnits="userSpaceOnUse" gradientTransform="translate(43.6692 22.294) rotate(-65.449) scale(9.3555 16.9274)">
<stop stop-color="#FFD6B4"/>
<stop offset="0.572" stop-color="#FFD6B4" stop-opacity="0"/>
</radialGradient>
<linearGradient id="paint9_linear_235_4826" x1="55.8835" y1="22.1724" x2="52.4148" y2="17.5457" gradientUnits="userSpaceOnUse">
<stop stop-color="#FFC4AA"/>
<stop offset="1" stop-color="#FFC4AA" stop-opacity="0"/>
</linearGradient>
<linearGradient id="paint10_linear_235_4826" x1="50.6784" y1="18.7857" x2="57.8907" y2="18.175" gradientUnits="userSpaceOnUse">
<stop stop-color="#F3AA84"/>
<stop offset="1" stop-color="#F3AA84" stop-opacity="0"/>
</linearGradient>
<linearGradient id="paint11_linear_235_4826" x1="64.6429" y1="25.7257" x2="62.6389" y2="23.2405" gradientUnits="userSpaceOnUse">
<stop stop-color="#FFC4AA"/>
<stop offset="1" stop-color="#FFC4AA" stop-opacity="0"/>
</linearGradient>
<radialGradient id="paint12_radial_235_4826" cx="0" cy="0" r="1" gradientUnits="userSpaceOnUse" gradientTransform="translate(55.9025 22.3786) rotate(-32.0054) scale(3.8971 7.12078)">
<stop stop-color="#FFDDBC"/>
<stop offset="1" stop-color="#FFDDBC" stop-opacity="0"/>
</radialGradient>
<radialGradient id="paint13_radial_235_4826" cx="0" cy="0" r="1" gradientUnits="userSpaceOnUse" gradientTransform="translate(62.2423 15.7612) rotate(-140.949) scale(17.7738 15.2538)">
<stop offset="0.83" stop-color="#DBAB90" stop-opacity="0"/>
<stop offset="1" stop-color="#DBAB90"/>
</radialGradient>
<linearGradient id="paint14_linear_235_4826" x1="19.6326" y1="27.0051" x2="21.3828" y2="18.997" gradientUnits="userSpaceOnUse">
<stop stop-color="#C68588"/>
<stop offset="1" stop-color="#C68588" stop-opacity="0"/>
</linearGradient>
<radialGradient id="paint15_radial_235_4826" cx="0" cy="0" r="1" gradientUnits="userSpaceOnUse" gradientTransform="translate(31.3287 25.5642) rotate(-88.5639) scale(4.48223 13.0342)">
<stop stop-color="#DA947B"/>
<stop offset="1" stop-color="#DA947B" stop-opacity="0"/>
</radialGradient>
<radialGradient id="paint16_radial_235_4826" cx="0" cy="0" r="1" gradientUnits="userSpaceOnUse" gradientTransform="translate(45.3117 21.9158) rotate(-167.844) scale(34.4007 26.7919)">
<stop offset="0.826" stop-color="#DDAB8F" stop-opacity="0"/>
<stop offset="1" stop-color="#DDAB8F"/>
</radialGradient>
<radialGradient id="paint17_radial_235_4826" cx="0" cy="0" r="1" gradientUnits="userSpaceOnUse" gradientTransform="translate(44.0712 17.9179) rotate(119.455) scale(4.03236 8.65745)">
<stop stop-color="#FFD9B8"/>
<stop offset="1" stop-color="#FFD9B8" stop-opacity="0"/>
</radialGradient>
<radialGradient id="paint18_radial_235_4826" cx="0" cy="0" r="1" gradientUnits="userSpaceOnUse" gradientTransform="translate(28.5045 30.5173) rotate(-76.809) scale(18.4279 64.9943)">
<stop offset="0.822" stop-color="#FFD9BA" stop-opacity="0"/>
<stop offset="1" stop-color="#FFD9BA"/>
</radialGradient>
<linearGradient id="paint19_linear_235_4826" x1="56.9675" y1="7.07092" x2="69.8877" y2="13.7412" gradientUnits="userSpaceOnUse">
<stop stop-color="#FFE5C7"/>
<stop offset="1" stop-color="#FFE5C7" stop-opacity="0"/>
</linearGradient>
<linearGradient id="paint20_linear_235_4826" x1="41.9224" y1="6.14248" x2="55.1255" y2="23.1711" gradientUnits="userSpaceOnUse">
<stop stop-color="#FFE5C7"/>
<stop offset="1" stop-color="#FFE5C7" stop-opacity="0"/>
</linearGradient>
<linearGradient id="paint21_linear_235_4826" x1="22.2441" y1="13.6042" x2="22.7544" y2="26.9315" gradientUnits="userSpaceOnUse">
<stop stop-color="#FFE5C7"/>
<stop offset="1" stop-color="#FFE5C7" stop-opacity="0"/>
</linearGradient>
<linearGradient id="paint22_linear_235_4826" x1="24.8164" y1="38.7993" x2="44.5628" y2="24.1897" gradientUnits="userSpaceOnUse">
<stop stop-color="#F9C3B4"/>
<stop offset="1" stop-color="#F9C3B4" stop-opacity="0"/>
</linearGradient>
<linearGradient id="paint23_linear_235_4826" x1="27.085" y1="53.0224" x2="46.6754" y2="54.2544" gradientUnits="userSpaceOnUse">
<stop stop-color="#FFD9C3"/>
<stop offset="1" stop-color="#FFD9C3" stop-opacity="0"/>
</linearGradient>
<linearGradient id="paint24_linear_235_4826" x1="68.206" y1="46.9688" x2="44.5759" y2="10.3338" gradientUnits="userSpaceOnUse">
<stop stop-color="#FFDFC1"/>
<stop offset="1" stop-color="#FFDFC1" stop-opacity="0"/>
</linearGradient>
<radialGradient id="paint25_radial_235_4826" cx="0" cy="0" r="1" gradientUnits="userSpaceOnUse" gradientTransform="translate(20.026 41.4218) rotate(-8.10199) scale(48.8656 69.7444)">
<stop offset="0.872" stop-color="#FFE1C2" stop-opacity="0"/>
<stop offset="1" stop-color="#FFE1C2"/>
</radialGradient>
<radialGradient id="paint26_radial_235_4826" cx="0" cy="0" r="1" gradientUnits="userSpaceOnUse" gradientTransform="translate(61.8981 31.9703) rotate(150.191) scale(12.2387 19.3166)">
<stop stop-color="#FFF0DE"/>
<stop offset="1" stop-color="#FFF0DE" stop-opacity="0"/>
</radialGradient>
<radialGradient id="paint27_radial_235_4826" cx="0" cy="0" r="1" gradientUnits="userSpaceOnUse" gradientTransform="translate(64.1397 67.5551) rotate(-136.156) scale(58.1414 43.4498)">
<stop offset="0.872" stop-color="#DBAF9A" stop-opacity="0"/>
<stop offset="1" stop-color="#DBAF9A"/>
</radialGradient>
<radialGradient id="paint28_radial_235_4826" cx="0" cy="0" r="1" gradientUnits="userSpaceOnUse" gradientTransform="translate(41.4005 47.2006) rotate(34.432) scale(14.294 14.3738)">
<stop stop-color="#E5A78B"/>
<stop offset="1" stop-color="#E5A78B" stop-opacity="0"/>
</radialGradient>
</defs>
</svg>
