<svg width="80" height="88" viewBox="0 0 80 88" fill="none" xmlns="http://www.w3.org/2000/svg">
<rect y="8" width="80" height="80" rx="40" fill="#3BE191"/>
<g filter="url(#filter0_i_235_4787)">
<path d="M30.3775 9.27212C30.3585 8.18043 30.557 7.09587 30.9617 6.08175C31.3663 5.06762 31.9688 4.14424 32.7341 3.36548C33.4994 2.58671 34.4121 1.96817 35.4191 1.54594C36.426 1.12371 37.5069 0.90625 38.5987 0.90625C39.6906 0.90625 40.7715 1.12371 41.7785 1.54594C42.7854 1.96817 43.6981 2.58671 44.4634 3.36548C45.2287 4.14424 45.8312 5.06762 46.2358 6.08175C46.6405 7.09587 46.839 8.18043 46.82 9.27212V18.7321C46.82 19.5396 46.765 20.3446 46.64 21.1496C46.595 21.4421 46.5475 21.7371 46.52 22.0296C46.43 22.9546 46.54 24.1646 47.17 24.9771L45.665 26.4271C49.4955 28.3885 52.7093 31.3706 54.9514 35.0438C57.1935 38.7171 58.3766 42.9387 58.37 47.2421C58.37 49.7046 57.99 52.0796 57.2875 54.3071L54.7975 70.5746H34.5425V70.5671C22.035 70.2971 12 62.1421 12 47.2421C12 38.4846 16.1925 31.4346 22.5375 27.4596L22.52 27.4471C22.9525 27.1471 23.4625 26.8421 24.01 26.5146L24.0125 26.5121C25.8125 25.4346 28.0125 24.1146 29.17 21.9596C30.1775 20.0896 30.3725 17.0571 30.3725 15.6521H30.3775V9.27212Z" fill="url(#paint0_linear_235_4787)"/>
</g>
<path d="M30.3775 9.27212C30.3585 8.18043 30.557 7.09587 30.9617 6.08175C31.3663 5.06762 31.9688 4.14424 32.7341 3.36548C33.4994 2.58671 34.4121 1.96817 35.4191 1.54594C36.426 1.12371 37.5069 0.90625 38.5987 0.90625C39.6906 0.90625 40.7715 1.12371 41.7785 1.54594C42.7854 1.96817 43.6981 2.58671 44.4634 3.36548C45.2287 4.14424 45.8312 5.06762 46.2358 6.08175C46.6405 7.09587 46.839 8.18043 46.82 9.27212V18.7321C46.82 19.5396 46.765 20.3446 46.64 21.1496C46.595 21.4421 46.5475 21.7371 46.52 22.0296C46.43 22.9546 46.54 24.1646 47.17 24.9771L45.665 26.4271C49.4955 28.3885 52.7093 31.3706 54.9514 35.0438C57.1935 38.7171 58.3766 42.9387 58.37 47.2421C58.37 49.7046 57.99 52.0796 57.2875 54.3071L54.7975 70.5746H34.5425V70.5671C22.035 70.2971 12 62.1421 12 47.2421C12 38.4846 16.1925 31.4346 22.5375 27.4596L22.52 27.4471C22.9525 27.1471 23.4625 26.8421 24.01 26.5146L24.0125 26.5121C25.8125 25.4346 28.0125 24.1146 29.17 21.9596C30.1775 20.0896 30.3725 17.0571 30.3725 15.6521H30.3775V9.27212Z" fill="url(#paint1_radial_235_4787)"/>
<path d="M30.3775 9.27212C30.3585 8.18043 30.557 7.09587 30.9617 6.08175C31.3663 5.06762 31.9688 4.14424 32.7341 3.36548C33.4994 2.58671 34.4121 1.96817 35.4191 1.54594C36.426 1.12371 37.5069 0.90625 38.5987 0.90625C39.6906 0.90625 40.7715 1.12371 41.7785 1.54594C42.7854 1.96817 43.6981 2.58671 44.4634 3.36548C45.2287 4.14424 45.8312 5.06762 46.2358 6.08175C46.6405 7.09587 46.839 8.18043 46.82 9.27212V18.7321C46.82 19.5396 46.765 20.3446 46.64 21.1496C46.595 21.4421 46.5475 21.7371 46.52 22.0296C46.43 22.9546 46.54 24.1646 47.17 24.9771L45.665 26.4271C49.4955 28.3885 52.7093 31.3706 54.9514 35.0438C57.1935 38.7171 58.3766 42.9387 58.37 47.2421C58.37 49.7046 57.99 52.0796 57.2875 54.3071L54.7975 70.5746H34.5425V70.5671C22.035 70.2971 12 62.1421 12 47.2421C12 38.4846 16.1925 31.4346 22.5375 27.4596L22.52 27.4471C22.9525 27.1471 23.4625 26.8421 24.01 26.5146L24.0125 26.5121C25.8125 25.4346 28.0125 24.1146 29.17 21.9596C30.1775 20.0896 30.3725 17.0571 30.3725 15.6521H30.3775V9.27212Z" fill="url(#paint2_radial_235_4787)"/>
<path d="M30.3775 9.27212C30.3585 8.18043 30.557 7.09587 30.9617 6.08175C31.3663 5.06762 31.9688 4.14424 32.7341 3.36548C33.4994 2.58671 34.4121 1.96817 35.4191 1.54594C36.426 1.12371 37.5069 0.90625 38.5987 0.90625C39.6906 0.90625 40.7715 1.12371 41.7785 1.54594C42.7854 1.96817 43.6981 2.58671 44.4634 3.36548C45.2287 4.14424 45.8312 5.06762 46.2358 6.08175C46.6405 7.09587 46.839 8.18043 46.82 9.27212V18.7321C46.82 19.5396 46.765 20.3446 46.64 21.1496C46.595 21.4421 46.5475 21.7371 46.52 22.0296C46.43 22.9546 46.54 24.1646 47.17 24.9771L45.665 26.4271C49.4955 28.3885 52.7093 31.3706 54.9514 35.0438C57.1935 38.7171 58.3766 42.9387 58.37 47.2421C58.37 49.7046 57.99 52.0796 57.2875 54.3071L54.7975 70.5746H34.5425V70.5671C22.035 70.2971 12 62.1421 12 47.2421C12 38.4846 16.1925 31.4346 22.5375 27.4596L22.52 27.4471C22.9525 27.1471 23.4625 26.8421 24.01 26.5146L24.0125 26.5121C25.8125 25.4346 28.0125 24.1146 29.17 21.9596C30.1775 20.0896 30.3725 17.0571 30.3725 15.6521H30.3775V9.27212Z" fill="url(#paint3_radial_235_4787)"/>
<path d="M30.3775 9.27212C30.3585 8.18043 30.557 7.09587 30.9617 6.08175C31.3663 5.06762 31.9688 4.14424 32.7341 3.36548C33.4994 2.58671 34.4121 1.96817 35.4191 1.54594C36.426 1.12371 37.5069 0.90625 38.5987 0.90625C39.6906 0.90625 40.7715 1.12371 41.7785 1.54594C42.7854 1.96817 43.6981 2.58671 44.4634 3.36548C45.2287 4.14424 45.8312 5.06762 46.2358 6.08175C46.6405 7.09587 46.839 8.18043 46.82 9.27212V18.7321C46.82 19.5396 46.765 20.3446 46.64 21.1496C46.595 21.4421 46.5475 21.7371 46.52 22.0296C46.43 22.9546 46.54 24.1646 47.17 24.9771L45.665 26.4271C49.4955 28.3885 52.7093 31.3706 54.9514 35.0438C57.1935 38.7171 58.3766 42.9387 58.37 47.2421C58.37 49.7046 57.99 52.0796 57.2875 54.3071L54.7975 70.5746H34.5425V70.5671C22.035 70.2971 12 62.1421 12 47.2421C12 38.4846 16.1925 31.4346 22.5375 27.4596L22.52 27.4471C22.9525 27.1471 23.4625 26.8421 24.01 26.5146L24.0125 26.5121C25.8125 25.4346 28.0125 24.1146 29.17 21.9596C30.1775 20.0896 30.3725 17.0571 30.3725 15.6521H30.3775V9.27212Z" fill="url(#paint4_radial_235_4787)"/>
<path d="M30.3775 9.27212C30.3585 8.18043 30.557 7.09587 30.9617 6.08175C31.3663 5.06762 31.9688 4.14424 32.7341 3.36548C33.4994 2.58671 34.4121 1.96817 35.4191 1.54594C36.426 1.12371 37.5069 0.90625 38.5987 0.90625C39.6906 0.90625 40.7715 1.12371 41.7785 1.54594C42.7854 1.96817 43.6981 2.58671 44.4634 3.36548C45.2287 4.14424 45.8312 5.06762 46.2358 6.08175C46.6405 7.09587 46.839 8.18043 46.82 9.27212V18.7321C46.82 19.5396 46.765 20.3446 46.64 21.1496C46.595 21.4421 46.5475 21.7371 46.52 22.0296C46.43 22.9546 46.54 24.1646 47.17 24.9771L45.665 26.4271C49.4955 28.3885 52.7093 31.3706 54.9514 35.0438C57.1935 38.7171 58.3766 42.9387 58.37 47.2421C58.37 49.7046 57.99 52.0796 57.2875 54.3071L54.7975 70.5746H34.5425V70.5671C22.035 70.2971 12 62.1421 12 47.2421C12 38.4846 16.1925 31.4346 22.5375 27.4596L22.52 27.4471C22.9525 27.1471 23.4625 26.8421 24.01 26.5146L24.0125 26.5121C25.8125 25.4346 28.0125 24.1146 29.17 21.9596C30.1775 20.0896 30.3725 17.0571 30.3725 15.6521H30.3775V9.27212Z" fill="url(#paint5_radial_235_4787)"/>
<path d="M30.3775 9.27212C30.3585 8.18043 30.557 7.09587 30.9617 6.08175C31.3663 5.06762 31.9688 4.14424 32.7341 3.36548C33.4994 2.58671 34.4121 1.96817 35.4191 1.54594C36.426 1.12371 37.5069 0.90625 38.5987 0.90625C39.6906 0.90625 40.7715 1.12371 41.7785 1.54594C42.7854 1.96817 43.6981 2.58671 44.4634 3.36548C45.2287 4.14424 45.8312 5.06762 46.2358 6.08175C46.6405 7.09587 46.839 8.18043 46.82 9.27212V18.7321C46.82 19.5396 46.765 20.3446 46.64 21.1496C46.595 21.4421 46.5475 21.7371 46.52 22.0296C46.43 22.9546 46.54 24.1646 47.17 24.9771L45.665 26.4271C49.4955 28.3885 52.7093 31.3706 54.9514 35.0438C57.1935 38.7171 58.3766 42.9387 58.37 47.2421C58.37 49.7046 57.99 52.0796 57.2875 54.3071L54.7975 70.5746H34.5425V70.5671C22.035 70.2971 12 62.1421 12 47.2421C12 38.4846 16.1925 31.4346 22.5375 27.4596L22.52 27.4471C22.9525 27.1471 23.4625 26.8421 24.01 26.5146L24.0125 26.5121C25.8125 25.4346 28.0125 24.1146 29.17 21.9596C30.1775 20.0896 30.3725 17.0571 30.3725 15.6521H30.3775V9.27212Z" fill="url(#paint6_radial_235_4787)"/>
<path d="M30.3775 9.27212C30.3585 8.18043 30.557 7.09587 30.9617 6.08175C31.3663 5.06762 31.9688 4.14424 32.7341 3.36548C33.4994 2.58671 34.4121 1.96817 35.4191 1.54594C36.426 1.12371 37.5069 0.90625 38.5987 0.90625C39.6906 0.90625 40.7715 1.12371 41.7785 1.54594C42.7854 1.96817 43.6981 2.58671 44.4634 3.36548C45.2287 4.14424 45.8312 5.06762 46.2358 6.08175C46.6405 7.09587 46.839 8.18043 46.82 9.27212V18.7321C46.82 19.5396 46.765 20.3446 46.64 21.1496C46.595 21.4421 46.5475 21.7371 46.52 22.0296C46.43 22.9546 46.54 24.1646 47.17 24.9771L45.665 26.4271C49.4955 28.3885 52.7093 31.3706 54.9514 35.0438C57.1935 38.7171 58.3766 42.9387 58.37 47.2421C58.37 49.7046 57.99 52.0796 57.2875 54.3071L54.7975 70.5746H34.5425V70.5671C22.035 70.2971 12 62.1421 12 47.2421C12 38.4846 16.1925 31.4346 22.5375 27.4596L22.52 27.4471C22.9525 27.1471 23.4625 26.8421 24.01 26.5146L24.0125 26.5121C25.8125 25.4346 28.0125 24.1146 29.17 21.9596C30.1775 20.0896 30.3725 17.0571 30.3725 15.6521H30.3775V9.27212Z" fill="url(#paint7_linear_235_4787)"/>
<g filter="url(#filter1_f_235_4787)">
<path d="M58.9049 33.1495C58.9049 31.4574 58.2327 29.8347 57.0363 28.6382C55.8398 27.4417 54.217 26.7695 52.5249 26.7695H45.4599C44.1505 26.7701 42.873 27.1736 41.8008 27.9252C40.7285 28.6767 39.9135 29.74 39.4663 30.9707C39.0192 32.2014 38.9615 33.5399 39.3011 34.8045C39.6408 36.069 40.3613 37.1985 41.3649 38.0395C40.5988 38.6166 39.9723 39.3586 39.532 40.2107C39.0916 41.0627 38.8486 42.0029 38.821 42.9617C38.7934 43.9204 38.9819 44.873 39.3725 45.749C39.7631 46.625 40.3458 47.4019 41.0774 48.022C40.3702 48.6201 39.8021 49.3652 39.4126 50.2055C39.0231 51.0457 38.8217 51.9609 38.8224 52.887V53.202C38.8224 54.952 39.5249 56.5345 40.6649 57.687C39.7903 58.5525 39.1926 59.6583 38.9477 60.8641C38.7028 62.0699 38.8218 63.3213 39.2896 64.4594C39.7573 65.5974 40.5528 66.5708 41.5748 67.2559C42.5969 67.9409 43.7995 68.3068 45.0299 68.307H52.0399C53.1307 68.3071 54.2023 68.0198 55.1467 67.474C56.0911 66.9282 56.8751 66.1431 57.4195 65.1979C57.964 64.2527 58.2498 63.1807 58.2481 62.0899C58.2464 60.9991 57.9573 59.928 57.4099 58.9845C58.5109 58.4714 59.4425 57.6547 60.0953 56.6304C60.748 55.6061 61.0949 54.4167 61.0949 53.202V52.887C61.0949 50.912 60.1949 49.1495 58.7899 47.9795C59.5941 47.2815 60.2113 46.3938 60.5857 45.3969C60.9602 44.4001 61.08 43.3255 60.9342 42.2707C60.7885 41.2158 60.3819 40.214 59.7512 39.356C59.1205 38.498 58.2857 37.8109 57.3224 37.357C58.3074 36.232 58.9049 34.7595 58.9049 33.147" fill="url(#paint8_linear_235_4787)"/>
</g>
<g filter="url(#filter2_i_235_4787)">
<path d="M57.3246 37.7521C61.3425 37.7521 64.5996 34.495 64.5996 30.4771C64.5996 26.4593 61.3425 23.2021 57.3246 23.2021H49.2671C45.2492 23.2021 41.9921 26.4593 41.9921 30.4771C41.9921 34.495 45.2492 37.7521 49.2671 37.7521H57.3246Z" fill="url(#paint9_linear_235_4787)"/>
<path d="M57.3246 37.7521C61.3425 37.7521 64.5996 34.495 64.5996 30.4771C64.5996 26.4593 61.3425 23.2021 57.3246 23.2021H49.2671C45.2492 23.2021 41.9921 26.4593 41.9921 30.4771C41.9921 34.495 45.2492 37.7521 49.2671 37.7521H57.3246Z" fill="url(#paint10_radial_235_4787)"/>
<path d="M57.3246 37.7521C61.3425 37.7521 64.5996 34.495 64.5996 30.4771C64.5996 26.4593 61.3425 23.2021 57.3246 23.2021H49.2671C45.2492 23.2021 41.9921 26.4593 41.9921 30.4771C41.9921 34.495 45.2492 37.7521 49.2671 37.7521H57.3246Z" fill="url(#paint11_radial_235_4787)"/>
</g>
<g filter="url(#filter3_f_235_4787)">
<path d="M59.0427 26.7695H49.9927C48.2557 26.7695 46.8477 28.1776 46.8477 29.9145C46.8477 31.6515 48.2557 33.0595 49.9927 33.0595H59.0427C60.7796 33.0595 62.1877 31.6515 62.1877 29.9145C62.1877 28.1776 60.7796 26.7695 59.0427 26.7695Z" fill="url(#paint12_linear_235_4787)"/>
</g>
<g filter="url(#filter4_i_235_4787)">
<path d="M56.7677 70.577C60.6778 70.577 63.8477 67.4072 63.8477 63.497C63.8477 59.5868 60.6778 56.417 56.7677 56.417H48.7752C44.865 56.417 41.6952 59.5868 41.6952 63.497C41.6952 67.4072 44.865 70.577 48.7752 70.577H56.7677Z" fill="url(#paint13_linear_235_4787)"/>
<path d="M56.7677 70.577C60.6778 70.577 63.8477 67.4072 63.8477 63.497C63.8477 59.5868 60.6778 56.417 56.7677 56.417H48.7752C44.865 56.417 41.6952 59.5868 41.6952 63.497C41.6952 67.4072 44.865 70.577 48.7752 70.577H56.7677Z" fill="url(#paint14_radial_235_4787)"/>
<path d="M56.7677 70.577C60.6778 70.577 63.8477 67.4072 63.8477 63.497C63.8477 59.5868 60.6778 56.417 56.7677 56.417H48.7752C44.865 56.417 41.6952 59.5868 41.6952 63.497C41.6952 67.4072 44.865 70.577 48.7752 70.577H56.7677Z" fill="url(#paint15_radial_235_4787)"/>
</g>
<g filter="url(#filter5_f_235_4787)">
<path d="M60.3427 60.6221H50.6077C49.5887 60.6221 48.7627 61.4481 48.7627 62.4671C48.7627 63.486 49.5887 64.3121 50.6077 64.3121H60.3427C61.3617 64.3121 62.1877 63.486 62.1877 62.4671C62.1877 61.4481 61.3617 60.6221 60.3427 60.6221Z" fill="url(#paint16_linear_235_4787)"/>
</g>
<g filter="url(#filter6_i_235_4787)">
<path d="M67.0947 53.345V52.985C67.0947 48.9671 63.8376 45.71 59.8197 45.71H48.9722C44.9544 45.71 41.6972 48.9671 41.6972 52.985V53.345C41.6972 57.3628 44.9544 60.62 48.9722 60.62H59.8197C63.8376 60.62 67.0947 57.3628 67.0947 53.345Z" fill="url(#paint17_linear_235_4787)"/>
<path d="M67.0947 53.345V52.985C67.0947 48.9671 63.8376 45.71 59.8197 45.71H48.9722C44.9544 45.71 41.6972 48.9671 41.6972 52.985V53.345C41.6972 57.3628 44.9544 60.62 48.9722 60.62H59.8197C63.8376 60.62 67.0947 57.3628 67.0947 53.345Z" fill="url(#paint18_radial_235_4787)"/>
<path d="M67.0947 53.345V52.985C67.0947 48.9671 63.8376 45.71 59.8197 45.71H48.9722C44.9544 45.71 41.6972 48.9671 41.6972 52.985V53.345C41.6972 57.3628 44.9544 60.62 48.9722 60.62H59.8197C63.8376 60.62 67.0947 57.3628 67.0947 53.345Z" fill="url(#paint19_radial_235_4787)"/>
</g>
<g filter="url(#filter7_f_235_4787)">
<path d="M62.7546 50.9473H49.6321C48.6131 50.9473 47.7871 51.7733 47.7871 52.7923C47.7871 53.8112 48.6131 54.6373 49.6321 54.6373H62.7546C63.7736 54.6373 64.5996 53.8112 64.5996 52.7923C64.5996 51.7733 63.7736 50.9473 62.7546 50.9473Z" fill="url(#paint20_linear_235_4787)"/>
</g>
<g filter="url(#filter8_i_235_4787)">
<path d="M66.9805 41.8944V41.8619C66.9805 37.844 63.7233 34.5869 59.7055 34.5869H48.9705C44.9526 34.5869 41.6955 37.844 41.6955 41.8619V41.8944C41.6955 45.9123 44.9526 49.1694 48.9705 49.1694H59.7055C63.7233 49.1694 66.9805 45.9123 66.9805 41.8944Z" fill="url(#paint21_linear_235_4787)"/>
<path d="M66.9805 41.8944V41.8619C66.9805 37.844 63.7233 34.5869 59.7055 34.5869H48.9705C44.9526 34.5869 41.6955 37.844 41.6955 41.8619V41.8944C41.6955 45.9123 44.9526 49.1694 48.9705 49.1694H59.7055C63.7233 49.1694 66.9805 45.9123 66.9805 41.8944Z" fill="url(#paint22_radial_235_4787)"/>
</g>
<g filter="url(#filter9_f_235_4787)">
<path d="M61.4549 37.6494H49.8149C48.078 37.6494 46.6699 39.0575 46.6699 40.7944C46.6699 42.5313 48.078 43.9394 49.8149 43.9394H61.4549C63.1919 43.9394 64.5999 42.5313 64.5999 40.7944C64.5999 39.0575 63.1919 37.6494 61.4549 37.6494Z" fill="url(#paint23_linear_235_4787)"/>
</g>
<path d="M38.6273 1.0498C36.4466 1.0498 34.3551 1.9161 32.8131 3.45812C31.2711 5.00014 30.4048 7.09156 30.4048 9.2723V15.6523H30.3998C30.3998 17.0573 30.2048 20.0898 29.1998 21.9598C28.0398 24.1148 25.8398 25.4348 24.0423 26.5098C23.4923 26.8398 22.9823 27.1473 22.5498 27.4473C25.0373 29.4398 30.1298 33.4223 30.2548 33.3273C30.3798 33.2323 36.1148 30.1898 38.9648 28.6773L38.8448 26.9523C40.9868 26.895 43.0217 26.0038 44.5164 24.4685C46.0111 22.9332 46.8474 20.875 46.8473 18.7323V9.2723C46.8473 7.09199 45.9814 5.00095 44.4399 3.459C42.8984 1.91706 40.8076 1.05047 38.6273 1.0498Z" fill="url(#paint24_radial_235_4787)"/>
<g filter="url(#filter10_f_235_4787)">
<path d="M44.7473 7.11973C44.7473 5.48358 43.4209 4.15723 41.7848 4.15723C40.1486 4.15723 38.8223 5.48358 38.8223 7.11973V21.1872C38.8223 22.8234 40.1486 24.1497 41.7848 24.1497C43.4209 24.1497 44.7473 22.8234 44.7473 21.1872V7.11973Z" fill="url(#paint25_linear_235_4787)"/>
</g>
<defs>
<filter id="filter0_i_235_4787" x="12" y="0.90625" width="46.8701" height="69.668" filterUnits="userSpaceOnUse" color-interpolation-filters="sRGB">
<feFlood flood-opacity="0" result="BackgroundImageFix"/>
<feBlend mode="normal" in="SourceGraphic" in2="BackgroundImageFix" result="shape"/>
<feColorMatrix in="SourceAlpha" type="matrix" values="0 0 0 0 0 0 0 0 0 0 0 0 0 0 0 0 0 0 127 0" result="hardAlpha"/>
<feOffset dx="0.5"/>
<feGaussianBlur stdDeviation="1.5"/>
<feComposite in2="hardAlpha" operator="arithmetic" k2="-1" k3="1"/>
<feColorMatrix type="matrix" values="0 0 0 0 0.87451 0 0 0 0 0.67451 0 0 0 0 0.568627 0 0 0 1 0"/>
<feBlend mode="normal" in2="shape" result="effect1_innerShadow_235_4787"/>
</filter>
<filter id="filter1_f_235_4787" x="36.8184" y="24.7695" width="26.2764" height="45.5371" filterUnits="userSpaceOnUse" color-interpolation-filters="sRGB">
<feFlood flood-opacity="0" result="BackgroundImageFix"/>
<feBlend mode="normal" in="SourceGraphic" in2="BackgroundImageFix" result="shape"/>
<feGaussianBlur stdDeviation="1" result="effect1_foregroundBlur_235_4787"/>
</filter>
<filter id="filter2_i_235_4787" x="41.9922" y="23.2021" width="23.1074" height="14.5498" filterUnits="userSpaceOnUse" color-interpolation-filters="sRGB">
<feFlood flood-opacity="0" result="BackgroundImageFix"/>
<feBlend mode="normal" in="SourceGraphic" in2="BackgroundImageFix" result="shape"/>
<feColorMatrix in="SourceAlpha" type="matrix" values="0 0 0 0 0 0 0 0 0 0 0 0 0 0 0 0 0 0 127 0" result="hardAlpha"/>
<feOffset dx="0.5"/>
<feGaussianBlur stdDeviation="0.75"/>
<feComposite in2="hardAlpha" operator="arithmetic" k2="-1" k3="1"/>
<feColorMatrix type="matrix" values="0 0 0 0 0.898039 0 0 0 0 0.690196 0 0 0 0 0.568627 0 0 0 1 0"/>
<feBlend mode="normal" in2="shape" result="effect1_innerShadow_235_4787"/>
</filter>
<filter id="filter3_f_235_4787" x="45.5977" y="25.5195" width="17.8398" height="8.79004" filterUnits="userSpaceOnUse" color-interpolation-filters="sRGB">
<feFlood flood-opacity="0" result="BackgroundImageFix"/>
<feBlend mode="normal" in="SourceGraphic" in2="BackgroundImageFix" result="shape"/>
<feGaussianBlur stdDeviation="0.625" result="effect1_foregroundBlur_235_4787"/>
</filter>
<filter id="filter4_i_235_4787" x="41.6953" y="56.417" width="22.6523" height="14.6602" filterUnits="userSpaceOnUse" color-interpolation-filters="sRGB">
<feFlood flood-opacity="0" result="BackgroundImageFix"/>
<feBlend mode="normal" in="SourceGraphic" in2="BackgroundImageFix" result="shape"/>
<feColorMatrix in="SourceAlpha" type="matrix" values="0 0 0 0 0 0 0 0 0 0 0 0 0 0 0 0 0 0 127 0" result="hardAlpha"/>
<feOffset dx="0.5" dy="0.5"/>
<feGaussianBlur stdDeviation="0.75"/>
<feComposite in2="hardAlpha" operator="arithmetic" k2="-1" k3="1"/>
<feColorMatrix type="matrix" values="0 0 0 0 0.811765 0 0 0 0 0.568627 0 0 0 0 0.541176 0 0 0 1 0"/>
<feBlend mode="normal" in2="shape" result="effect1_innerShadow_235_4787"/>
</filter>
<filter id="filter5_f_235_4787" x="47.5127" y="59.3721" width="15.9248" height="6.19043" filterUnits="userSpaceOnUse" color-interpolation-filters="sRGB">
<feFlood flood-opacity="0" result="BackgroundImageFix"/>
<feBlend mode="normal" in="SourceGraphic" in2="BackgroundImageFix" result="shape"/>
<feGaussianBlur stdDeviation="0.625" result="effect1_foregroundBlur_235_4787"/>
</filter>
<filter id="filter6_i_235_4787" x="41.6973" y="45.71" width="26.3975" height="15.4102" filterUnits="userSpaceOnUse" color-interpolation-filters="sRGB">
<feFlood flood-opacity="0" result="BackgroundImageFix"/>
<feBlend mode="normal" in="SourceGraphic" in2="BackgroundImageFix" result="shape"/>
<feColorMatrix in="SourceAlpha" type="matrix" values="0 0 0 0 0 0 0 0 0 0 0 0 0 0 0 0 0 0 127 0" result="hardAlpha"/>
<feOffset dx="1" dy="0.5"/>
<feGaussianBlur stdDeviation="0.75"/>
<feComposite in2="hardAlpha" operator="arithmetic" k2="-1" k3="1"/>
<feColorMatrix type="matrix" values="0 0 0 0 0.831373 0 0 0 0 0.576471 0 0 0 0 0.505882 0 0 0 1 0"/>
<feBlend mode="normal" in2="shape" result="effect1_innerShadow_235_4787"/>
</filter>
<filter id="filter7_f_235_4787" x="46.5371" y="49.6973" width="19.3125" height="6.19043" filterUnits="userSpaceOnUse" color-interpolation-filters="sRGB">
<feFlood flood-opacity="0" result="BackgroundImageFix"/>
<feBlend mode="normal" in="SourceGraphic" in2="BackgroundImageFix" result="shape"/>
<feGaussianBlur stdDeviation="0.625" result="effect1_foregroundBlur_235_4787"/>
</filter>
<filter id="filter8_i_235_4787" x="41.6953" y="34.5869" width="25.7852" height="15.082" filterUnits="userSpaceOnUse" color-interpolation-filters="sRGB">
<feFlood flood-opacity="0" result="BackgroundImageFix"/>
<feBlend mode="normal" in="SourceGraphic" in2="BackgroundImageFix" result="shape"/>
<feColorMatrix in="SourceAlpha" type="matrix" values="0 0 0 0 0 0 0 0 0 0 0 0 0 0 0 0 0 0 127 0" result="hardAlpha"/>
<feOffset dx="0.5" dy="0.5"/>
<feGaussianBlur stdDeviation="0.75"/>
<feComposite in2="hardAlpha" operator="arithmetic" k2="-1" k3="1"/>
<feColorMatrix type="matrix" values="0 0 0 0 0.862745 0 0 0 0 0.658824 0 0 0 0 0.54902 0 0 0 1 0"/>
<feBlend mode="normal" in2="shape" result="effect1_innerShadow_235_4787"/>
</filter>
<filter id="filter9_f_235_4787" x="45.4199" y="36.3994" width="20.4297" height="8.79004" filterUnits="userSpaceOnUse" color-interpolation-filters="sRGB">
<feFlood flood-opacity="0" result="BackgroundImageFix"/>
<feBlend mode="normal" in="SourceGraphic" in2="BackgroundImageFix" result="shape"/>
<feGaussianBlur stdDeviation="0.625" result="effect1_foregroundBlur_235_4787"/>
</filter>
<filter id="filter10_f_235_4787" x="37.5723" y="2.90723" width="8.4248" height="22.4922" filterUnits="userSpaceOnUse" color-interpolation-filters="sRGB">
<feFlood flood-opacity="0" result="BackgroundImageFix"/>
<feBlend mode="normal" in="SourceGraphic" in2="BackgroundImageFix" result="shape"/>
<feGaussianBlur stdDeviation="0.625" result="effect1_foregroundBlur_235_4787"/>
</filter>
<linearGradient id="paint0_linear_235_4787" x1="49.025" y1="25.9596" x2="20.635" y2="80.1371" gradientUnits="userSpaceOnUse">
<stop stop-color="#FFDDBE"/>
<stop offset="1" stop-color="#E7AFA8"/>
</linearGradient>
<radialGradient id="paint1_radial_235_4787" cx="0" cy="0" r="1" gradientUnits="userSpaceOnUse" gradientTransform="translate(45.0937 4.61137) rotate(138.814) scale(9.26518 7.22903)">
<stop stop-color="#FFE6C7"/>
<stop offset="1" stop-color="#FFE6C7" stop-opacity="0"/>
</radialGradient>
<radialGradient id="paint2_radial_235_4787" cx="0" cy="0" r="1" gradientUnits="userSpaceOnUse" gradientTransform="translate(25.691 35.8113) rotate(133.564) scale(18.5305 13.4238)">
<stop stop-color="#F2C0A5"/>
<stop offset="1" stop-color="#F2C0A5" stop-opacity="0"/>
</radialGradient>
<radialGradient id="paint3_radial_235_4787" cx="0" cy="0" r="1" gradientUnits="userSpaceOnUse" gradientTransform="translate(49.5575 38.0371) rotate(135.794) scale(26.723 16.4741)">
<stop stop-color="#DDA895"/>
<stop offset="1" stop-color="#DDA895" stop-opacity="0"/>
</radialGradient>
<radialGradient id="paint4_radial_235_4787" cx="0" cy="0" r="1" gradientUnits="userSpaceOnUse" gradientTransform="translate(26.01 80.8121) rotate(-62.612) scale(36.8553 65.5285)">
<stop stop-color="#C08494"/>
<stop offset="1" stop-color="#C08494" stop-opacity="0"/>
</radialGradient>
<radialGradient id="paint5_radial_235_4787" cx="0" cy="0" r="1" gradientUnits="userSpaceOnUse" gradientTransform="translate(50.2925 47.9846) rotate(180) scale(38.835 59.7688)">
<stop offset="0.864" stop-color="#EDB29B" stop-opacity="0"/>
<stop offset="1" stop-color="#EDB29B"/>
</radialGradient>
<radialGradient id="paint6_radial_235_4787" cx="0" cy="0" r="1" gradientUnits="userSpaceOnUse" gradientTransform="translate(45.6225 24.2671) rotate(38.8999) scale(3.90565 5.14345)">
<stop stop-color="#FFDBBA"/>
<stop offset="1" stop-color="#FFDBBA" stop-opacity="0"/>
</radialGradient>
<linearGradient id="paint7_linear_235_4787" x1="35.185" y1="73.6246" x2="35.185" y2="65.0321" gradientUnits="userSpaceOnUse">
<stop stop-color="#B57895"/>
<stop offset="1" stop-color="#B57895" stop-opacity="0"/>
</linearGradient>
<linearGradient id="paint8_linear_235_4787" x1="48.2049" y1="31.3895" x2="48.2049" y2="69.8095" gradientUnits="userSpaceOnUse">
<stop stop-color="#B5755F"/>
<stop offset="1" stop-color="#B3748D"/>
</linearGradient>
<linearGradient id="paint9_linear_235_4787" x1="64.5996" y1="30.4771" x2="44.2371" y2="30.4771" gradientUnits="userSpaceOnUse">
<stop stop-color="#FFD8BA"/>
<stop offset="1" stop-color="#ECB9A3"/>
</linearGradient>
<radialGradient id="paint10_radial_235_4787" cx="0" cy="0" r="1" gradientUnits="userSpaceOnUse" gradientTransform="translate(44.0471 34.8496) scale(16.565 6.64417)">
<stop stop-color="#DFA995"/>
<stop offset="1" stop-color="#DFA995" stop-opacity="0"/>
</radialGradient>
<radialGradient id="paint11_radial_235_4787" cx="0" cy="0" r="1" gradientUnits="userSpaceOnUse" gradientTransform="translate(45.6671 36.9246) rotate(-142.633) scale(5.80276 3.88419)">
<stop stop-color="#CA8C6F"/>
<stop offset="1" stop-color="#CA8C6F" stop-opacity="0"/>
</radialGradient>
<linearGradient id="paint12_linear_235_4787" x1="61.3902" y1="28.492" x2="44.8552" y2="28.492" gradientUnits="userSpaceOnUse">
<stop stop-color="#FFE7CA"/>
<stop offset="1" stop-color="#FFE7CA" stop-opacity="0"/>
</linearGradient>
<linearGradient id="paint13_linear_235_4787" x1="61.9077" y1="63.497" x2="41.6951" y2="63.497" gradientUnits="userSpaceOnUse">
<stop stop-color="#FECEB7"/>
<stop offset="1" stop-color="#DAA59E"/>
</linearGradient>
<radialGradient id="paint14_radial_235_4787" cx="0" cy="0" r="1" gradientUnits="userSpaceOnUse" gradientTransform="translate(48.0752 70.5745) scale(20.5192 3.89017)">
<stop stop-color="#BF8196"/>
<stop offset="1" stop-color="#BF8196" stop-opacity="0"/>
</radialGradient>
<radialGradient id="paint15_radial_235_4787" cx="0" cy="0" r="1" gradientUnits="userSpaceOnUse" gradientTransform="translate(47.0252 58.902) scale(16.8242 3.7827)">
<stop stop-color="#B57767"/>
<stop offset="1" stop-color="#B57767" stop-opacity="0"/>
</radialGradient>
<linearGradient id="paint16_linear_235_4787" x1="61.4902" y1="61.6346" x2="47.0177" y2="61.6346" gradientUnits="userSpaceOnUse">
<stop stop-color="#FFD2C1"/>
<stop offset="1" stop-color="#FFD2C1" stop-opacity="0"/>
</linearGradient>
<linearGradient id="paint17_linear_235_4787" x1="64.8697" y1="53.165" x2="41.6972" y2="53.165" gradientUnits="userSpaceOnUse">
<stop stop-color="#FFDDC1"/>
<stop offset="1" stop-color="#E5B1A3"/>
</linearGradient>
<radialGradient id="paint18_radial_235_4787" cx="0" cy="0" r="1" gradientUnits="userSpaceOnUse" gradientTransform="translate(46.8422 60.62) scale(23.0421 8.1969)">
<stop offset="0.14" stop-color="#CA8E96"/>
<stop offset="1" stop-color="#CA8E96" stop-opacity="0"/>
</radialGradient>
<radialGradient id="paint19_radial_235_4787" cx="0" cy="0" r="1" gradientUnits="userSpaceOnUse" gradientTransform="translate(48.8947 47.0125) scale(11.8832 4.82387)">
<stop stop-color="#BB7E6C"/>
<stop offset="1" stop-color="#BB7E6C" stop-opacity="0"/>
</radialGradient>
<linearGradient id="paint20_linear_235_4787" x1="63.7271" y1="51.9598" x2="45.6046" y2="51.9598" gradientUnits="userSpaceOnUse">
<stop stop-color="#FFE2C9"/>
<stop offset="1" stop-color="#FFE2C9" stop-opacity="0"/>
</linearGradient>
<linearGradient id="paint21_linear_235_4787" x1="66.9805" y1="41.8769" x2="41.698" y2="41.8769" gradientUnits="userSpaceOnUse">
<stop stop-color="#FFDFBF"/>
<stop offset="1" stop-color="#E2AE9C"/>
</linearGradient>
<radialGradient id="paint22_radial_235_4787" cx="0" cy="0" r="1" gradientUnits="userSpaceOnUse" gradientTransform="translate(48.118 49.1694) scale(20.2344 9.39212)">
<stop stop-color="#D39797"/>
<stop offset="1" stop-color="#D39797" stop-opacity="0"/>
</radialGradient>
<linearGradient id="paint23_linear_235_4787" x1="63.6699" y1="39.3744" x2="44.3424" y2="39.3744" gradientUnits="userSpaceOnUse">
<stop stop-color="#FFE8CA"/>
<stop offset="1" stop-color="#FFE8CA" stop-opacity="0"/>
</linearGradient>
<radialGradient id="paint24_radial_235_4787" cx="0" cy="0" r="1" gradientUnits="userSpaceOnUse" gradientTransform="translate(30.5873 11.2298) rotate(90) scale(15.8224 6.2446)">
<stop stop-color="#E0A892"/>
<stop offset="1" stop-color="#E0A892" stop-opacity="0"/>
</radialGradient>
<linearGradient id="paint25_linear_235_4787" x1="44.4398" y1="9.63973" x2="38.0523" y2="9.63973" gradientUnits="userSpaceOnUse">
<stop stop-color="#FFE7CA"/>
<stop offset="1" stop-color="#FFE7CA" stop-opacity="0"/>
</linearGradient>
</defs>
</svg>
